{
DisplayStrings = (
"/gjTT  /gjTTY  /gjT  /gjT.alt  /gjTY  \012/gjJY/gjM  /gjDdM  /gjDdY  /gjY  /gjNgM  /gjNgY/gjJha/gjJhY  /gjNy  /gjNyY  /gjSY  /gjTtha/gjTthY  \012/gjJNyY   /gjTN  /gjTM  ",
/gjTN
);
copyright = "Copyright \U00A9 2015 by Rosetta Type Foundry. All rights reserved.";
customParameters = (
{
name = glyphOrder;
value = (
    ".notdef",
    NULL,
    CR,
    space,
    nbspace,
    enspace,
    emspace,
    thinspace,
    A,
    B,
    C,
    D,
    E,
    F,
    G,
    H,
    I,
    J,
    K,
    L,
    M,
    N,
    O,
    P,
    Q,
    R,
    S,
    T,
    U,
    V,
    W,
    X,
    Y,
    Z,
    a,
    b,
    c,
    d,
    e,
    f,
    g,
    h,
    i,
    j,
    k,
    l,
    m,
    n,
    o,
    p,
    q,
    r,
    s,
    t,
    u,
    v,
    w,
    x,
    y,
    z,
    quotesingle,
    quotedbl,
    numbersign,
    ampersand,
    asterisk,
    comma,
    hyphen,
    softhyphen,
    period,
    colon,
    semicolon,
    question,
    exclam,
    questiondown,
    exclamdown,
    at,
    parenleft,
    parenright,
    bracketleft,
    bracketright,
    braceleft,
    braceright,
    backslash,
    slash,
    brokenbar,
    bar,
    asciicircum,
    underscore,
    asciitilde,
    section,
    copyright,
    registered,
    trademark,
    ordfeminine,
    ordmasculine,
    guilsinglleft,
    guilsinglright,
    guillemetleft,
    guillemetright,
    quoteleft,
    quoteright,
    quotesinglbase,
    quotedblleft,
    quotedblright,
    quotedblbase,
    dagger,
    daggerdbl,
    ellipsis,
    paragraph,
    periodcentered,
    endash,
    emdash,
    circumflex,
    caron,
    macron,
    firsttonechinese,
    breve,
    dieresis,
    acute,
    grave,
    cedilla,
    dotaccent,
    ring,
    ogonek,
    tilde,
    hungarumlaut,
    circumflexcomb,
    "circumflexcomb.case",
    caroncomb,
    "caroncomb.case",
    "caroncomb.calt",
    macroncomb,
    "macroncomb.case",
    brevecomb,
    "brevecomb.case",
    dieresiscomb,

glyphs = (
{
glyphname = .notdef;
lastChange = "2015-11-29 15:16:09 +0000";
layers = (
{
layerId = "DAAEA780-4710-4479-B303-5C05B40621B2";
name = Light;
paths = (
{
closed = 1;
nodes = (
"440 387 LINE",
"783 705 LINE",
"439 1043 LINE",
"553 1159 LINE",
"886 807 LINE",
"1214 1158 LINE",
"1333 1042 LINE",
"985 708 LINE",
"1333 365 LINE",
"1220 252 LINE",
"883 605 LINE",
"559 252 LINE"
);
},
{
closed = 1;
nodes = (
"177 0 LINE",
"1593 0 LINE",
"1593 1416 LINE",
"177 1416 LINE"
);
}
);
width = 1770;
},
{
layerId = "925CB40E-795E-477B-BAE7-1EE7D58841B5";
name = Bold;
paths = (
{
closed = 1;
nodes = (
"440 387 LINE",
"783 705 LINE",
"439 1043 LINE",
"553 1159 LINE",
"886 807 LINE",
"1214 1158 LINE",
"1333 1042 LINE",
"985 708 LINE",
"1333 365 LINE",
"1220 252 LINE",
"883 605 LINE",
"559 252 LINE"
);
},
{
closed = 1;
nodes = (
"177 0 LINE",
"1593 0 LINE",
"1593 1416 LINE",
"177 1416 LINE"
);
}
);
width = 1770;
}
);
},
{
glyphname = A;
lastChange = "2015-11-29 15:16:09 +0000";
layers = (
{
anchors = (
{
name = btm;
position = "{715, 0}";
},
{
name = top;
position = "{742, 1562}";
}
);
layerId = "DAAEA780-4710-4479-B303-5C05B40621B2";
name = Light;
paths = (
{
closed = 1;
nodes = (
"332 483 LINE",
"1094 483 LINE",
"1052 589 LINE",
"366 589 LINE"
);
},
{
closed = 1;
nodes = (
"820 1567 LINE",
"652 1567 LINE",
"168 170 LINE SMOOTH",
"158 140 OFFCURVE",
"137 123 OFFCURVE",
"106 116 CURVE SMOOTH",
"-12 88 LINE",
"-12 0 LINE",
"487 0 LINE",
"487 88 LINE",
"287 126 LINE",
"745 1494 LINE",
"674 1494 LINE",
"1164 126 LINE",
"964 88 LINE",
"964 0 LINE",
"1503 0 LINE",
"1503 88 LINE",
"1392 116 LINE SMOOTH",
"1360 124 OFFCURVE",
"1341 139 OFFCURVE",
"1330 170 CURVE SMOOTH"
);
}
);
width = 1486;
},
{
anchors = (
{
name = btm;
position = "{646, 0}";
},
{
name = top;
position = "{796, 1562}";
}
);
layerId = "925CB40E-795E-477B-BAE7-1EE7D58841B5";
name = Bold;
paths = (
{
closed = 1;
nodes = (
"356 457 LINE",
"1087 457 LINE",
"1031 628 LINE",
"403 628 LINE"
);
},
{
closed = 1;
nodes = (
"973 1567 LINE",
"617 1567 LINE",
"163 225 LINE SMOOTH",
"153 198 OFFCURVE",
"137 184 OFFCURVE",
"110 177 CURVE SMOOTH",
"-26 144 LINE",
"-26 0 LINE",
"558 0 LINE",
"558 144 LINE",
"367 175 LINE",
"746 1423 LINE",
"663 1423 LINE",
"1049 175 LINE",
"858 144 LINE",
"858 0 LINE",
"1609 0 LINE",
"1609 144 LINE",
"1483 177 LINE SMOOTH",
"1457 185 OFFCURVE",
"1440 198 OFFCURVE",
"1430 225 CURVE SMOOTH"
);
}
);
width = 1589;
}
);
unicode = 0041;
},
{
glyphname = B;
lastChange = "2015-11-29 15:16:09 +0000";
layers = (
{
anchors = (
{
name = btm;
position = "{770, 0}";
},
{
name = top;
position = "{770, 1562}";
}
);
layerId = "DAAEA780-4710-4479-B303-5C05B40621B2";
name = Light;
paths = (
{
closed = 1;
nodes = (
"1226 1214 CURVE SMOOTH",
"1226 1448 OFFCURVE",
"1081 1578 OFFCURVE",
"724 1578 CURVE SMOOTH",
"613 1578 OFFCURVE",
"518 1562 OFFCURVE",
"396 1562 CURVE SMOOTH",
"96 1562 LINE",
"96 1474 LINE",
"265 1440 LINE SMOOTH",
"293 1434 OFFCURVE",
"311 1412 OFFCURVE",
"311 1384 CURVE SMOOTH",
"311 175 LINE SMOOTH",
"311 146 OFFCURVE",
"291 123 OFFCURVE",
"263 118 CURVE SMOOTH",
"96 88 LINE",
"96 0 LINE",
"388 0 LINE SMOOTH",
"544 0 OFFCURVE",
"613 -12 OFFCURVE",
"712 -12 CURVE SMOOTH",
"1187 -12 OFFCURVE",
"1335 195 OFFCURVE",
"1335 458 CURVE SMOOTH",
"1335 702 OFFCURVE",
"1162 854 OFFCURVE",
"880 827 CURVE",
"880 818 LINE",
"1111 844 OFFCURVE",
"1226 1008 OFFCURVE"
);
},
{
closed = 1;
nodes = (
"421 753 LINE",
"523 757 OFFCURVE",
"695 758 OFFCURVE",
"773 758 CURVE SMOOTH",
"1037 758 OFFCURVE",
"1152 662 OFFCURVE",
"1152 429 CURVE SMOOTH",
"1152 196 OFFCURVE",
"1029 84 OFFCURVE",
"711 84 CURVE SMOOTH",
"641 84 OFFCURVE",
"539 93 OFFCURVE",
"479 101 CURVE",
"479 1471 LINE",
"520 1472 OFFCURVE",
"593 1484 OFFCURVE",
"693 1484 CURVE SMOOTH",
"964 1484 OFFCURVE",
"1057 1386 OFFCURVE",
"1057 1187 CURVE SMOOTH",
"1057 965 OFFCURVE",
"939 863 OFFCURVE",
"732 863 CURVE SMOOTH",
"675 863 OFFCURVE",
"524 862 OFFCURVE",
"419 867 CURVE"
);
}
);
width = 1437;
},
{
anchors = (
{
name = btm;
position = "{820, 0}";
},
{
name = top;
position = "{820, 1562}";
}
);
layerId = "925CB40E-795E-477B-BAE7-1EE7D58841B5";
name = Bold;
paths = (
{
closed = 1;
nodes = (
"1396 1206 CURVE SMOOTH",
"1396 1449 OFFCURVE",
"1278 1574 OFFCURVE",
"838 1574 CURVE SMOOTH",
"698 1574 OFFCURVE",
"599 1562 OFFCURVE",
"469 1562 CURVE SMOOTH",
"80 1562 LINE",
"80 1411 LINE",
"242 1379 LINE SMOOTH",
"266 1374 OFFCURVE",
"282 1355 OFFCURVE",
"282 1330 CURVE SMOOTH",
"282 223 LINE SMOOTH",
"282 198 OFFCURVE",
"266 179 OFFCURVE",
"242 174 CURVE SMOOTH",
"80 144 LINE",
"80 0 LINE",
"474 0 LINE SMOOTH",
"604 0 OFFCURVE",
"682 -12 OFFCURVE",
"832 -12 CURVE SMOOTH",
"1346 -12 OFFCURVE",
"1501 191 OFFCURVE",
"1501 462 CURVE SMOOTH",
"1501 731 OFFCURVE",
"1284 852 OFFCURVE",
"1010 832 CURVE",
"1010 817 LINE",
"1239 829 OFFCURVE",
"1396 960 OFFCURVE"
);
},
{
closed = 1;
nodes = (
"592 716 LINE",
"678 719 OFFCURVE",
"765 722 OFFCURVE",
"827 722 CURVE SMOOTH",
"995 722 OFFCURVE",
"1082 655 OFFCURVE",
"1082 452 CURVE SMOOTH",
"1082 251 OFFCURVE",
"1005 134 OFFCURVE",
"811 134 CURVE SMOOTH",
"757 134 OFFCURVE",
"697 141 OFFCURVE",
"660 148 CURVE",
"660 1424 LINE",
"683 1428 OFFCURVE",
"770 1434 OFFCURVE",
"791 1434 CURVE SMOOTH",
"947 1434 OFFCURVE",
"1021 1359 OFFCURVE",
"1021 1174 CURVE SMOOTH",
"1021 986 OFFCURVE",
"959 883 OFFCURVE",
"811 883 CURVE SMOOTH",
"759 883 OFFCURVE",
"679 883 OFFCURVE",
"592 889 CURVE"
);
}
);
width = 1571;
}
);
unicode = 0042;
},
{
glyphname = C;
lastChange = "2015-11-29 15:16:09 +0000";
layers = (
{
anchors = (
{
name = btm;
position = "{806, 0}";
},
{
name = top;
position = "{815, 1562}";
}
);
layerId = "DAAEA780-4710-4479-B303-5C05B40621B2";
name = Light;
paths = (
{
closed = 1;
nodes = (
"821 -26 CURVE SMOOTH",
"985 -26 OFFCURVE",
"1147 5 OFFCURVE",
"1255 52 CURVE",
"1274 160 OFFCURVE",
"1286 285 OFFCURVE",
"1284 391 CURVE",
"1184 401 LINE",
"1123 191 LINE SMOOTH",
"1117 169 OFFCURVE",
"1097 147 OFFCURVE",
"1073 131 CURVE SMOOTH",
"1021 98 OFFCURVE",
"916 73 OFFCURVE",
"798 73 CURVE SMOOTH",
"458 73 OFFCURVE",
"308 383 OFFCURVE",
"308 797 CURVE SMOOTH",
"308 1272 OFFCURVE",
"504 1485 OFFCURVE",
"798 1485 CURVE SMOOTH",
"909 1485 OFFCURVE",
"1017 1459 OFFCURVE",
"1066 1431 CURVE SMOOTH",
"1095 1415 OFFCURVE",
"1108 1396 OFFCURVE",
"1115 1365 CURVE SMOOTH",
"1159 1153 LINE",
"1259 1153 LINE",
"1275 1270 OFFCURVE",
"1284 1402 OFFCURVE",
"1280 1513 CURVE",
"1150 1563 OFFCURVE",
"992 1585 OFFCURVE",
"851 1585 CURVE SMOOTH",
"408 1585 OFFCURVE",
"115 1300 OFFCURVE",
"115 754 CURVE SMOOTH",
"115 271 OFFCURVE",
"346 -26 OFFCURVE"
);
}
);
width = 1391;
},
{
anchors = (
{
name = btm;
position = "{782, 0}";
},
{
name = top;
position = "{830, 1562}";
}
);
layerId = "925CB40E-795E-477B-BAE7-1EE7D58841B5";
name = Bold;
paths = (
{
closed = 1;
nodes = (
"800 -35 CURVE SMOOTH",
"977 -35 OFFCURVE",
"1187 2 OFFCURVE",
"1331 51 CURVE",
"1352 202 OFFCURVE",
"1354 346 OFFCURVE",
"1347 459 CURVE",
"1128 478 LINE",
"1056 242 LINE SMOOTH",
"1044 204 OFFCURVE",
"1032 182 OFFCURVE",
"1009 165 CURVE SMOOTH",
"971 138 OFFCURVE",
"907 119 OFFCURVE",
"832 119 CURVE SMOOTH",
"612 119 OFFCURVE",
"512 354 OFFCURVE",
"512 789 CURVE SMOOTH",
"512 1259 OFFCURVE",
"629 1441 OFFCURVE",
"830 1441 CURVE SMOOTH",
"891 1441 OFFCURVE",
"950 1424 OFFCURVE",
"990 1398 CURVE SMOOTH",
"1023 1376 OFFCURVE",
"1036 1348 OFFCURVE",
"1043 1318 CURVE SMOOTH",
"1102 1056 LINE",
"1326 1056 LINE",
"1351 1224 OFFCURVE",
"1357 1375 OFFCURVE",
"1347 1508 CURVE",
"1202 1561 OFFCURVE",
"1019 1592 OFFCURVE",
"858 1592 CURVE SMOOTH",
"392 1592 OFFCURVE",
"85 1327 OFFCURVE",
"85 746 CURVE SMOOTH",
"85 243 OFFCURVE",
"317 -35 OFFCURVE"
);
}
);
width = 1441;
}
);
unicode = 0043;
},
{
glyphname = D;
lastChange = "2015-11-29 15:16:09 +0000";
layers = (
{
anchors = (
{
name = btm;
position = "{838, 0}";
},
{
name = top;
position = "{779, 1562}";
}
);
layerId = "DAAEA780-4710-4479-B303-5C05B40621B2";
name = Light;
paths = (
{
closed = 1;
nodes = (
"395 1562 CURVE SMOOTH",
"96 1562 LINE",
"96 1474 LINE",
"265 1440 LINE SMOOTH",
"293 1434 OFFCURVE",
"311 1412 OFFCURVE",
"311 1384 CURVE SMOOTH",
"311 179 LINE SMOOTH",
"311 146 OFFCURVE",
"292 123 OFFCURVE",
"257 117 CURVE SMOOTH",
"96 88 LINE",
"96 0 LINE",
"398 0 LINE SMOOTH",
"517 0 OFFCURVE",
"643 -13 OFFCURVE",
"732 -15 CURVE SMOOTH",
"1203 -25 OFFCURVE",
"1509 265 OFFCURVE",
"1509 824 CURVE SMOOTH",
"1509 1306 OFFCURVE",
"1281 1578 OFFCURVE",
"761 1578 CURVE SMOOTH",
"634 1578 OFFCURVE",
"523 1562 OFFCURVE"
);
},
{
closed = 1;
nodes = (
"481 101 CURVE",
"481 1465 LINE",
"536 1468 OFFCURVE",
"614 1478 OFFCURVE",
"706 1478 CURVE SMOOTH",
"1121 1478 OFFCURVE",
"1328 1277 OFFCURVE",
"1328 793 CURVE SMOOTH",
"1328 311 OFFCURVE",
"1122 97 OFFCURVE",
"757 85 CURVE SMOOTH",
"673 82 OFFCURVE",
"547 90 OFFCURVE"
);
}
);
width = 1624;
},
{
anchors = (
{
name = btm;
position = "{881, 0}";
},
{
name = top;
position = "{811, 1562}";
}
);
layerId = "925CB40E-795E-477B-BAE7-1EE7D58841B5";
name = Bold;
paths = (
{
closed = 1;
nodes = (
"466 1562 CURVE SMOOTH",
"80 1562 LINE",
"80 1411 LINE",
"242 1379 LINE SMOOTH",
"266 1374 OFFCURVE",
"282 1355 OFFCURVE",
"282 1330 CURVE SMOOTH",
"282 224 LINE SMOOTH",
"282 199 OFFCURVE",
"266 179 OFFCURVE",
"240 174 CURVE SMOOTH",
"80 144 LINE",
"80 0 LINE",
"470 0 LINE SMOOTH",
"549 0 OFFCURVE",
"708 -14 OFFCURVE",
"800 -16 CURVE SMOOTH",
"1295 -26 OFFCURVE",
"1586 280 OFFCURVE",
"1586 833 CURVE SMOOTH",
"1586 1348 OFFCURVE",
"1333 1574 OFFCURVE",
"824 1574 CURVE SMOOTH",
"709 1574 OFFCURVE",
"602 1562 OFFCURVE"
);
},
{
closed = 1;
nodes = (
"662 161 CURVE",
"662 1409 LINE",
"673 1410 OFFCURVE",
"728 1426 OFFCURVE",
"796 1426 CURVE SMOOTH",
"1067 1426 OFFCURVE",
"1171 1184 OFFCURVE",
"1171 776 CURVE SMOOTH",
"1171 295 OFFCURVE",
"1034 142 OFFCURVE",
"805 141 CURVE SMOOTH",
"757 140 OFFCURVE",
"696 146 OFFCURVE"
);
}
);
width = 1671;
}
);
unicode = 0044;
},
{
glyphname = E;
lastChange = "2015-11-29 15:16:09 +0000";
layers = (
{
anchors = (
{
name = btm;
position = "{732, 0}";
},
{
name = top;
position = "{710, 1562}";
}
);
layerId = "DAAEA780-4710-4479-B303-5C05B40621B2";
name = Light;
paths = (
{
closed = 1;
nodes = (
"1170 1192 LINE",
"1182 1325 OFFCURVE",
"1183 1442 OFFCURVE",
"1175 1562 CURVE",
"96 1562 LINE",
"96 1474 LINE",
"257 1442 LINE SMOOTH",
"292 1435 OFFCURVE",
"311 1412 OFFCURVE",
"311 1377 CURVE SMOOTH",
"311 182 LINE SMOOTH",
"311 146 OFFCURVE",
"293 124 OFFCURVE",
"257 117 CURVE SMOOTH",
"96 88 LINE",
"96 0 LINE",
"1226 0 LINE",
"1251 129 OFFCURVE",
"1267 265 OFFCURVE",
"1269 384 CURVE",
"1181 397 LINE",
"1110 189 LINE SMOOTH",
"1100 161 OFFCURVE",
"1085 144 OFFCURVE",
"1053 132 CURVE SMOOTH",
"1004 114 OFFCURVE",
"914 108 OFFCURVE",
"820 108 CURVE SMOOTH",
"481 108 LINE",
"481 749 LINE",
"987 736 LINE",
"987 872 LINE",
"481 855 LINE",
"481 1464 LINE",
"758 1464 LINE SMOOTH",
"852 1464 OFFCURVE",
"932 1458 OFFCURVE",
"981 1440 CURVE SMOOTH",
"1013 1428 OFFCURVE",
"1031 1412 OFFCURVE",
"1038 1383 CURVE SMOOTH",
"1081 1192 LINE"
);
}
);
width = 1348;
},
{
anchors = (
{
name = btm;
position = "{778, 0}";
},
{
name = top;
position = "{735, 1562}";
}
);
layerId = "925CB40E-795E-477B-BAE7-1EE7D58841B5";
name = Bold;
paths = (
{
closed = 1;
nodes = (
"1288 1135 LINE",
"1300 1281 OFFCURVE",
"1300 1421 OFFCURVE",
"1282 1562 CURVE",
"80 1562 LINE",
"80 1411 LINE",
"236 1380 LINE SMOOTH",
"267 1374 OFFCURVE",
"282 1355 OFFCURVE",
"282 1324 CURVE SMOOTH",
"282 229 LINE SMOOTH",
"282 198 OFFCURVE",
"267 180 OFFCURVE",
"236 173 CURVE SMOOTH",
"80 144 LINE",
"80 0 LINE",
"1334 0 LINE",
"1359 163 OFFCURVE",
"1371 309 OFFCURVE",
"1372 470 CURVE",
"1194 498 LINE",
"1108 250 LINE SMOOTH",
"1095 214 OFFCURVE",
"1084 197 OFFCURVE",
"1054 185 CURVE SMOOTH",
"1020 171 OFFCURVE",
"939 163 OFFCURVE",
"873 163 CURVE SMOOTH",
"662 163 LINE",
"662 704 LINE",
"1092 692 LINE",
"1092 898 LINE",
"662 882 LINE",
"662 1407 LINE",
"831 1407 LINE SMOOTH",
"897 1407 OFFCURVE",
"963 1398 OFFCURVE",
"997 1384 CURVE SMOOTH",
"1027 1372 OFFCURVE",
"1046 1355 OFFCURVE",
"1056 1320 CURVE SMOOTH",
"1110 1135 LINE"
);
}
);
width = 1434;
}
);
unicode = 0045;
},
{
glyphname = F;
lastChange = "2015-11-29 15:16:09 +0000";
layers = (
{
anchors = (
{
name = btm;
position = "{678, 0}";
},
{
name = top;
position = "{678, 1562}";
}
);
layerId = "DAAEA780-4710-4479-B303-5C05B40621B2";
name = Light;
paths = (
{
closed = 1;
nodes = (
"987 716 LINE",
"987 852 LINE",
"481 835 LINE",
"481 1464 LINE",
"758 1464 LINE SMOOTH",
"852 1464 OFFCURVE",
"932 1458 OFFCURVE",
"981 1440 CURVE SMOOTH",
"1013 1428 OFFCURVE",
"1031 1412 OFFCURVE",
"1038 1383 CURVE SMOOTH",
"1081 1192 LINE",
"1170 1192 LINE",
"1182 1325 OFFCURVE",
"1183 1442 OFFCURVE",
"1175 1562 CURVE",
"96 1562 LINE",
"96 1474 LINE",
"257 1442 LINE SMOOTH",
"292 1435 OFFCURVE",
"311 1412 OFFCURVE",
"311 1377 CURVE SMOOTH",
"311 182 LINE SMOOTH",
"311 146 OFFCURVE",
"293 124 OFFCURVE",
"257 117 CURVE SMOOTH",
"96 88 LINE",
"96 0 LINE",
"785 0 LINE",
"785 88 LINE",
"532 121 LINE SMOOTH",
"502 125 OFFCURVE",
"481 149 OFFCURVE",
"481 179 CURVE SMOOTH",
"481 729 LINE"
);
}
);
width = 1236;
},
{
anchors = (
{
name = btm;
position = "{724, 0}";
},
{
name = top;
position = "{724, 1562}";
}
);
layerId = "925CB40E-795E-477B-BAE7-1EE7D58841B5";
name = Bold;
paths = (
{
closed = 1;
nodes = (
"1092 667 LINE",
"1092 873 LINE",
"662 857 LINE",
"662 1407 LINE",
"831 1407 LINE SMOOTH",
"897 1407 OFFCURVE",
"963 1398 OFFCURVE",
"997 1384 CURVE SMOOTH",
"1027 1372 OFFCURVE",
"1046 1355 OFFCURVE",
"1056 1320 CURVE SMOOTH",
"1110 1135 LINE",
"1288 1135 LINE",
"1300 1281 OFFCURVE",
"1300 1421 OFFCURVE",
"1282 1562 CURVE",
"80 1562 LINE",
"80 1411 LINE",
"236 1380 LINE SMOOTH",
"267 1374 OFFCURVE",
"282 1355 OFFCURVE",
"282 1324 CURVE SMOOTH",
"282 225 LINE SMOOTH",
"282 199 OFFCURVE",
"265 180 OFFCURVE",
"239 174 CURVE SMOOTH",
"80 144 LINE",
"80 0 LINE",
"964 0 LINE",
"964 144 LINE",
"707 175 LINE SMOOTH",
"681 178 OFFCURVE",
"662 198 OFFCURVE",
"662 224 CURVE SMOOTH",
"662 679 LINE"
);
}
);
width = 1330;
}
);
unicode = 0046;
},
{
glyphname = G;
lastChange = "2015-11-29 15:16:09 +0000";
layers = (
{
anchors = (
{
name = btm;
position = "{788, 0}";
},
{
name = top;
position = "{824, 1562}";
}
);
layerId = "DAAEA780-4710-4479-B303-5C05B40621B2";
name = Light;
paths = (
{
closed = 1;
nodes = (
"1279 218 CURVE",
"1256 314 LINE",
"1164 150 OFFCURVE",
"1007 102 OFFCURVE",
"846 102 CURVE SMOOTH",
"459 102 OFFCURVE",
"305 413 OFFCURVE",
"305 796 CURVE SMOOTH",
"305 1267 OFFCURVE",
"534 1487 OFFCURVE",
"837 1487 CURVE SMOOTH",
"958 1487 OFFCURVE",
"1062 1460 OFFCURVE",
"1122 1425 CURVE SMOOTH",
"1153 1407 OFFCURVE",
"1165 1387 OFFCURVE",
"1174 1348 CURVE SMOOTH",
"1217 1155 LINE",
"1317 1155 LINE",
"1332 1268 OFFCURVE",
"1343 1372 OFFCURVE",
"1338 1485 CURVE",
"1203 1558 OFFCURVE",
"1044 1585 OFFCURVE",
"884 1585 CURVE SMOOTH",
"433 1585 OFFCURVE",
"113 1307 OFFCURVE",
"113 763 CURVE SMOOTH",
"113 303 OFFCURVE",
"346 -23 OFFCURVE",
"794 -23 CURVE SMOOTH",
"1010 -23 OFFCURVE",
"1167 55 OFFCURVE"
);
},
{
closed = 1;
nodes = (
"1349 10 LINE",
"1349 656 LINE",
"1475 677 LINE",
"1475 785 LINE",
"873 785 LINE",
"873 677 LINE",
"1177 656 LINE",
"1177 128 LINE",
"1188 128 LINE",
"1303 -7 LINE"
);
}
);
width = 1552;
},
{
anchors = (
{
name = btm;
position = "{803, 0}";
},
{
name = top;
position = "{891, 1562}";
}
);
layerId = "925CB40E-795E-477B-BAE7-1EE7D58841B5";
name = Bold;
paths = (
{
closed = 1;
nodes = (
"1217 215 CURVE",
"1156 324 LINE",
"1095 229 OFFCURVE",
"994 163 OFFCURVE",
"849 163 CURVE SMOOTH",
"599 163 OFFCURVE",
"527 373 OFFCURVE",
"527 757 CURVE SMOOTH",
"527 1238 OFFCURVE",
"639 1441 OFFCURVE",
"868 1441 CURVE SMOOTH",
"942 1441 OFFCURVE",
"996 1419 OFFCURVE",
"1031 1392 CURVE SMOOTH",
"1056 1372 OFFCURVE",
"1069 1356 OFFCURVE",
"1080 1314 CURVE SMOOTH",
"1135 1085 LINE",
"1365 1085 LINE",
"1386 1226 OFFCURVE",
"1395 1368 OFFCURVE",
"1386 1499 CURVE",
"1250 1553 OFFCURVE",
"1064 1592 OFFCURVE",
"880 1592 CURVE SMOOTH",
"373 1592 OFFCURVE",
"86 1331 OFFCURVE",
"86 765 CURVE SMOOTH",
"86 264 OFFCURVE",
"313 -32 OFFCURVE",
"730 -32 CURVE SMOOTH",
"979 -32 OFFCURVE",
"1140 81 OFFCURVE"
);
},
{
closed = 1;
nodes = (
"1421 24 LINE",
"1421 637 LINE",
"1522 654 LINE",
"1522 809 LINE",
"872 809 LINE",
"872 654 LINE",
"1062 633 LINE",
"1062 139 LINE",
"1142 139 LINE",
"1350 -16 LINE"
);
}
);
width = 1577;
}
);
unicode = 0047;
},
{
glyphname = H;
lastChange = "2015-11-29 15:16:09 +0000";
layers = (
{
anchors = (
{
name = btm;
position = "{866, 0}";
},
{
name = top;
position = "{885, 1562}";
}
);
layerId = "DAAEA780-4710-4479-B303-5C05B40621B2";
name = Light;
paths = (
{
closed = 1;
nodes = (
"1666 1562 LINE",
"1081 1562 LINE",
"1081 1474 LINE",
"1228 1442 LINE SMOOTH",
"1263 1434 OFFCURVE",
"1281 1413 OFFCURVE",
"1281 1377 CURVE SMOOTH",
"1281 856 LINE",
"481 856 LINE",
"481 1377 LINE SMOOTH",
"481 1413 OFFCURVE",
"499 1435 OFFCURVE",
"534 1442 CURVE SMOOTH",
"689 1474 LINE",
"689 1562 LINE",
"96 1562 LINE",
"96 1474 LINE",
"257 1442 LINE SMOOTH",
"292 1435 OFFCURVE",
"311 1412 OFFCURVE",
"311 1376 CURVE SMOOTH",
"311 183 LINE SMOOTH",
"311 147 OFFCURVE",
"293 125 OFFCURVE",
"257 118 CURVE SMOOTH",
"96 88 LINE",
"96 0 LINE",
"690 0 LINE",
"690 88 LINE",
"535 117 LINE SMOOTH",
"499 124 OFFCURVE",
"481 146 OFFCURVE",
"481 182 CURVE SMOOTH",
"481 748 LINE",
"1281 748 LINE",
"1281 183 LINE SMOOTH",
"1281 147 OFFCURVE",
"1262 124 OFFCURVE",
"1227 117 CURVE SMOOTH",
"1080 88 LINE",
"1080 0 LINE",
"1666 0 LINE",
"1666 88 LINE",
"1505 118 LINE SMOOTH",
"1469 125 OFFCURVE",
"1451 147 OFFCURVE",
"1451 183 CURVE SMOOTH",
"1451 1376 LINE SMOOTH",
"1451 1412 OFFCURVE",
"1470 1435 OFFCURVE",
"1505 1442 CURVE SMOOTH",
"1666 1474 LINE"
);
}
);
width = 1762;
},
{
anchors = (
{
name = btm;
position = "{867, 0}";
},
{
name = top;
position = "{941, 1562}";
}
);
layerId = "925CB40E-795E-477B-BAE7-1EE7D58841B5";
name = Bold;
paths = (
{
closed = 1;
nodes = (
"1791 1562 LINE",
"1051 1562 LINE",
"1051 1411 LINE",
"1164 1380 LINE SMOOTH",
"1193 1372 OFFCURVE",
"1209 1353 OFFCURVE",
"1209 1323 CURVE SMOOTH",
"1209 885 LINE",
"662 885 LINE",
"662 1323 LINE SMOOTH",
"662 1356 OFFCURVE",
"677 1373 OFFCURVE",
"707 1380 CURVE SMOOTH",
"832 1411 LINE",
"832 1562 LINE",
"80 1562 LINE",
"80 1411 LINE",
"237 1380 LINE SMOOTH",
"267 1374 OFFCURVE",
"282 1356 OFFCURVE",
"282 1323 CURVE SMOOTH",
"282 229 LINE SMOOTH",
"282 198 OFFCURVE",
"267 180 OFFCURVE",
"236 174 CURVE SMOOTH",
"80 144 LINE",
"80 0 LINE",
"832 0 LINE",
"832 144 LINE",
"708 173 LINE SMOOTH",
"678 180 OFFCURVE",
"662 198 OFFCURVE",
"662 229 CURVE SMOOTH",
"662 702 LINE",
"1209 702 LINE",
"1209 229 LINE SMOOTH",
"1209 198 OFFCURVE",
"1193 181 OFFCURVE",
"1163 173 CURVE SMOOTH",
"1052 144 LINE",
"1052 0 LINE",
"1791 0 LINE",
"1791 144 LINE",
"1635 174 LINE SMOOTH",
"1604 180 OFFCURVE",
"1589 198 OFFCURVE",
"1589 229 CURVE SMOOTH",
"1589 1323 LINE SMOOTH",
"1589 1352 OFFCURVE",
"1604 1374 OFFCURVE",
"1634 1380 CURVE SMOOTH",
"1791 1411 LINE"
);
}
);
width = 1871;
}
);
rightMetricsKey = "=|";
unicode = 0048;
},
{
glyphname = I;
lastChange = "2015-11-29 15:16:09 +0000";
layers = (
{
anchors = (
{
name = btm;
position = "{399, 0}";
},
{
name = top;
position = "{396, 1562}";
}
);
layerId = "DAAEA780-4710-4479-B303-5C05B40621B2";
name = Light;
paths = (
{
closed = 1;
nodes = (
"696 1562 LINE",
"96 1562 LINE",
"96 1474 LINE",
"257 1442 LINE SMOOTH",
"292 1435 OFFCURVE",
"311 1412 OFFCURVE",
"311 1377 CURVE SMOOTH",
"311 182 LINE SMOOTH",
"311 146 OFFCURVE",
"293 124 OFFCURVE",
"257 117 CURVE SMOOTH",
"96 88 LINE",
"96 0 LINE",
"696 0 LINE",
"696 88 LINE",
"535 117 LINE SMOOTH",
"499 124 OFFCURVE",
"481 145 OFFCURVE",
"481 182 CURVE SMOOTH",
"481 1377 LINE SMOOTH",
"481 1413 OFFCURVE",
"500 1435 OFFCURVE",
"535 1442 CURVE SMOOTH",
"696 1474 LINE"
);
}
);
width = 792;
},
{
anchors = (
{
name = btm;
position = "{501, 0}";
},
{
name = top;
position = "{472, 1562}";
}
);
layerId = "925CB40E-795E-477B-BAE7-1EE7D58841B5";
name = Bold;
paths = (
{
closed = 1;
nodes = (
"864 1562 LINE",
"80 1562 LINE",
"80 1411 LINE",
"236 1380 LINE SMOOTH",
"267 1374 OFFCURVE",
"282 1355 OFFCURVE",
"282 1324 CURVE SMOOTH",
"282 229 LINE SMOOTH",
"282 198 OFFCURVE",
"267 180 OFFCURVE",
"236 173 CURVE SMOOTH",
"80 144 LINE",
"80 0 LINE",
"864 0 LINE",
"864 144 LINE",
"709 174 LINE SMOOTH",
"678 180 OFFCURVE",
"662 199 OFFCURVE",
"662 230 CURVE SMOOTH",
"662 1324 LINE SMOOTH",
"662 1355 OFFCURVE",
"678 1374 OFFCURVE",
"709 1380 CURVE SMOOTH",
"864 1411 LINE"
);
}
);
width = 945;
}
);
rightMetricsKey = "=|";
unicode = 0049;
},
{
glyphname = J;
lastChange = "2015-11-29 15:16:09 +0000";
layers = (
{
anchors = (
{
name = btm;
position = "{271, 0}";
},
{
name = top;
position = "{364, 1562}";
}
);
layerId = "DAAEA780-4710-4479-B303-5C05B40621B2";
name = Light;
paths = (
{
closed = 1;
nodes = (
"513 1442 CURVE SMOOTH",
"654 1474 LINE",
"654 1562 LINE",
"74 1562 LINE",
"74 1474 LINE",
"235 1442 LINE SMOOTH",
"270 1435 OFFCURVE",
"289 1412 OFFCURVE",
"289 1377 CURVE SMOOTH",
"289 411 LINE SMOOTH",
"289 37 OFFCURVE",
"230 -88 OFFCURVE",
"-16 -281 CURVE",
"31 -364 LINE",
"421 -166 OFFCURVE",
"459 -15 OFFCURVE",
"459 449 CURVE SMOOTH",
"459 1377 LINE SMOOTH",
"459 1413 OFFCURVE",
"478 1434 OFFCURVE"
);
}
);
width = 738;
},
{
anchors = (
{
name = btm;
position = "{349, 0}";
},
{
name = top;
position = "{438, 1562}";
}
);
layerId = "925CB40E-795E-477B-BAE7-1EE7D58841B5";
name = Bold;
paths = (
{
closed = 1;
nodes = (
"685 1380 CURVE SMOOTH",
"820 1411 LINE",
"820 1562 LINE",
"56 1562 LINE",
"56 1411 LINE",
"212 1380 LINE SMOOTH",
"242 1374 OFFCURVE",
"258 1355 OFFCURVE",
"258 1324 CURVE SMOOTH",
"258 304 LINE SMOOTH",
"258 -25 OFFCURVE",
"217 -132 OFFCURVE",
"-50 -271 CURVE",
"14 -423 LINE",
"522 -292 OFFCURVE",
"638 -114 OFFCURVE",
"638 351 CURVE SMOOTH",
"638 1324 LINE SMOOTH",
"638 1355 OFFCURVE",
"654 1373 OFFCURVE"
);
}
);
width = 887;
}
);
unicode = 004A;
},
{
glyphname = K;
lastChange = "2015-11-29 15:16:09 +0000";
layers = (
{
anchors = (
{
name = btm;
position = "{851, 0}";
},
{
name = top;
position = "{793, 1562}";
}
);
layerId = "DAAEA780-4710-4479-B303-5C05B40621B2";
name = Light;
paths = (
{
closed = 1;
nodes = (
"711 0 LINE",
"711 88 LINE",
"538 119 LINE SMOOTH",
"501 126 OFFCURVE",
"481 144 OFFCURVE",
"481 181 CURVE SMOOTH",
"481 1377 LINE SMOOTH",
"481 1413 OFFCURVE",
"500 1435 OFFCURVE",
"535 1442 CURVE SMOOTH",
"696 1474 LINE",
"696 1562 LINE",
"96 1562 LINE",
"96 1474 LINE",
"255 1442 LINE SMOOTH",
"290 1435 OFFCURVE",
"311 1415 OFFCURVE",
"311 1378 CURVE SMOOTH",
"311 181 LINE SMOOTH",
"311 144 OFFCURVE",
"290 125 OFFCURVE",
"254 118 CURVE SMOOTH",
"96 88 LINE",
"96 0 LINE"
);
},
{
closed = 1;
nodes = (
"766 853 LINE",
"1271 1404 LINE SMOOTH",
"1292 1426 OFFCURVE",
"1312 1435 OFFCURVE",
"1341 1442 CURVE SMOOTH",
"1477 1474 LINE",
"1477 1562 LINE",
"958 1562 LINE",
"958 1474 LINE",
"1141 1436 LINE",
"431 636 LINE",
"430 486 LINE"
);
},
{
closed = 1;
nodes = (
"1524 0 LINE",
"1524 88 LINE",
"1408 115 LINE SMOOTH",
"1360 126 OFFCURVE",
"1341 139 OFFCURVE",
"1304 197 CURVE SMOOTH",
"1042 610 LINE SMOOTH",
"937 777 OFFCURVE",
"872 876 OFFCURVE",
"796 953 CURVE",
"686 836 LINE",
"744 757 OFFCURVE",
"802 666 OFFCURVE",
"871 549 CURVE SMOOTH",
"1058 229 LINE SMOOTH",
"1143 85 OFFCURVE",
"1204 0 OFFCURVE",
"1246 0 CURVE SMOOTH"
);
}
);
width = 1519;
},
{
anchors = (
{
name = btm;
position = "{910, 0}";
},
{
name = top;
position = "{835, 1562}";
}
);
layerId = "925CB40E-795E-477B-BAE7-1EE7D58841B5";
name = Bold;
paths = (
{
closed = 1;
nodes = (
"863 0 LINE",
"863 143 LINE",
"708 170 LINE SMOOTH",
"677 176 OFFCURVE",
"661 193 OFFCURVE",
"661 225 CURVE SMOOTH",
"661 1324 LINE SMOOTH",
"661 1355 OFFCURVE",
"676 1374 OFFCURVE",
"707 1380 CURVE SMOOTH",
"863 1411 LINE",
"863 1562 LINE",
"80 1562 LINE",
"80 1411 LINE",
"236 1380 LINE SMOOTH",
"266 1374 OFFCURVE",
"282 1355 OFFCURVE",
"282 1324 CURVE SMOOTH",
"282 228 LINE SMOOTH",
"282 197 OFFCURVE",
"265 180 OFFCURVE",
"235 174 CURVE SMOOTH",
"80 144 LINE",
"80 0 LINE"
);
},
{
closed = 1;
nodes = (
"913 803 LINE",
"1394 1348 LINE SMOOTH",
"1411 1367 OFFCURVE",
"1429 1375 OFFCURVE",
"1454 1380 CURVE SMOOTH",
"1613 1412 LINE",
"1613 1562 LINE",
"998 1562 LINE",
"999 1411 LINE",
"1175 1380 LINE",
"610 691 LINE",
"610 449 LINE"
);
},
{
closed = 1;
nodes = (
"1656 0 LINE",
"1656 143 LINE",
"1561 168 LINE SMOOTH",
"1515 180 OFFCURVE",
"1499 209 OFFCURVE",
"1484 236 CURVE SMOOTH",
"1263 649 LINE SMOOTH",
"1173 819 OFFCURVE",
"1119 913 OFFCURVE",
"1007 1030 CURVE",
"774 759 LINE",
"826 692 OFFCURVE",
"864 622 OFFCURVE",
"931 476 CURVE SMOOTH",
"1060 197 LINE SMOOTH",
"1115 79 OFFCURVE",
"1160 0 OFFCURVE",
"1217 0 CURVE SMOOTH"
);
}
);
width = 1657;
}
);
unicode = 004B;
},
{
glyphname = L;
lastChange = "2015-11-29 15:16:09 +0000";
layers = (
{
anchors = (
{
name = btm;
position = "{722, 0}";
},
{
name = top;
position = "{464, 1562}";
},
{
name = topright;
position = "{706, 916}";
}
);
layerId = "DAAEA780-4710-4479-B303-5C05B40621B2";
name = Light;
paths = (
{
closed = 1;
nodes = (
"1093 189 LINE SMOOTH",
"1084 160 OFFCURVE",
"1067 143 OFFCURVE",
"1036 132 CURVE SMOOTH",
"985 114 OFFCURVE",
"900 108 OFFCURVE",
"803 108 CURVE SMOOTH",
"480 108 LINE",
"480 1377 LINE SMOOTH",
"480 1414 OFFCURVE",
"499 1436 OFFCURVE",
"535 1442 CURVE SMOOTH",
"744 1474 LINE",
"744 1562 LINE",
"96 1562 LINE",
"96 1474 LINE",
"257 1443 LINE SMOOTH",
"293 1436 OFFCURVE",
"311 1414 OFFCURVE",
"311 1378 CURVE SMOOTH",
"311 180 LINE SMOOTH",
"311 144 OFFCURVE",
"293 122 OFFCURVE",
"257 116 CURVE SMOOTH",
"96 88 LINE",
"96 0 LINE",
"1221 0 LINE",
"1248 131 OFFCURVE",
"1262 298 OFFCURVE",
"1265 431 CURVE",
"1175 444 LINE"
);
}
);
width = 1310;
},
{
anchors = (
{
name = btm;
position = "{769, 0}";
},
{
name = top;
position = "{605, 1562}";
},
{
name = topright;
position = "{877, 916}";
}
);
layerId = "925CB40E-795E-477B-BAE7-1EE7D58841B5";
name = Bold;
paths = (
{
closed = 1;
nodes = (
"1074 255 LINE SMOOTH",
"1064 220 OFFCURVE",
"1045 202 OFFCURVE",
"1016 190 CURVE SMOOTH",
"981 176 OFFCURVE",
"918 165 OFFCURVE",
"835 165 CURVE SMOOTH",
"662 165 LINE",
"662 1323 LINE SMOOTH",
"662 1354 OFFCURVE",
"679 1373 OFFCURVE",
"709 1378 CURVE SMOOTH",
"914 1411 LINE",
"914 1562 LINE",
"80 1562 LINE",
"80 1411 LINE",
"236 1381 LINE SMOOTH",
"266 1374 OFFCURVE",
"282 1356 OFFCURVE",
"282 1325 CURVE SMOOTH",
"282 229 LINE SMOOTH",
"282 198 OFFCURVE",
"266 179 OFFCURVE",
"235 173 CURVE SMOOTH",
"80 144 LINE",
"80 0 LINE",
"1322 0 LINE",
"1362 192 OFFCURVE",
"1362 383 OFFCURVE",
"1363 552 CURVE",
"1173 578 LINE"
);
}
);
width = 1400;
}
);
unicode = 004C;
},
{
glyphname = M;
lastChange = "2015-11-29 15:16:09 +0000";
layers = (
{
anchors = (
{
name = btm;
position = "{1049, 0}";
},
{
name = top;
position = "{1058, 1562}";
}
);
layerId = "DAAEA780-4710-4479-B303-5C05B40621B2";
name = Light;
paths = (
{
closed = 1;
nodes = (
"1675 1372 LINE SMOOTH",
"1669 1411 OFFCURVE",
"1685 1435 OFFCURVE",
"1723 1442 CURVE SMOOTH",
"1907 1474 LINE",
"1907 1562 LINE",
"1423 1562 LINE",
"1024 226 LINE",
"1105 226 LINE",
"649 1562 LINE",
"167 1562 LINE",
"167 1474 LINE",
"351 1442 LINE SMOOTH",
"388 1436 OFFCURVE",
"406 1412 OFFCURVE",
"401 1374 CURVE SMOOTH",
"256 178 LINE SMOOTH",
"252 144 OFFCURVE",
"233 122 OFFCURVE",
"199 116 CURVE SMOOTH",
"50 88 LINE",
"50 0 LINE",
"585 0 LINE",
"585 88 LINE",
"383 122 LINE",
"545 1505 LINE",
"486 1505 LINE",
"991 69 LINE",
"1103 69 LINE",
"1537 1504 LINE",
"1476 1505 LINE",
"1704 122 LINE",
"1515 88 LINE",
"1515 0 LINE",
"2075 0 LINE",
"2075 88 LINE",
"1926 116 LINE SMOOTH",
"1893 122 OFFCURVE",
"1873 143 OFFCURVE",
"1868 176 CURVE SMOOTH"
);
}
);
width = 2103;
},
{
anchors = (
{
name = btm;
position = "{991, 0}";
},
{
name = top;
position = "{1131, 1562}";
}
);
layerId = "925CB40E-795E-477B-BAE7-1EE7D58841B5";
name = Bold;
paths = (
{
closed = 1;
nodes = (
"1895 1321 LINE SMOOTH",
"1890 1353 OFFCURVE",
"1905 1375 OFFCURVE",
"1937 1380 CURVE SMOOTH",
"2119 1411 LINE",
"2119 1562 LINE",
"1389 1562 LINE",
"1101 325 LINE",
"1198 325 LINE",
"877 1562 LINE",
"151 1562 LINE",
"151 1411 LINE",
"322 1380 LINE SMOOTH",
"353 1375 OFFCURVE",
"369 1353 OFFCURVE",
"365 1321 CURVE SMOOTH",
"234 231 LINE SMOOTH",
"230 200 OFFCURVE",
"215 183 OFFCURVE",
"186 177 CURVE SMOOTH",
"31 144 LINE",
"31 0 LINE",
"655 0 LINE",
"655 144 LINE",
"437 174 LINE",
"582 1477 LINE",
"517 1476 LINE",
"922 55 LINE",
"1228 55 LINE",
"1561 1474 LINE",
"1505 1475 LINE",
"1682 174 LINE",
"1502 144 LINE",
"1502 0 LINE",
"2256 0 LINE",
"2256 144 LINE",
"2107 177 LINE SMOOTH",
"2078 183 OFFCURVE",
"2062 201 OFFCURVE",
"2057 230 CURVE SMOOTH"
);
}
);
width = 2278;
}
);
unicode = 004D;
},
{
glyphname = N;
lastChange = "2015-11-29 15:16:09 +0000";
layers = (
{
anchors = (
{
name = btm;
position = "{908, 0}";
},
{
name = top;
position = "{848, 1562}";
}
);
layerId = "DAAEA780-4710-4479-B303-5C05B40621B2";
name = Light;
paths = (
{
closed = 1;
nodes = (
"1502 1442 CURVE SMOOTH",
"1643 1474 LINE",
"1643 1562 LINE",
"1100 1562 LINE",
"1100 1474 LINE",
"1271 1442 LINE SMOOTH",
"1306 1435 OFFCURVE",
"1325 1412 OFFCURVE",
"1325 1377 CURVE SMOOTH",
"1325 192 LINE",
"1383 206 LINE",
"478 1562 LINE",
"96 1562 LINE",
"96 1474 LINE",
"257 1442 LINE SMOOTH",
"292 1435 OFFCURVE",
"311 1412 OFFCURVE",
"311 1377 CURVE SMOOTH",
"311 182 LINE SMOOTH",
"311 146 OFFCURVE",
"293 124 OFFCURVE",
"257 117 CURVE SMOOTH",
"96 88 LINE",
"96 0 LINE",
"669 0 LINE",
"669 88 LINE",
"488 117 LINE SMOOTH",
"452 123 OFFCURVE",
"434 145 OFFCURVE",
"434 182 CURVE SMOOTH",
"434 1412 LINE",
"376 1403 LINE",
"1315 0 LINE",
"1448 0 LINE",
"1448 1377 LINE SMOOTH",
"1448 1413 OFFCURVE",
"1467 1434 OFFCURVE"
);
}
);
width = 1730;
},
{
anchors = (
{
name = btm;
position = "{952, 0}";
},
{
name = top;
position = "{908, 1562}";
}
);
layerId = "925CB40E-795E-477B-BAE7-1EE7D58841B5";
name = Bold;
paths = (
{
closed = 1;
nodes = (
"1583 1380 CURVE SMOOTH",
"1728 1411 LINE",
"1728 1562 LINE",
"1115 1562 LINE",
"1115 1411 LINE",
"1281 1380 LINE SMOOTH",
"1311 1375 OFFCURVE",
"1327 1355 OFFCURVE",
"1327 1324 CURVE SMOOTH",
"1327 368 LINE",
"1402 375 LINE",
"673 1562 LINE",
"80 1562 LINE",
"80 1411 LINE",
"236 1380 LINE SMOOTH",
"267 1374 OFFCURVE",
"282 1355 OFFCURVE",
"282 1324 CURVE SMOOTH",
"282 228 LINE SMOOTH",
"282 197 OFFCURVE",
"267 178 OFFCURVE",
"236 173 CURVE SMOOTH",
"80 144 LINE",
"80 0 LINE",
"720 0 LINE",
"720 144 LINE",
"539 173 LINE SMOOTH",
"508 179 OFFCURVE",
"492 198 OFFCURVE",
"492 229 CURVE SMOOTH",
"492 1281 LINE",
"417 1275 LINE",
"1194 0 LINE",
"1537 0 LINE",
"1537 1324 LINE SMOOTH",
"1537 1355 OFFCURVE",
"1553 1374 OFFCURVE"
);
}
);
width = 1790;
}
);
unicode = 004E;
},
{
glyphname = O;
lastChange = "2015-11-29 15:16:09 +0000";
layers = (
{
anchors = (
{
name = btm;
position = "{772, 0}";
},
{
name = top;
position = "{782, 1562}";
}
);
layerId = "DAAEA780-4710-4479-B303-5C05B40621B2";
name = Light;
paths = (
{
closed = 1;
nodes = (
"755 -23 CURVE SMOOTH",
"1167 -23 OFFCURVE",
"1448 277 OFFCURVE",
"1448 807 CURVE SMOOTH",
"1448 1288 OFFCURVE",
"1228 1585 OFFCURVE",
"809 1585 CURVE SMOOTH",
"401 1585 OFFCURVE",
"115 1293 OFFCURVE",
"115 757 CURVE SMOOTH",
"115 276 OFFCURVE",
"337 -23 OFFCURVE"
);
},
{
closed = 1;
nodes = (
"783 1479 CURVE SMOOTH",
"1101 1479 OFFCURVE",
"1256 1229 OFFCURVE",
"1256 784 CURVE SMOOTH",
"1256 319 OFFCURVE",
"1078 84 OFFCURVE",
"778 84 CURVE SMOOTH",
"461 84 OFFCURVE",
"305 336 OFFCURVE",
"305 782 CURVE SMOOTH",
"305 1246 OFFCURVE",
"482 1479 OFFCURVE"
);
}
);
width = 1563;
},
{
anchors = (
{
name = btm;
position = "{785, 0}";
},
{
name = top;
position = "{791, 1562}";
}
);
layerId = "925CB40E-795E-477B-BAE7-1EE7D58841B5";
name = Bold;
paths = (
{
closed = 1;
nodes = (
"764 -34 CURVE SMOOTH",
"1243 -34 OFFCURVE",
"1496 277 OFFCURVE",
"1496 808 CURVE SMOOTH",
"1496 1293 OFFCURVE",
"1287 1594 OFFCURVE",
"816 1594 CURVE SMOOTH",
"338 1594 OFFCURVE",
"85 1283 OFFCURVE",
"85 751 CURVE SMOOTH",
"85 267 OFFCURVE",
"293 -34 OFFCURVE"
);
},
{
closed = 1;
nodes = (
"795 1438 CURVE SMOOTH",
"985 1438 OFFCURVE",
"1078 1257 OFFCURVE",
"1078 794 CURVE SMOOTH",
"1078 316 OFFCURVE",
"978 122 OFFCURVE",
"784 122 CURVE SMOOTH",
"594 122 OFFCURVE",
"501 307 OFFCURVE",
"501 770 CURVE SMOOTH",
"501 1247 OFFCURVE",
"600 1438 OFFCURVE"
);
}
);
width = 1581;
}
);
unicode = 004F;
},
{
glyphname = P;
lastChange = "2015-11-29 15:16:09 +0000";
layers = (
{
anchors = (
{
name = btm;
position = "{702, 0}";
},
{
name = top;
position = "{702, 1562}";
}
);
layerId = "DAAEA780-4710-4479-B303-5C05B40621B2";
name = Light;
paths = (
{
closed = 1;
nodes = (
"481 1465 LINE",
"537 1465 OFFCURVE",
"605 1478 OFFCURVE",
"703 1478 CURVE SMOOTH",
"974 1478 OFFCURVE",
"1100 1389 OFFCURVE",
"1100 1141 CURVE SMOOTH",
"1100 813 OFFCURVE",
"908 715 OFFCURVE",
"701 715 CURVE SMOOTH",
"593 715 OFFCURVE",
"530 720 OFFCURVE",
"428 725 CURVE",
"430 623 LINE",
"521 619 OFFCURVE",
"611 613 OFFCURVE",
"698 613 CURVE SMOOTH",
"1024 613 OFFCURVE",
"1283 806 OFFCURVE",
"1283 1141 CURVE SMOOTH",
"1283 1416 OFFCURVE",
"1156 1577 OFFCURVE",
"756 1577 CURVE SMOOTH",
"577 1577 OFFCURVE",
"532 1562 OFFCURVE",
"396 1562 CURVE SMOOTH",
"96 1562 LINE",
"96 1474 LINE",
"265 1440 LINE SMOOTH",
"293 1434 OFFCURVE",
"311 1408 OFFCURVE",
"311 1380 CURVE SMOOTH",
"311 178 LINE SMOOTH",
"311 146 OFFCURVE",
"292 123 OFFCURVE",
"258 117 CURVE SMOOTH",
"96 88 LINE",
"96 0 LINE",
"775 0 LINE",
"775 88 LINE",
"532 121 LINE SMOOTH",
"502 125 OFFCURVE",
"481 149 OFFCURVE",
"481 179 CURVE SMOOTH"
);
}
);
width = 1352;
},
{
anchors = (
{
name = btm;
position = "{749, 0}";
},
{
name = top;
position = "{749, 1562}";
}
);
layerId = "925CB40E-795E-477B-BAE7-1EE7D58841B5";
name = Bold;
paths = (
{
closed = 1;
nodes = (
"662 1419 LINE",
"689 1423 OFFCURVE",
"709 1431 OFFCURVE",
"780 1431 CURVE SMOOTH",
"941 1431 OFFCURVE",
"1026 1332 OFFCURVE",
"1026 1103 CURVE SMOOTH",
"1026 793 OFFCURVE",
"922 698 OFFCURVE",
"783 698 CURVE SMOOTH",
"711 698 OFFCURVE",
"678 705 OFFCURVE",
"613 711 CURVE",
"616 561 LINE",
"671 558 OFFCURVE",
"731 554 OFFCURVE",
"793 554 CURVE SMOOTH",
"1199 554 OFFCURVE",
"1411 762 OFFCURVE",
"1411 1113 CURVE SMOOTH",
"1411 1407 OFFCURVE",
"1279 1571 OFFCURVE",
"821 1573 CURVE SMOOTH",
"669 1574 OFFCURVE",
"567 1562 OFFCURVE",
"479 1562 CURVE SMOOTH",
"80 1562 LINE",
"80 1411 LINE",
"242 1378 LINE SMOOTH",
"266 1373 OFFCURVE",
"282 1353 OFFCURVE",
"282 1330 CURVE SMOOTH",
"282 224 LINE SMOOTH",
"282 199 OFFCURVE",
"265 179 OFFCURVE",
"239 174 CURVE SMOOTH",
"80 144 LINE",
"80 0 LINE",
"954 0 LINE",
"954 144 LINE",
"707 175 LINE SMOOTH",
"681 178 OFFCURVE",
"662 198 OFFCURVE",
"662 224 CURVE SMOOTH"
);
}
);
width = 1449;
}
);
unicode = 0050;
},
{
glyphname = Q;
lastChange = "2015-11-29 15:16:09 +0000";
layers = (
{
anchors = (
{
name = btm;
position = "{767, 0}";
},
{
name = top;
position = "{781, 1562}";
}
);
layerId = "DAAEA780-4710-4479-B303-5C05B40621B2";
name = Light;
paths = (
{
closed = 1;
nodes = (
"1369 -413 CURVE SMOOTH",
"1468 -413 OFFCURVE",
"1557 -376 OFFCURVE",
"1594 -353 CURVE",
"1574 -266 LINE",
"1552 -269 OFFCURVE",
"1519 -270 OFFCURVE",
"1490 -270 CURVE SMOOTH",
"1348 -270 OFFCURVE",
"1256 -194 OFFCURVE",
"1158 -115 CURVE SMOOTH",
"1047 -25 OFFCURVE",
"924 57 OFFCURVE",
"714 57 CURVE",
"649 -3 LINE",
"943 -3 OFFCURVE",
"1045 -413 OFFCURVE"
);
},
{
closed = 1;
nodes = (
"755 -23 CURVE SMOOTH",
"1167 -23 OFFCURVE",
"1448 277 OFFCURVE",
"1448 807 CURVE SMOOTH",
"1448 1288 OFFCURVE",
"1228 1585 OFFCURVE",
"809 1585 CURVE SMOOTH",
"401 1585 OFFCURVE",
"115 1293 OFFCURVE",
"115 757 CURVE SMOOTH",
"115 276 OFFCURVE",
"337 -23 OFFCURVE"
);
},
{
closed = 1;
nodes = (
"783 1479 CURVE SMOOTH",
"1103 1479 OFFCURVE",
"1259 1235 OFFCURVE",
"1259 784 CURVE SMOOTH",
"1259 312 OFFCURVE",
"1080 84 OFFCURVE",
"778 84 CURVE SMOOTH",
"459 84 OFFCURVE",
"302 330 OFFCURVE",
"302 782 CURVE SMOOTH",
"302 1253 OFFCURVE",
"480 1479 OFFCURVE"
);
}
);
width = 1563;
},
{
anchors = (
{
name = btm;
position = "{791, 0}";
},
{
name = top;
position = "{799, 1562}";
}
);
layerId = "925CB40E-795E-477B-BAE7-1EE7D58841B5";
name = Bold;
paths = (
{
closed = 1;
nodes = (
"1352 -423 CURVE SMOOTH",
"1490 -423 OFFCURVE",
"1620 -346 OFFCURVE",
"1676 -280 CURVE",
"1641 -161 LINE",
"1607 -167 OFFCURVE",
"1569 -173 OFFCURVE",
"1522 -173 CURVE SMOOTH",
"1423 -173 OFFCURVE",
"1334 -144 OFFCURVE",
"1226 -85 CURVE SMOOTH",
"1081 -5 OFFCURVE",
"983 39 OFFCURVE",
"722 39 CURVE",
"537 24 LINE",
"948 -20 OFFCURVE",
"973 -423 OFFCURVE"
);
},
{
closed = 1;
nodes = (
"764 -34 CURVE SMOOTH",
"1226 -34 OFFCURVE",
"1496 286 OFFCURVE",
"1496 808 CURVE SMOOTH",
"1496 1285 OFFCURVE",
"1287 1594 OFFCURVE",
"816 1594 CURVE SMOOTH",
"338 1594 OFFCURVE",
"85 1274 OFFCURVE",
"85 751 CURVE SMOOTH",
"85 275 OFFCURVE",
"293 -34 OFFCURVE"
);
},
{
closed = 1;
nodes = (
"795 1438 CURVE SMOOTH",
"986 1438 OFFCURVE",
"1079 1258 OFFCURVE",
"1079 794 CURVE SMOOTH",
"1079 315 OFFCURVE",
"978 122 OFFCURVE",
"785 122 CURVE SMOOTH",
"594 122 OFFCURVE",
"501 306 OFFCURVE",
"501 770 CURVE SMOOTH",
"501 1247 OFFCURVE",
"600 1438 OFFCURVE"
);
}
);
width = 1580;
}
);
unicode = 0051;
},
{
glyphname = R;
lastChange = "2015-11-29 15:16:09 +0000";
layers = (
{
anchors = (
{
name = btm;
position = "{823, 0}";
},
{
name = top;
position = "{710, 1562}";
}
);
layerId = "DAAEA780-4710-4479-B303-5C05B40621B2";
name = Light;
paths = (
{
closed = 1;
nodes = (
"711 0 LINE",
"711 88 LINE",
"538 119 LINE SMOOTH",
"501 126 OFFCURVE",
"481 144 OFFCURVE",
"481 181 CURVE SMOOTH",
"481 1463 LINE",
"517 1466 OFFCURVE",
"607 1477 OFFCURVE",
"697 1477 CURVE SMOOTH",
"1002 1477 OFFCURVE",
"1083 1350 OFFCURVE",
"1083 1152 CURVE SMOOTH",
"1083 908 OFFCURVE",
"960 797 OFFCURVE",
"777 796 CURVE SMOOTH",
"724 796 OFFCURVE",
"534 794 OFFCURVE",
"443 800 CURVE",
"443 697 LINE",
"495 697 OFFCURVE",
"649 695 OFFCURVE",
"811 695 CURVE",
"901 714 LINE",
"1024 736 OFFCURVE",
"1267 823 OFFCURVE",
"1267 1165 CURVE SMOOTH",
"1267 1438 OFFCURVE",
"1122 1578 OFFCURVE",
"736 1578 CURVE SMOOTH",
"605 1578 OFFCURVE",
"515 1562 OFFCURVE",
"399 1562 CURVE SMOOTH",
"96 1562 LINE",
"96 1474 LINE",
"255 1442 LINE SMOOTH",
"290 1435 OFFCURVE",
"311 1415 OFFCURVE",
"311 1378 CURVE SMOOTH",
"311 181 LINE SMOOTH",
"311 144 OFFCURVE",
"290 125 OFFCURVE",
"254 118 CURVE SMOOTH",
"96 88 LINE",
"96 0 LINE"
);
},
{
closed = 1;
nodes = (
"1471 0 LINE",
"1471 88 LINE",
"1355 113 LINE SMOOTH",
"1307 123 OFFCURVE",
"1287 136 OFFCURVE",
"1260 187 CURVE SMOOTH",
"1096 491 LINE SMOOTH",
"1024 624 OFFCURVE",
"969 703 OFFCURVE",
"875 756 CURVE",
"720 730 LINE",
"782 704 OFFCURVE",
"849 587 OFFCURVE",
"917 452 CURVE SMOOTH",
"1016 255 LINE SMOOTH",
"1094 100 OFFCURVE",
"1141 0 OFFCURVE",
"1203 0 CURVE SMOOTH"
);
}
);
width = 1485;
},
{
anchors = (
{
name = btm;
position = "{904, 0}";
},
{
name = top;
position = "{787, 1562}";
}
);
layerId = "925CB40E-795E-477B-BAE7-1EE7D58841B5";
name = Bold;
paths = (
{
closed = 1;
nodes = (
"863 0 LINE",
"863 143 LINE",
"708 170 LINE SMOOTH",
"677 176 OFFCURVE",
"661 193 OFFCURVE",
"661 225 CURVE SMOOTH",
"661 1423 LINE",
"695 1428 OFFCURVE",
"739 1433 OFFCURVE",
"783 1433 CURVE SMOOTH",
"960 1433 OFFCURVE",
"1044 1354 OFFCURVE",
"1044 1138 CURVE SMOOTH",
"1044 902 OFFCURVE",
"944 802 OFFCURVE",
"813 801 CURVE SMOOTH",
"772 801 OFFCURVE",
"673 798 OFFCURVE",
"613 815 CURVE",
"613 662 LINE",
"722 662 OFFCURVE",
"832 662 OFFCURVE",
"930 662 CURVE",
"1027 703 LINE",
"1205 745 OFFCURVE",
"1444 807 OFFCURVE",
"1444 1155 CURVE SMOOTH",
"1444 1458 OFFCURVE",
"1265 1574 OFFCURVE",
"816 1574 CURVE SMOOTH",
"674 1574 OFFCURVE",
"578 1562 OFFCURVE",
"461 1562 CURVE SMOOTH",
"80 1562 LINE",
"80 1411 LINE",
"236 1380 LINE SMOOTH",
"265 1374 OFFCURVE",
"282 1356 OFFCURVE",
"282 1325 CURVE SMOOTH",
"282 228 LINE SMOOTH",
"282 197 OFFCURVE",
"265 180 OFFCURVE",
"235 174 CURVE SMOOTH",
"80 144 LINE",
"80 0 LINE"
);
},
{
closed = 1;
nodes = (
"1620 0 LINE",
"1620 143 LINE",
"1526 168 LINE SMOOTH",
"1491 177 OFFCURVE",
"1475 189 OFFCURVE",
"1454 235 CURVE SMOOTH",
"1345 477 LINE SMOOTH",
"1268 653 OFFCURVE",
"1166 721 OFFCURVE",
"985 765 CURVE",
"766 711 LINE",
"834 684 OFFCURVE",
"886 603 OFFCURVE",
"941 464 CURVE SMOOTH",
"1042 202 LINE SMOOTH",
"1090 81 OFFCURVE",
"1132 0 OFFCURVE",
"1191 0 CURVE SMOOTH"
);
}
);
width = 1638;
}
);
unicode = 0052;
},
{
glyphname = S;
lastChange = "2015-11-29 15:16:09 +0000";
layers = (
{
anchors = (
{
name = btm;
position = "{585, 0}";
},
{
name = top;
position = "{620, 1562}";
}
);
layerId = "DAAEA780-4710-4479-B303-5C05B40621B2";
name = Light;
paths = (
{
closed = 1;
nodes = (
"1125 407 CURVE SMOOTH",
"1125 662 OFFCURVE",
"906 771 OFFCURVE",
"694 870 CURVE SMOOTH",
"450 984 OFFCURVE",
"314 1049 OFFCURVE",
"314 1239 CURVE SMOOTH",
"314 1401 OFFCURVE",
"413 1491 OFFCURVE",
"605 1491 CURVE SMOOTH",
"711 1491 OFFCURVE",
"803 1454 OFFCURVE",
"848 1415 CURVE SMOOTH",
"876 1391 OFFCURVE",
"886 1366 OFFCURVE",
"890 1345 CURVE SMOOTH",
"929 1148 LINE",
"1030 1148 LINE",
"1047 1260 OFFCURVE",
"1052 1373 OFFCURVE",
"1043 1505 CURVE",
"942 1556 OFFCURVE",
"789 1588 OFFCURVE",
"647 1588 CURVE SMOOTH",
"324 1588 OFFCURVE",
"153 1423 OFFCURVE",
"153 1193 CURVE SMOOTH",
"153 918 OFFCURVE",
"397 807 OFFCURVE",
"588 722 CURVE SMOOTH",
"808 624 OFFCURVE",
"948 560 OFFCURVE",
"948 358 CURVE SMOOTH",
"948 177 OFFCURVE",
"835 67 OFFCURVE",
"619 67 CURVE SMOOTH",
"483 67 OFFCURVE",
"371 122 OFFCURVE",
"315 182 CURVE SMOOTH",
"292 207 OFFCURVE",
"284 231 OFFCURVE",
"281 250 CURVE SMOOTH",
"244 476 LINE",
"139 476 LINE",
"123 344 OFFCURVE",
"118 222 OFFCURVE",
"122 100 CURVE",
"217 37 OFFCURVE",
"387 -33 OFFCURVE",
"600 -33 CURVE SMOOTH",
"958 -33 OFFCURVE",
"1125 185 OFFCURVE"
);
}
);
width = 1227;
},
{
anchors = (
{
name = btm;
position = "{611, 0}";
},
{
name = top;
position = "{672, 1562}";
}
);
layerId = "925CB40E-795E-477B-BAE7-1EE7D58841B5";
name = Bold;
paths = (
{
closed = 1;
nodes = (
"1228 442 CURVE SMOOTH",
"1228 690 OFFCURVE",
"1034 825 OFFCURVE",
"804 943 CURVE SMOOTH",
"597 1048 OFFCURVE",
"472 1112 OFFCURVE",
"472 1265 CURVE SMOOTH",
"472 1375 OFFCURVE",
"543 1447 OFFCURVE",
"663 1447 CURVE SMOOTH",
"721 1447 OFFCURVE",
"784 1431 OFFCURVE",
"820 1404 CURVE SMOOTH",
"844 1386 OFFCURVE",
"855 1363 OFFCURVE",
"863 1324 CURVE SMOOTH",
"905 1097 LINE",
"1114 1097 LINE",
"1135 1226 OFFCURVE",
"1146 1377 OFFCURVE",
"1135 1509 CURVE",
"1016 1558 OFFCURVE",
"841 1592 OFFCURVE",
"682 1592 CURVE SMOOTH",
"302 1592 OFFCURVE",
"114 1395 OFFCURVE",
"114 1132 CURVE SMOOTH",
"114 868 OFFCURVE",
"306 768 OFFCURVE",
"515 658 CURVE SMOOTH",
"698 563 OFFCURVE",
"850 480 OFFCURVE",
"850 311 CURVE SMOOTH",
"850 192 OFFCURVE",
"772 112 OFFCURVE",
"641 112 CURVE SMOOTH",
"548 112 OFFCURVE",
"468 153 OFFCURVE",
"427 189 CURVE SMOOTH",
"401 211 OFFCURVE",
"390 235 OFFCURVE",
"385 266 CURVE SMOOTH",
"346 525 LINE",
"131 525 LINE",
"110 408 OFFCURVE",
"96 232 OFFCURVE",
"103 85 CURVE",
"235 23 OFFCURVE",
"423 -33 OFFCURVE",
"631 -33 CURVE SMOOTH",
"1067 -33 OFFCURVE",
"1228 216 OFFCURVE"
);
}
);
width = 1304;
}
);
unicode = 0053;
},
{
glyphname = T;
lastChange = "2015-11-29 15:16:09 +0000";
layers = (
{
anchors = (
{
name = btm;
position = "{721, 0}";
},
{
name = top;
position = "{724, 1562}";
}
);
layerId = "DAAEA780-4710-4479-B303-5C05B40621B2";
name = Light;
paths = (
{
closed = 1;
nodes = (
"1096 0 LINE",
"1096 88 LINE",
"862 123 LINE SMOOTH",
"825 129 OFFCURVE",
"806 149 OFFCURVE",
"806 186 CURVE SMOOTH",
"806 1464 LINE",
"940 1464 LINE SMOOTH",
"1045 1464 OFFCURVE",
"1121 1456 OFFCURVE",
"1164 1440 CURVE SMOOTH",
"1194 1429 OFFCURVE",
"1211 1413 OFFCURVE",
"1218 1379 CURVE SMOOTH",
"1274 1116 LINE",
"1372 1116 LINE",
"1384 1275 OFFCURVE",
"1380 1418 OFFCURVE",
"1364 1562 CURVE",
"83 1562 LINE",
"65 1418 OFFCURVE",
"57 1275 OFFCURVE",
"66 1116 CURVE",
"164 1116 LINE",
"223 1379 LINE SMOOTH",
"231 1413 OFFCURVE",
"248 1429 OFFCURVE",
"280 1440 CURVE SMOOTH",
"319 1454 OFFCURVE",
"406 1464 OFFCURVE",
"507 1464 CURVE SMOOTH",
"636 1464 LINE",
"636 186 LINE SMOOTH",
"636 149 OFFCURVE",
"617 129 OFFCURVE",
"580 123 CURVE SMOOTH",
"346 88 LINE",
"346 0 LINE"
);
}
);
width = 1442;
},
{
anchors = (
{
name = btm;
position = "{797, 0}";
},
{
name = top;
position = "{797, 1562}";
}
);
layerId = "925CB40E-795E-477B-BAE7-1EE7D58841B5";
name = Bold;
paths = (
{
closed = 1;
nodes = (
"1268 0 LINE",
"1268 143 LINE",
"1034 181 LINE SMOOTH",
"1003 186 OFFCURVE",
"987 205 OFFCURVE",
"987 236 CURVE SMOOTH",
"987 1407 LINE",
"1068 1407 LINE SMOOTH",
"1121 1407 OFFCURVE",
"1173 1400 OFFCURVE",
"1204 1388 CURVE SMOOTH",
"1231 1377 OFFCURVE",
"1244 1362 OFFCURVE",
"1251 1335 CURVE SMOOTH",
"1340 990 LINE",
"1525 990 LINE",
"1547 1190 OFFCURVE",
"1554 1355 OFFCURVE",
"1533 1562 CURVE",
"60 1562 LINE",
"39 1355 OFFCURVE",
"45 1196 OFFCURVE",
"68 990 CURVE",
"253 990 LINE",
"338 1335 LINE SMOOTH",
"344 1361 OFFCURVE",
"358 1377 OFFCURVE",
"386 1388 CURVE SMOOTH",
"416 1400 OFFCURVE",
"469 1407 OFFCURVE",
"522 1407 CURVE SMOOTH",
"607 1407 LINE",
"607 236 LINE SMOOTH",
"607 205 OFFCURVE",
"590 186 OFFCURVE",
"559 181 CURVE SMOOTH",
"325 143 LINE",
"325 0 LINE"
);
}
);
width = 1593;
}
);
rightMetricsKey = "=|";
unicode = 0054;
},
{
glyphname = U;
lastChange = "2015-11-29 15:16:09 +0000";
layers = (
{
anchors = (
{
name = btm;
position = "{819, 0}";
},
{
name = top;
position = "{841, 1562}";
}
);
layerId = "DAAEA780-4710-4479-B303-5C05B40621B2";
name = Light;
paths = (
{
closed = 1;
nodes = (
"1020 1562 LINE",
"1020 1474 LINE",
"1196 1442 LINE SMOOTH",
"1231 1436 OFFCURVE",
"1249 1413 OFFCURVE",
"1249 1377 CURVE SMOOTH",
"1249 567 LINE SMOOTH",
"1249 244 OFFCURVE",
"1126 80 OFFCURVE",
"837 80 CURVE SMOOTH",
"604 80 OFFCURVE",
"433 196 OFFCURVE",
"433 583 CURVE SMOOTH",
"433 1376 LINE SMOOTH",
"433 1412 OFFCURVE",
"452 1436 OFFCURVE",
"487 1442 CURVE SMOOTH",
"669 1474 LINE",
"669 1562 LINE",
"87 1562 LINE",
"87 1474 LINE",
"207 1444 LINE SMOOTH",
"242 1435 OFFCURVE",
"259 1414 OFFCURVE",
"259 1378 CURVE SMOOTH",
"259 601 LINE SMOOTH",
"259 191 OFFCURVE",
"422 -19 OFFCURVE",
"806 -19 CURVE SMOOTH",
"1170 -19 OFFCURVE",
"1379 161 OFFCURVE",
"1379 575 CURVE SMOOTH",
"1379 1377 LINE SMOOTH",
"1379 1413 OFFCURVE",
"1396 1436 OFFCURVE",
"1431 1444 CURVE SMOOTH",
"1556 1474 LINE",
"1556 1562 LINE"
);
}
);
width = 1638;
},
{
anchors = (
{
name = btm;
position = "{851, 0}";
},
{
name = top;
position = "{879, 1562}";
}
);
layerId = "925CB40E-795E-477B-BAE7-1EE7D58841B5";
name = Bold;
paths = (
{
closed = 1;
nodes = (
"1037 1562 LINE",
"1037 1411 LINE",
"1203 1380 LINE SMOOTH",
"1233 1374 OFFCURVE",
"1249 1355 OFFCURVE",
"1249 1324 CURVE SMOOTH",
"1249 557 LINE SMOOTH",
"1249 302 OFFCURVE",
"1172 124 OFFCURVE",
"926 124 CURVE SMOOTH",
"691 124 OFFCURVE",
"611 285 OFFCURVE",
"611 559 CURVE SMOOTH",
"611 1320 LINE SMOOTH",
"611 1351 OFFCURVE",
"627 1371 OFFCURVE",
"657 1377 CURVE SMOOTH",
"817 1411 LINE",
"817 1562 LINE",
"75 1562 LINE",
"75 1411 LINE",
"175 1382 LINE SMOOTH",
"204 1374 OFFCURVE",
"219 1355 OFFCURVE",
"219 1325 CURVE SMOOTH",
"219 591 LINE SMOOTH",
"219 153 OFFCURVE",
"430 -25 OFFCURVE",
"867 -25 CURVE SMOOTH",
"1241 -25 OFFCURVE",
"1481 138 OFFCURVE",
"1481 578 CURVE SMOOTH",
"1481 1325 LINE SMOOTH",
"1481 1355 OFFCURVE",
"1497 1375 OFFCURVE",
"1526 1382 CURVE SMOOTH",
"1636 1411 LINE",
"1636 1562 LINE"
);
}
);
width = 1705;
}
);
rightMetricsKey = "=|";
unicode = 0055;
},
{
glyphname = V;
lastChange = "2015-11-29 15:16:09 +0000";
layers = (
{
anchors = (
{
name = bottom;
position = "{734, -178}";
},
{
name = btm;
position = "{763, 0}";
},
{
name = top;
position = "{617, 1562}";
}
);
layerId = "DAAEA780-4710-4479-B303-5C05B40621B2";
name = Light;
paths = (
{
closed = 1;
nodes = (
"676 -5 LINE",
"834 -5 LINE",
"1312 1388 LINE SMOOTH",
"1322 1418 OFFCURVE",
"1343 1433 OFFCURVE",
"1374 1442 CURVE SMOOTH",
"1490 1474 LINE",
"1490 1562 LINE",
"981 1562 LINE",
"981 1474 LINE",
"1191 1432 LINE",
"740 77 LINE",
"819 77 LINE",
"316 1432 LINE",
"526 1474 LINE",
"526 1562 LINE",
"-25 1562 LINE",
"-25 1474 LINE",
"85 1442 LINE SMOOTH",
"117 1433 OFFCURVE",
"135 1419 OFFCURVE",
"147 1388 CURVE SMOOTH"
);
}
);
width = 1482;
},
{
anchors = (
{
name = bottom;
position = "{798, -178}";
},
{
name = btm;
position = "{933, 0}";
},
{
name = top;
position = "{591, 1562}";
}
);
layerId = "925CB40E-795E-477B-BAE7-1EE7D58841B5";
name = Bold;
paths = (
{
closed = 1;
nodes = (
"641 -5 LINE",
"980 -5 LINE",
"1417 1333 LINE SMOOTH",
"1425 1360 OFFCURVE",
"1443 1374 OFFCURVE",
"1469 1380 CURVE SMOOTH",
"1606 1411 LINE",
"1606 1562 LINE",
"1022 1562 LINE",
"1022 1411 LINE",
"1215 1375 LINE",
"845 160 LINE",
"944 160 LINE",
"533 1375 LINE",
"725 1411 LINE",
"725 1562 LINE",
"-29 1562 LINE",
"-29 1411 LINE",
"98 1380 LINE SMOOTH",
"124 1374 OFFCURVE",
"141 1360 OFFCURVE",
"151 1333 CURVE SMOOTH"
);
}
);
width = 1592;
}
);
unicode = 0056;
},
{
glyphname = W;
lastChange = "2015-11-29 15:16:09 +0000";
layers = (
{
anchors = (
{
name = btm;
position = "{1096, 0}";
},
{
name = top;
position = "{1080, 1562}";
}
);
layerId = "DAAEA780-4710-4479-B303-5C05B40621B2";
name = Light;
paths = (
{
closed = 1;
nodes = (
"1050 1343 LINE",
"686 126 LINE",
"729 126 LINE",
"326 1432 LINE",
"536 1474 LINE",
"536 1562 LINE",
"-19 1562 LINE",
"-19 1474 LINE",
"96 1442 LINE SMOOTH",
"128 1433 OFFCURVE",
"147 1417 OFFCURVE",
"157 1386 CURVE SMOOTH",
"603 -11 LINE",
"768 -11 LINE",
"1118 1170 LINE"
);
},
{
closed = 1;
nodes = (
"1066 1168 LINE",
"1422 -11 LINE",
"1589 -11 LINE",
"2000 1385 LINE SMOOTH",
"2011 1422 OFFCURVE",
"2031 1433 OFFCURVE",
"2063 1442 CURVE SMOOTH",
"2179 1474 LINE",
"2179 1562 LINE",
"1674 1562 LINE",
"1674 1474 LINE",
"1884 1432 LINE",
"1506 120 LINE",
"1549 120 LINE",
"1156 1432 LINE",
"1364 1474 LINE",
"1364 1562 LINE",
"824 1562 LINE",
"824 1474 LINE",
"929 1442 LINE SMOOTH",
"961 1432 OFFCURVE",
"979 1417 OFFCURVE",
"990 1386 CURVE SMOOTH"
);
}
);
width = 2173;
},
{
anchors = (
{
name = btm;
position = "{1163, 0}";
},
{
name = top;
position = "{1166, 1562}";
}
);
layerId = "925CB40E-795E-477B-BAE7-1EE7D58841B5";
name = Bold;
paths = (
{
closed = 1;
nodes = (
"1079 1262 LINE",
"795 228 LINE",
"840 228 LINE",
"540 1375 LINE",
"712 1411 LINE",
"712 1562 LINE",
"-21 1562 LINE",
"-21 1411 LINE",
"111 1380 LINE SMOOTH",
"136 1375 OFFCURVE",
"153 1356 OFFCURVE",
"161 1330 CURVE SMOOTH",
"570 -6 LINE",
"910 -6 LINE",
"1194 1044 LINE"
);
},
{
closed = 1;
nodes = (
"1113 1052 LINE",
"1415 -6 LINE",
"1755 -6 LINE",
"2129 1330 LINE SMOOTH",
"2136 1359 OFFCURVE",
"2152 1375 OFFCURVE",
"2179 1380 CURVE SMOOTH",
"2320 1411 LINE",
"2320 1562 LINE",
"1762 1562 LINE",
"1762 1411 LINE",
"1934 1375 LINE",
"1635 227 LINE",
"1690 227 LINE",
"1393 1375 LINE",
"1592 1411 LINE",
"1592 1562 LINE",
"880 1562 LINE",
"880 1411 LINE",
"970 1380 LINE SMOOTH",
"995 1372 OFFCURVE",
"1012 1356 OFFCURVE",
"1020 1330 CURVE SMOOTH"
);
}
);
width = 2305;
}
);
unicode = 0057;
},
{
glyphname = X;
lastChange = "2015-11-29 15:16:09 +0000";
layers = (
{
anchors = (
{
name = btm;
position = "{717, 0}";
},
{
name = top;
position = "{717, 1562}";
}
);
layerId = "DAAEA780-4710-4479-B303-5C05B40621B2";
name = Light;
paths = (
{
closed = 1;
nodes = (
"1436 0 LINE",
"1436 88 LINE",
"1317 117 LINE SMOOTH",
"1288 124 OFFCURVE",
"1268 136 OFFCURVE",
"1251 162 CURVE SMOOTH",
"783 858 LINE",
"771 858 LINE",
"408 1437 LINE",
"618 1474 LINE",
"618 1562 LINE",
"44 1562 LINE",
"44 1474 LINE",
"160 1442 LINE SMOOTH",
"189 1434 OFFCURVE",
"208 1420 OFFCURVE",
"224 1395 CURVE SMOOTH",
"659 736 LINE",
"674 735 LINE",
"1067 122 LINE",
"866 88 LINE",
"866 0 LINE"
);
},
{
closed = 1;
nodes = (
"546 0 LINE",
"546 88 LINE",
"335 122 LINE",
"742 739 LINE",
"759 739 LINE",
"1214 1396 LINE SMOOTH",
"1231 1421 OFFCURVE",
"1250 1434 OFFCURVE",
"1279 1442 CURVE SMOOTH",
"1398 1474 LINE",
"1398 1562 LINE",
"909 1562 LINE",
"909 1474 LINE",
"1093 1437 LINE",
"707 842 LINE",
"682 842 LINE",
"208 162 LINE SMOOTH",
"190 136 OFFCURVE",
"172 124 OFFCURVE",
"142 117 CURVE SMOOTH",
"8 88 LINE",
"8 0 LINE"
);
}
);
width = 1445;
},
{
anchors = (
{
name = btm;
position = "{755, 0}";
},
{
name = top;
position = "{755, 1562}";
}
);
layerId = "925CB40E-795E-477B-BAE7-1EE7D58841B5";
name = Bold;
paths = (
{
closed = 1;
nodes = (
"1538 0 LINE",
"1538 144 LINE",
"1423 173 LINE SMOOTH",
"1398 179 OFFCURVE",
"1382 191 OFFCURVE",
"1367 212 CURVE SMOOTH",
"916 906 LINE",
"899 906 LINE",
"613 1375 LINE",
"767 1411 LINE",
"767 1562 LINE",
"33 1562 LINE",
"33 1411 LINE",
"145 1380 LINE SMOOTH",
"169 1373 OFFCURVE",
"185 1362 OFFCURVE",
"199 1340 CURVE SMOOTH",
"621 685 LINE",
"637 685 LINE",
"948 178 LINE",
"793 144 LINE",
"793 0 LINE"
);
},
{
closed = 1;
nodes = (
"595 0 LINE",
"595 144 LINE",
"407 178 LINE",
"758 719 LINE",
"854 719 LINE",
"1298 1343 LINE SMOOTH",
"1312 1364 OFFCURVE",
"1330 1375 OFFCURVE",
"1355 1380 CURVE SMOOTH",
"1491 1411 LINE",
"1491 1562 LINE",
"936 1562 LINE",
"936 1411 LINE",
"1107 1375 LINE",
"771 868 LINE",
"672 868 LINE",
"211 211 LINE SMOOTH",
"195 188 OFFCURVE",
"180 178 OFFCURVE",
"155 173 CURVE SMOOTH",
"7 144 LINE",
"7 0 LINE"
);
}
);
width = 1536;
}
);
unicode = 0058;
},
{
glyphname = Y;
lastChange = "2015-11-29 15:16:09 +0000";
layers = (
{
anchors = (
{
name = btm;
position = "{716, 0}";
},
{
name = top;
position = "{697, 1562}";
}
);
layerId = "DAAEA780-4710-4479-B303-5C05B40621B2";
name = Light;
paths = (
{
closed = 1;
nodes = (
"772 539 LINE",
"1223 1398 LINE SMOOTH",
"1238 1426 OFFCURVE",
"1258 1439 OFFCURVE",
"1289 1446 CURVE SMOOTH",
"1415 1474 LINE",
"1415 1562 LINE",
"915 1562 LINE",
"915 1474 LINE",
"1106 1439 LINE",
"710 677 LINE",
"776 677 LINE",
"346 1437 LINE",
"539 1474 LINE",
"539 1562 LINE",
"-21 1562 LINE",
"-21 1474 LINE",
"105 1443 LINE SMOOTH",
"135 1435 OFFCURVE",
"155 1421 OFFCURVE",
"170 1395 CURVE SMOOTH",
"663 539 LINE"
);
},
{
closed = 1;
nodes = (
"1051 0 LINE",
"1051 88 LINE",
"857 123 LINE SMOOTH",
"820 130 OFFCURVE",
"801 149 OFFCURVE",
"801 186 CURVE SMOOTH",
"801 614 LINE",
"631 614 LINE",
"631 186 LINE SMOOTH",
"631 149 OFFCURVE",
"612 130 OFFCURVE",
"575 123 CURVE SMOOTH",
"381 88 LINE",
"381 0 LINE"
);
}
);
width = 1415;
},
{
anchors = (
{
name = btm;
position = "{756, 0}";
},
{
name = top;
position = "{782, 1562}";
}
);
layerId = "925CB40E-795E-477B-BAE7-1EE7D58841B5";
name = Bold;
paths = (
{
closed = 1;
nodes = (
"906 521 LINE",
"1322 1341 LINE SMOOTH",
"1335 1365 OFFCURVE",
"1353 1376 OFFCURVE",
"1379 1382 CURVE SMOOTH",
"1494 1411 LINE",
"1494 1562 LINE",
"935 1562 LINE",
"935 1411 LINE",
"1110 1372 LINE",
"800 726 LINE",
"904 727 LINE",
"572 1370 LINE",
"729 1411 LINE",
"729 1562 LINE",
"-33 1562 LINE",
"-33 1411 LINE",
"91 1380 LINE SMOOTH",
"116 1373 OFFCURVE",
"134 1362 OFFCURVE",
"147 1339 CURVE SMOOTH",
"612 521 LINE"
);
},
{
closed = 1;
nodes = (
"1189 0 LINE",
"1189 143 LINE",
"1000 181 LINE SMOOTH",
"969 187 OFFCURVE",
"952 205 OFFCURVE",
"952 236 CURVE SMOOTH",
"952 658 LINE",
"560 658 LINE",
"560 236 LINE SMOOTH",
"560 205 OFFCURVE",
"544 187 OFFCURVE",
"513 181 CURVE SMOOTH",
"323 143 LINE",
"323 0 LINE"
);
}
);
width = 1494;
}
);
unicode = 0059;
},
{
glyphname = Z;
lastChange = "2015-11-29 15:16:09 +0000";
layers = (
{
anchors = (
{
name = btm;
position = "{611, 0}";
},
{
name = top;
position = "{687, 1562}";
}
);
layerId = "DAAEA780-4710-4479-B303-5C05B40621B2";
name = Light;
paths = (
{
closed = 1;
nodes = (
"1169 0 LINE",
"1191 126 OFFCURVE",
"1204 306 OFFCURVE",
"1202 436 CURVE",
"1109 446 LINE",
"1034 189 LINE SMOOTH",
"1025 160 OFFCURVE",
"1008 143 OFFCURVE",
"977 132 CURVE SMOOTH",
"926 114 OFFCURVE",
"841 108 OFFCURVE",
"744 108 CURVE SMOOTH",
"212 108 LINE",
"251 65 LINE",
"1197 1486 LINE",
"1153 1562 LINE",
"177 1562 LINE",
"160 1427 OFFCURVE",
"149 1273 OFFCURVE",
"155 1138 CURVE",
"249 1138 LINE",
"312 1379 LINE SMOOTH",
"320 1408 OFFCURVE",
"338 1425 OFFCURVE",
"369 1436 CURVE SMOOTH",
"420 1454 OFFCURVE",
"505 1458 OFFCURVE",
"602 1458 CURVE SMOOTH",
"1034 1458 LINE",
"1000 1495 LINE",
"53 80 LINE",
"101 0 LINE"
);
}
);
width = 1307;
},
{
anchors = (
{
name = btm;
position = "{671, 0}";
},
{
name = top;
position = "{750, 1562}";
}
);
layerId = "925CB40E-795E-477B-BAE7-1EE7D58841B5";
name = Bold;
paths = (
{
closed = 1;
nodes = (
"1275 0 LINE",
"1302 152 OFFCURVE",
"1318 379 OFFCURVE",
"1315 518 CURVE",
"1111 545 LINE",
"1009 252 LINE SMOOTH",
"997 217 OFFCURVE",
"978 199 OFFCURVE",
"950 188 CURVE SMOOTH",
"916 174 OFFCURVE",
"853 165 OFFCURVE",
"769 165 CURVE SMOOTH",
"403 165 LINE",
"474 109 LINE",
"1322 1436 LINE",
"1269 1565 LINE",
"178 1565 LINE",
"149 1404 OFFCURVE",
"138 1218 OFFCURVE",
"144 1048 CURVE",
"356 1048 LINE",
"447 1327 LINE SMOOTH",
"458 1361 OFFCURVE",
"475 1380 OFFCURVE",
"505 1392 CURVE SMOOTH",
"540 1405 OFFCURVE",
"603 1414 OFFCURVE",
"686 1414 CURVE SMOOTH",
"948 1414 LINE",
"900 1451 LINE",
"40 125 LINE",
"113 0 LINE"
);
}
);
width = 1409;
}
);
unicode = 005A;
},
{
glyphname = a;
lastChange = "2015-11-29 15:16:09 +0000";
layers = (
{
anchors = (
{
name = btm;
position = "{501, 0}";
},
{
name = top;
position = "{549, 1136}";
}
);
layerId = "DAAEA780-4710-4479-B303-5C05B40621B2";
name = Light;
paths = (
{
closed = 1;
nodes = (
"403 -23 CURVE SMOOTH",
"588 -23 OFFCURVE",
"756 79 OFFCURVE",
"830 214 CURVE",
"808 259 LINE",
"742 169 OFFCURVE",
"588 99 OFFCURVE",
"456 99 CURVE SMOOTH",
"331 99 OFFCURVE",
"270 161 OFFCURVE",
"270 265 CURVE SMOOTH",
"270 400 OFFCURVE",
"374 450 OFFCURVE",
"547 466 CURVE SMOOTH",
"800 490 LINE",
"800 586 LINE",
"527 562 LINE SMOOTH",
"333 545 OFFCURVE",
"88 489 OFFCURVE",
"88 249 CURVE SMOOTH",
"88 69 OFFCURVE",
"227 -23 OFFCURVE"
);
},
{
closed = 1;
nodes = (
"162 893 LINE",
"260 987 OFFCURVE",
"377 1027 OFFCURVE",
"505 1027 CURVE SMOOTH",
"684 1027 OFFCURVE",
"765 948 OFFCURVE",
"765 726 CURVE SMOOTH",
"765 159 LINE",
"775 52 OFFCURVE",
"831 -16 OFFCURVE",
"931 -16 CURVE SMOOTH",
"989 -16 OFFCURVE",
"1081 7 OFFCURVE",
"1108 19 CURVE",
"1108 100 LINE",
"988 110 LINE SMOOTH",
"949 113 OFFCURVE",
"928 131 OFFCURVE",
"928 175 CURVE SMOOTH",
"928 764 LINE SMOOTH",
"928 1036 OFFCURVE",
"798 1160 OFFCURVE",
"550 1160 CURVE SMOOTH",
"358 1160 OFFCURVE",
"169 1085 OFFCURVE",
"121 938 CURVE"
);
}
);
width = 1150;
},
{
anchors = (
{
name = btm;
position = "{554, 0}";
},
{
name = top;
position = "{597, 1138}";
}
);
layerId = "925CB40E-795E-477B-BAE7-1EE7D58841B5";
name = Bold;
paths = (
{
closed = 1;
nodes = (
"389 -23 CURVE SMOOTH",
"569 -23 OFFCURVE",
"709 56 OFFCURVE",
"779 193 CURVE",
"753 271 LINE",
"703 213 OFFCURVE",
"628 176 OFFCURVE",
"544 176 CURVE SMOOTH",
"459 176 OFFCURVE",
"427 217 OFFCURVE",
"427 301 CURVE SMOOTH",
"427 387 OFFCURVE",
"463 459 OFFCURVE",
"594 466 CURVE SMOOTH",
"760 476 LINE",
"760 608 LINE",
"499 594 LINE SMOOTH",
"265 581 OFFCURVE",
"56 472 OFFCURVE",
"56 258 CURVE SMOOTH",
"56 89 OFFCURVE",
"185 -23 OFFCURVE"
);
},
{
closed = 1;
nodes = (
"172 814 LINE",
"261 894 OFFCURVE",
"364 933 OFFCURVE",
"486 933 CURVE SMOOTH",
"627 933 OFFCURVE",
"703 881 OFFCURVE",
"703 717 CURVE SMOOTH",
"703 190 LINE",
"734 32 OFFCURVE",
"826 -19 OFFCURVE",
"966 -19 CURVE SMOOTH",
"1048 -19 OFFCURVE",
"1150 5 OFFCURVE",
"1203 20 CURVE",
"1203 155 LINE",
"1105 167 LINE SMOOTH",
"1072 171 OFFCURVE",
"1053 186 OFFCURVE",
"1053 228 CURVE SMOOTH",
"1053 723 LINE SMOOTH",
"1053 1015 OFFCURVE",
"917 1166 OFFCURVE",
"593 1166 CURVE SMOOTH",
"322 1166 OFFCURVE",
"156 1059 OFFCURVE",
"90 886 CURVE"
);
}
);
width = 1233;
}
);
unicode = 0061;
},
{
glyphname = b;
lastChange = "2015-11-29 15:16:09 +0000";
layers = (
{
anchors = (
{
name = btm;
position = "{612, 0}";
},
{
name = top;
position = "{750, 1136}";
}
);
layerId = "DAAEA780-4710-4479-B303-5C05B40621B2";
name = Light;
paths = (
{
closed = 1;
nodes = (
"179 56 LINE",
"245 28 OFFCURVE",
"392 -23 OFFCURVE",
"561 -23 CURVE SMOOTH",
"939 -23 OFFCURVE",
"1143 230 OFFCURVE",
"1143 624 CURVE SMOOTH",
"1143 1013 OFFCURVE",
"944 1168 OFFCURVE",
"690 1168 CURVE SMOOTH",
"500 1168 OFFCURVE",
"381 1081 OFFCURVE",
"297 971 CURVE",
"302 893 LINE",
"384 984 OFFCURVE",
"488 1042 OFFCURVE",
"629 1042 CURVE SMOOTH",
"834 1042 OFFCURVE",
"968 919 OFFCURVE",
"963 571 CURVE SMOOTH",
"958 229 OFFCURVE",
"823 81 OFFCURVE",
"574 81 CURVE SMOOTH",
"472 81 OFFCURVE",
"401 106 OFFCURVE",
"344 137 CURVE",
"344 1770 LINE",
"317 1797 LINE",
"208 1794 OFFCURVE",
"78 1775 OFFCURVE",
"-31 1742 CURVE",
"-31 1667 LINE",
"122 1645 LINE SMOOTH",
"159 1640 OFFCURVE",
"179 1620 OFFCURVE",
"179 1583 CURVE SMOOTH"
);
}
);
width = 1246;
},
{
anchors = (
{
name = btm;
position = "{558, 0}";
},
{
name = top;
position = "{852, 1138}";
}
);
layerId = "925CB40E-795E-477B-BAE7-1EE7D58841B5";
name = Bold;
paths = (
{
closed = 1;
nodes = (
"141 56 LINE",
"226 19 OFFCURVE",
"421 -23 OFFCURVE",
"596 -23 CURVE SMOOTH",
"1013 -23 OFFCURVE",
"1237 215 OFFCURVE",
"1237 627 CURVE SMOOTH",
"1237 1001 OFFCURVE",
"1052 1168 OFFCURVE",
"813 1168 CURVE SMOOTH",
"654 1168 OFFCURVE",
"520 1095 OFFCURVE",
"440 964 CURVE",
"471 899 LINE",
"524 938 OFFCURVE",
"588 956 OFFCURVE",
"647 956 CURVE SMOOTH",
"784 956 OFFCURVE",
"859 863 OFFCURVE",
"855 560 CURVE SMOOTH",
"851 249 OFFCURVE",
"773 117 OFFCURVE",
"621 117 CURVE SMOOTH",
"574 117 OFFCURVE",
"535 129 OFFCURVE",
"502 146 CURVE",
"502 1756 LINE",
"455 1800 LINE",
"314 1799 OFFCURVE",
"106 1775 OFFCURVE",
"-35 1738 CURVE",
"-35 1594 LINE",
"95 1574 LINE SMOOTH",
"125 1569 OFFCURVE",
"141 1549 OFFCURVE",
"141 1518 CURVE SMOOTH"
);
}
);
width = 1309;
}
);
unicode = 0062;
},
{
glyphname = c;
lastChange = "2015-11-29 15:16:09 +0000";
layers = (
{
anchors = (
{
name = btm;
position = "{567, 0}";
},
{
name = top;
position = "{610, 1136}";
}
);
layerId = "DAAEA780-4710-4479-B303-5C05B40621B2";
name = Light;
paths = (
{
closed = 1;
nodes = (
"101 556 CURVE SMOOTH",
"101 218 OFFCURVE",
"273 -23 OFFCURVE",
"597 -23 CURVE SMOOTH",
"779 -23 OFFCURVE",
"924 53 OFFCURVE",
"993 183 CURVE",
"938 235 LINE",
"871 160 OFFCURVE",
"767 102 OFFCURVE",
"639 102 CURVE SMOOTH",
"423 102 OFFCURVE",
"286 265 OFFCURVE",
"286 601 CURVE SMOOTH",
"286 910 OFFCURVE",
"402 1071 OFFCURVE",
"616 1071 CURVE SMOOTH",
"693 1071 OFFCURVE",
"756 1050 OFFCURVE",
"793 1020 CURVE SMOOTH",
"821 997 OFFCURVE",
"828 973 OFFCURVE",
"836 938 CURVE SMOOTH",
"873 783 LINE",
"961 783 LINE",
"976 880 OFFCURVE",
"986 1007 OFFCURVE",
"980 1101 CURVE",
"905 1138 OFFCURVE",
"765 1168 OFFCURVE",
"643 1168 CURVE SMOOTH",
"272 1168 OFFCURVE",
"101 893 OFFCURVE"
);
}
);
width = 1084;
},
{
anchors = (
{
name = btm;
position = "{582, 0}";
},
{
name = top;
position = "{619, 1138}";
}
);
layerId = "925CB40E-795E-477B-BAE7-1EE7D58841B5";
name = Bold;
paths = (
{
closed = 1;
nodes = (
"70 556 CURVE SMOOTH",
"70 229 OFFCURVE",
"233 -26 OFFCURVE",
"604 -26 CURVE SMOOTH",
"846 -26 OFFCURVE",
"1006 83 OFFCURVE",
"1054 228 CURVE",
"977 291 LINE",
"929 247 OFFCURVE",
"840 195 OFFCURVE",
"722 195 CURVE SMOOTH",
"530 195 OFFCURVE",
"459 333 OFFCURVE",
"459 604 CURVE SMOOTH",
"459 898 OFFCURVE",
"540 1009 OFFCURVE",
"646 1009 CURVE SMOOTH",
"686 1009 OFFCURVE",
"720 994 OFFCURVE",
"741 974 CURVE SMOOTH",
"760 957 OFFCURVE",
"771 935 OFFCURVE",
"784 889 CURVE SMOOTH",
"841 687 LINE",
"1016 687 LINE",
"1041 811 OFFCURVE",
"1050 945 OFFCURVE",
"1040 1080 CURVE",
"947 1131 OFFCURVE",
"797 1168 OFFCURVE",
"655 1168 CURVE SMOOTH",
"316 1168 OFFCURVE",
"70 957 OFFCURVE"
);
}
);
width = 1122;
}
);
unicode = 0063;
},
{
glyphname = d;
lastChange = "2015-11-29 15:16:09 +0000";
layers = (
{
anchors = (
{
name = btm;
position = "{596, 0}";
},
{
name = topright;
position = "{1070, 1136}";
}
);
layerId = "DAAEA780-4710-4479-B303-5C05B40621B2";
name = Light;
paths = (
{
closed = 1;
nodes = (
"553 -23 CURVE SMOOTH",
"746 -23 OFFCURVE",
"877 82 OFFCURVE",
"952 190 CURVE",
"924 236 LINE",
"843 159 OFFCURVE",
"742 106 OFFCURVE",
"615 106 CURVE SMOOTH",
"444 106 OFFCURVE",
"284 202 OFFCURVE",
"284 569 CURVE SMOOTH",
"284 950 OFFCURVE",
"457 1064 OFFCURVE",
"659 1064 CURVE SMOOTH",
"783 1064 OFFCURVE",
"899 1021 OFFCURVE",
"935 981 CURVE",
"984 1117 LINE",
"925 1140 OFFCURVE",
"811 1168 OFFCURVE",
"684 1168 CURVE SMOOTH",
"347 1168 OFFCURVE",
"103 970 OFFCURVE",
"103 539 CURVE SMOOTH",
"103 139 OFFCURVE",
"313 -23 OFFCURVE"
);
},
{
closed = 1;
nodes = (
"1044 1797 LINE",
"939 1793 OFFCURVE",
"794 1776 OFFCURVE",
"689 1742 CURVE",
"689 1667 LINE",
"848 1645 LINE SMOOTH",
"884 1640 OFFCURVE",
"905 1620 OFFCURVE",
"905 1583 CURVE SMOOTH",
"905 172 LINE",
"913 76 OFFCURVE",
"953 -16 OFFCURVE",
"1074 -16 CURVE SMOOTH",
"1129 -16 OFFCURVE",
"1207 3 OFFCURVE",
"1250 19 CURVE",
"1250 100 LINE",
"1130 110 LINE SMOOTH",
"1095 113 OFFCURVE",
"1070 127 OFFCURVE",
"1070 176 CURVE SMOOTH",
"1070 1769 LINE"
);
}
);
width = 1308;
},
{
anchors = (
{
name = btm;
position = "{593, 0}";
},
{
name = topright;
position = "{1173, 1138}";
}
);
layerId = "925CB40E-795E-477B-BAE7-1EE7D58841B5";
name = Bold;
paths = (
{
closed = 1;
nodes = (
"525 -23 CURVE SMOOTH",
"699 -23 OFFCURVE",
"824 66 OFFCURVE",
"901 197 CURVE",
"862 248 LINE",
"812 200 OFFCURVE",
"727 173 OFFCURVE",
"652 173 CURVE SMOOTH",
"522 173 OFFCURVE",
"454 286 OFFCURVE",
"455 578 CURVE SMOOTH",
"456 912 OFFCURVE",
"547 1014 OFFCURVE",
"692 1014 CURVE SMOOTH",
"751 1014 OFFCURVE",
"813 997 OFFCURVE",
"844 966 CURVE",
"869 1138 LINE",
"826 1154 OFFCURVE",
"740 1168 OFFCURVE",
"666 1168 CURVE SMOOTH",
"285 1168 OFFCURVE",
"73 947 OFFCURVE",
"73 536 CURVE SMOOTH",
"73 147 OFFCURVE",
"263 -23 OFFCURVE"
);
},
{
closed = 1;
nodes = (
"1125 1800 LINE",
"981 1799 OFFCURVE",
"779 1773 OFFCURVE",
"635 1736 CURVE",
"635 1595 LINE",
"766 1575 LINE SMOOTH",
"796 1570 OFFCURVE",
"812 1550 OFFCURVE",
"812 1519 CURVE SMOOTH",
"812 202 LINE",
"843 51 OFFCURVE",
"931 -19 OFFCURVE",
"1081 -19 CURVE SMOOTH",
"1168 -19 OFFCURVE",
"1274 5 OFFCURVE",
"1323 20 CURVE",
"1323 155 LINE",
"1225 167 LINE SMOOTH",
"1192 171 OFFCURVE",
"1173 185 OFFCURVE",
"1173 228 CURVE SMOOTH",
"1173 1755 LINE"
);
}
);
width = 1366;
}
);
unicode = 0064;
},
{
glyphname = e;
lastChange = "2015-11-29 15:16:09 +0000";
layers = (
{
anchors = (
{
name = btm;
position = "{614, 0}";
},
{
name = top;
position = "{599, 1136}";
}
);
layerId = "DAAEA780-4710-4479-B303-5C05B40621B2";
name = Light;
paths = (
{
closed = 1;
nodes = (
"101 556 CURVE SMOOTH",
"101 225 OFFCURVE",
"263 -23 OFFCURVE",
"596 -23 CURVE SMOOTH",
"822 -23 OFFCURVE",
"977 92 OFFCURVE",
"1029 248 CURVE",
"960 283 LINE",
"895 173 OFFCURVE",
"775 103 OFFCURVE",
"636 103 CURVE SMOOTH",
"451 103 OFFCURVE",
"279 216 OFFCURVE",
"279 599 CURVE SMOOTH",
"279 921 OFFCURVE",
"400 1066 OFFCURVE",
"593 1066 CURVE SMOOTH",
"759 1066 OFFCURVE",
"856 953 OFFCURVE",
"856 786 CURVE SMOOTH",
"856 768 OFFCURVE",
"855 755 OFFCURVE",
"853 738 CURVE",
"227 738 LINE",
"227 642 LINE",
"1021 642 LINE",
"1028 682 OFFCURVE",
"1031 739 OFFCURVE",
"1031 772 CURVE SMOOTH",
"1031 1043 OFFCURVE",
"849 1168 OFFCURVE",
"625 1168 CURVE SMOOTH",
"314 1168 OFFCURVE",
"101 936 OFFCURVE"
);
}
);
width = 1137;
},
{
anchors = (
{
name = btm;
position = "{575, 0}";
},
{
name = top;
position = "{608, 1138}";
}
);
layerId = "925CB40E-795E-477B-BAE7-1EE7D58841B5";
name = Bold;
paths = (
{
closed = 1;
nodes = (
"72 560 CURVE SMOOTH",
"72 200 OFFCURVE",
"240 -26 OFFCURVE",
"611 -26 CURVE SMOOTH",
"850 -26 OFFCURVE",
"1031 69 OFFCURVE",
"1085 249 CURVE",
"1007 307 LINE",
"940 232 OFFCURVE",
"831 195 OFFCURVE",
"721 195 CURVE SMOOTH",
"508 195 OFFCURVE",
"442 325 OFFCURVE",
"442 623 CURVE SMOOTH",
"442 926 OFFCURVE",
"506 1019 OFFCURVE",
"613 1019 CURVE SMOOTH",
"719 1019 OFFCURVE",
"765 926 OFFCURVE",
"765 798 CURVE SMOOTH",
"765 779 OFFCURVE",
"764 764 OFFCURVE",
"764 752 CURVE",
"321 752 LINE",
"321 618 LINE",
"1077 618 LINE",
"1087 665 OFFCURVE",
"1094 729 OFFCURVE",
"1094 780 CURVE SMOOTH",
"1094 1003 OFFCURVE",
"958 1167 OFFCURVE",
"638 1167 CURVE SMOOTH",
"276 1167 OFFCURVE",
"72 957 OFFCURVE"
);
}
);
width = 1165;
}
);
unicode = 0065;
},
{
glyphname = f;
lastChange = "2015-11-29 15:16:09 +0000";
layers = (
{
anchors = (
{
name = btm;
position = "{377, 0}";
},
{
name = top;
position = "{403, 1136}";
}
);
layerId = "DAAEA780-4710-4479-B303-5C05B40621B2";
name = Light;
paths = (
{
closed = 1;
nodes = (
"272 1273 CURVE SMOOTH",
"272 1135 LINE",
"64 1109 LINE",
"64 1028 LINE",
"272 1006 LINE",
"272 169 LINE SMOOTH",
"272 132 OFFCURVE",
"252 113 OFFCURVE",
"215 107 CURVE SMOOTH",
"87 88 LINE",
"87 0 LINE",
"690 0 LINE",
"690 88 LINE",
"495 107 LINE SMOOTH",
"457 111 OFFCURVE",
"437 131 OFFCURVE",
"437 169 CURVE SMOOTH",
"437 1014 LINE",
"774 1014 LINE",
"774 1135 LINE",
"437 1135 LINE",
"437 1348 LINE SMOOTH",
"437 1556 OFFCURVE",
"512 1632 OFFCURVE",
"703 1632 CURVE SMOOTH",
"773 1632 OFFCURVE",
"866 1624 OFFCURVE",
"946 1610 CURVE",
"970 1730 LINE",
"888 1770 OFFCURVE",
"804 1797 OFFCURVE",
"721 1797 CURVE SMOOTH",
"505 1797 OFFCURVE",
"272 1586 OFFCURVE"
);
}
);
width = 828;
},
{
anchors = (
{
name = btm;
position = "{377, 0}";
},
{
name = top;
position = "{403, 1138}";
}
);
layerId = "925CB40E-795E-477B-BAE7-1EE7D58841B5";
name = Bold;
paths = (
{
closed = 1;
nodes = (
"234 1161 CURVE SMOOTH",
"234 1139 LINE",
"58 1106 LINE",
"58 969 LINE",
"226 939 LINE",
"226 217 LINE SMOOTH",
"226 185 OFFCURVE",
"209 169 OFFCURVE",
"178 163 CURVE SMOOTH",
"71 142 LINE",
"71 0 LINE",
"811 0 LINE",
"811 142 LINE",
"636 165 LINE SMOOTH",
"604 169 OFFCURVE",
"587 187 OFFCURVE",
"587 219 CURVE SMOOTH",
"587 943 LINE",
"894 943 LINE",
"894 1137 LINE",
"586 1137 LINE",
"586 1302 LINE SMOOTH",
"586 1482 OFFCURVE",
"656 1518 OFFCURVE",
"783 1521 CURVE SMOOTH",
"857 1523 OFFCURVE",
"963 1510 OFFCURVE",
"1043 1498 CURVE",
"1096 1678 LINE",
"1008 1743 OFFCURVE",
"903 1800 OFFCURVE",
"782 1800 CURVE SMOOTH",
"515 1800 OFFCURVE",
"234 1454 OFFCURVE"
);
}
);
width = 929;
}
);
unicode = 0066;
},
{
glyphname = g;
lastChange = "2015-11-29 15:16:09 +0000";
layers = (
{
anchors = (
{
name = top;
position = "{583, 1136}";
}
);
layerId = "DAAEA780-4710-4479-B303-5C05B40621B2";
name = Light;
paths = (
{
closed = 1;
nodes = (
"1154 -131 CURVE SMOOTH",
"1154 38 OFFCURVE",
"1042 144 OFFCURVE",
"811 144 CURVE SMOOTH",
"551 144 LINE",
"390 144 OFFCURVE",
"325 176 OFFCURVE",
"325 262 CURVE SMOOTH",
"325 334 OFFCURVE",
"370 373 OFFCURVE",
"426 397 CURVE",
"391 445 LINE",
"288 404 OFFCURVE",
"175 341 OFFCURVE",
"175 200 CURVE SMOOTH",
"175 53 OFFCURVE",
"299 0 OFFCURVE",
"496 0 CURVE SMOOTH",
"770 0 LINE SMOOTH",
"955 0 OFFCURVE",
"998 -65 OFFCURVE",
"998 -162 CURVE SMOOTH",
"998 -358 OFFCURVE",
"824 -448 OFFCURVE",
"581 -448 CURVE SMOOTH",
"322 -448 OFFCURVE",
"248 -346 OFFCURVE",
"248 -209 CURVE SMOOTH",
"248 -80 OFFCURVE",
"313 -6 OFFCURVE",
"387 52 CURVE",
"338 78 LINE",
"202 25 OFFCURVE",
"82 -68 OFFCURVE",
"82 -234 CURVE SMOOTH",
"82 -428 OFFCURVE",
"245 -552 OFFCURVE",
"548 -552 CURVE SMOOTH",
"896 -552 OFFCURVE",
"1154 -388 OFFCURVE"
);
},
{
closed = 1;
nodes = (
"1013 783 CURVE SMOOTH",
"1013 1022 OFFCURVE",
"840 1168 OFFCURVE",
"587 1168 CURVE SMOOTH",
"351 1168 OFFCURVE",
"125 1041 OFFCURVE",
"125 754 CURVE SMOOTH",
"125 490 OFFCURVE",
"317 366 OFFCURVE",
"550 366 CURVE SMOOTH",
"816 366 OFFCURVE",
"1013 527 OFFCURVE"
);
},
{
closed = 1;
nodes = (
"298 778 CURVE SMOOTH",
"298 1017 OFFCURVE",
"419 1067 OFFCURVE",
"559 1067 CURVE SMOOTH",
"751 1067 OFFCURVE",
"839 973 OFFCURVE",
"839 763 CURVE SMOOTH",
"839 547 OFFCURVE",
"746 467 OFFCURVE",
"579 467 CURVE SMOOTH",
"381 467 OFFCURVE",
"298 580 OFFCURVE"
);
},
{
closed = 1;
nodes = (
"1187 1016 LINE",
"1187 1150 LINE",
"1150 1159 OFFCURVE",
"1106 1168 OFFCURVE",
"1072 1168 CURVE SMOOTH",
"995 1168 OFFCURVE",
"931 1123 OFFCURVE",
"842 1051 CURVE",
"885 1016 LINE"
);
}
);
width = 1221;
},
{
anchors = (
{
name = top;
position = "{604, 1138}";
}
);
layerId = "925CB40E-795E-477B-BAE7-1EE7D58841B5";
name = Bold;
paths = (
{
closed = 1;
nodes = (
"1254 -93 CURVE SMOOTH",
"1254 118 OFFCURVE",
"1103 216 OFFCURVE",
"824 216 CURVE SMOOTH",
"622 216 LINE",
"463 216 OFFCURVE",
"404 238 OFFCURVE",
"404 310 CURVE SMOOTH",
"404 348 OFFCURVE",
"422 394 OFFCURVE",
"480 435 CURVE",
"375 447 LINE",
"244 413 OFFCURVE",
"154 339 OFFCURVE",
"154 210 CURVE SMOOTH",
"154 81 OFFCURVE",
"245 -17 OFFCURVE",
"500 -17 CURVE SMOOTH",
"706 -17 LINE SMOOTH",
"836 -17 OFFCURVE",
"883 -57 OFFCURVE",
"883 -163 CURVE SMOOTH",
"883 -310 OFFCURVE",
"789 -390 OFFCURVE",
"627 -390 CURVE SMOOTH",
"460 -390 OFFCURVE",
"398 -300 OFFCURVE",
"398 -177 CURVE SMOOTH",
"398 -72 OFFCURVE",
"444 3 OFFCURVE",
"497 43 CURVE",
"387 48 LINE",
"185 4 OFFCURVE",
"55 -74 OFFCURVE",
"55 -240 CURVE SMOOTH",
"55 -418 OFFCURVE",
"203 -552 OFFCURVE",
"567 -552 CURVE SMOOTH",
"988 -552 OFFCURVE",
"1254 -373 OFFCURVE"
);
},
{
closed = 1;
nodes = (
"1108 786 CURVE SMOOTH",
"1108 1045 OFFCURVE",
"934 1168 OFFCURVE",
"623 1168 CURVE SMOOTH",
"274 1168 OFFCURVE",
"89 1016 OFFCURVE",
"89 757 CURVE SMOOTH",
"89 546 OFFCURVE",
"211 376 OFFCURVE",
"585 376 CURVE SMOOTH",
"955 376 OFFCURVE",
"1108 544 OFFCURVE"
);
},
{
closed = 1;
nodes = (
"452 776 CURVE SMOOTH",
"452 954 OFFCURVE",
"504 1030 OFFCURVE",
"609 1030 CURVE SMOOTH",
"712 1030 OFFCURVE",
"756 961 OFFCURVE",
"756 776 CURVE SMOOTH",
"756 608 OFFCURVE",
"718 519 OFFCURVE",
"607 519 CURVE SMOOTH",
"503 519 OFFCURVE",
"452 595 OFFCURVE"
);
},
{
closed = 1;
nodes = (
"1296 908 LINE",
"1296 1153 LINE",
"1270 1161 OFFCURVE",
"1229 1172 OFFCURVE",
"1194 1172 CURVE SMOOTH",
"1103 1172 OFFCURVE",
"1007 1097 OFFCURVE",
"956 976 CURVE",
"1044 908 LINE"
);
}
);
width = 1318;
}
);
unicode = 0067;
},
{
glyphname = h;
lastChange = "2015-11-29 15:16:09 +0000";
layers = (
{
anchors = (
{
name = btm;
position = "{377, 0}";
},
{
name = top;
position = "{261, 1766}";
}
);
layerId = "DAAEA780-4710-4479-B303-5C05B40621B2";
name = Light;
paths = (
{
closed = 1;
nodes = (
"586 0 LINE",
"586 88 LINE",
"463 107 LINE SMOOTH",
"426 113 OFFCURVE",
"406 132 OFFCURVE",
"406 170 CURVE SMOOTH",
"406 1769 LINE",
"380 1797 LINE",
"277 1793 OFFCURVE",
"134 1776 OFFCURVE",
"31 1742 CURVE",
"31 1667 LINE",
"184 1645 LINE SMOOTH",
"220 1640 OFFCURVE",
"241 1620 OFFCURVE",
"241 1583 CURVE SMOOTH",
"241 169 LINE SMOOTH",
"241 132 OFFCURVE",
"221 113 OFFCURVE",
"184 107 CURVE SMOOTH",
"56 88 LINE",
"56 0 LINE"
);
},
{
closed = 1;
nodes = (
"1334 0 LINE",
"1334 88 LINE",
"1206 107 LINE SMOOTH",
"1170 112 OFFCURVE",
"1149 133 OFFCURVE",
"1149 170 CURVE SMOOTH",
"1149 723 LINE SMOOTH",
"1149 1002 OFFCURVE",
"1073 1164 OFFCURVE",
"808 1164 CURVE SMOOTH",
"649 1164 OFFCURVE",
"480 1115 OFFCURVE",
"358 949 CURVE",
"349 867 LINE",
"455 983 OFFCURVE",
"599 1036 OFFCURVE",
"748 1036 CURVE SMOOTH",
"940 1036 OFFCURVE",
"984 916 OFFCURVE",
"984 684 CURVE SMOOTH",
"984 170 LINE SMOOTH",
"984 130 OFFCURVE",
"959 112 OFFCURVE",
"927 107 CURVE SMOOTH",
"804 88 LINE",
"804 0 LINE"
);
}
);
width = 1374;
},
{
anchors = (
{
name = btm;
position = "{738, 0}";
},
{
name = top;
position = "{319, 1769}";
}
);
layerId = "925CB40E-795E-477B-BAE7-1EE7D58841B5";
name = Bold;
paths = (
{
closed = 1;
nodes = (
"669 0 LINE",
"669 142 LINE",
"601 163 LINE SMOOTH",
"571 173 OFFCURVE",
"557 188 OFFCURVE",
"557 220 CURVE SMOOTH",
"557 1753 LINE",
"508 1800 LINE",
"364 1801 OFFCURVE",
"164 1784 OFFCURVE",
"20 1746 CURVE",
"20 1605 LINE",
"150 1585 LINE SMOOTH",
"180 1580 OFFCURVE",
"196 1560 OFFCURVE",
"196 1529 CURVE SMOOTH",
"196 219 LINE SMOOTH",
"196 188 OFFCURVE",
"179 169 OFFCURVE",
"149 163 CURVE SMOOTH",
"41 143 LINE",
"41 0 LINE"
);
},
{
closed = 1;
nodes = (
"1416 0 LINE",
"1416 143 LINE",
"1307 163 LINE SMOOTH",
"1277 169 OFFCURVE",
"1261 188 OFFCURVE",
"1261 219 CURVE SMOOTH",
"1261 732 LINE SMOOTH",
"1261 1007 OFFCURVE",
"1180 1162 OFFCURVE",
"912 1162 CURVE SMOOTH",
"736 1162 OFFCURVE",
"594 1096 OFFCURVE",
"495 957 CURVE",
"494 855 LINE",
"564 918 OFFCURVE",
"652 949 OFFCURVE",
"728 949 CURVE SMOOTH",
"848 949 OFFCURVE",
"899 880 OFFCURVE",
"899 692 CURVE SMOOTH",
"899 219 LINE SMOOTH",
"899 188 OFFCURVE",
"884 173 OFFCURVE",
"854 163 CURVE SMOOTH",
"788 142 LINE",
"788 0 LINE"
);
}
);
width = 1449;
}
);
unicode = 0068;
},
{
glyphname = k;
lastChange = "2015-11-29 15:16:09 +0000";
layers = (
{
anchors = (
{
name = btm;
position = "{697, 0}";
},
{
name = top;
position = "{743, 1136}";
}
);
layerId = "DAAEA780-4710-4479-B303-5C05B40621B2";
name = Light;
paths = (
{
closed = 1;
nodes = (
"591 0 LINE",
"591 88 LINE",
"463 107 LINE SMOOTH",
"427 112 OFFCURVE",
"406 133 OFFCURVE",
"406 170 CURVE SMOOTH",
"406 1770 LINE",
"380 1797 LINE",
"273 1794 OFFCURVE",
"138 1775 OFFCURVE",
"31 1742 CURVE",
"31 1667 LINE",
"184 1645 LINE SMOOTH",
"221 1640 OFFCURVE",
"241 1620 OFFCURVE",
"241 1583 CURVE SMOOTH",
"241 171 LINE SMOOTH",
"241 134 OFFCURVE",
"221 112 OFFCURVE",
"185 107 CURVE SMOOTH",
"56 88 LINE",
"56 0 LINE"
);
},
{
closed = 1;
nodes = (
"1260 0 LINE",
"1260 88 LINE",
"1127 115 LINE SMOOTH",
"1100 121 OFFCURVE",
"1073 139 OFFCURVE",
"1049 178 CURVE SMOOTH",
"825 543 LINE SMOOTH",
"782 614 OFFCURVE",
"751 661 OFFCURVE",
"700 728 CURVE",
"589 618 LINE",
"632 555 OFFCURVE",
"672 478 OFFCURVE",
"724 385 CURVE SMOOTH",
"847 164 LINE SMOOTH",
"903 63 OFFCURVE",
"943 0 OFFCURVE",
"993 0 CURVE SMOOTH"
);
},
{
closed = 1;
nodes = (
"1006 989 LINE SMOOTH",
"1028 1012 OFFCURVE",
"1051 1020 OFFCURVE",
"1085 1027 CURVE SMOOTH",
"1206 1052 LINE",
"1206 1136 LINE",
"678 1136 LINE",
"678 1052 LINE",
"935 1013 LINE",
"915 1057 LINE",
"365 449 LINE",
"375 321 LINE"
);
}
);
width = 1271;
},
{
anchors = (
{
name = btm;
position = "{768, 0}";
},
{
name = top;
position = "{750, 1138}";
}
);
layerId = "925CB40E-795E-477B-BAE7-1EE7D58841B5";
name = Bold;
paths = (
{
closed = 1;
nodes = (
"704 0 LINE",
"704 143 LINE",
"601 163 LINE SMOOTH",
"571 169 OFFCURVE",
"555 189 OFFCURVE",
"555 220 CURVE SMOOTH",
"556 1755 LINE",
"508 1800 LINE",
"364 1799 OFFCURVE",
"165 1773 OFFCURVE",
"20 1736 CURVE",
"20 1595 LINE",
"150 1575 LINE SMOOTH",
"180 1570 OFFCURVE",
"196 1550 OFFCURVE",
"196 1519 CURVE SMOOTH",
"196 220 LINE SMOOTH",
"196 189 OFFCURVE",
"179 169 OFFCURVE",
"149 163 CURVE SMOOTH",
"41 143 LINE",
"41 0 LINE"
);
},
{
closed = 1;
nodes = (
"1396 0 LINE",
"1396 143 LINE",
"1289 172 LINE SMOOTH",
"1254 182 OFFCURVE",
"1238 192 OFFCURVE",
"1220 228 CURVE SMOOTH",
"1061 534 LINE SMOOTH",
"1001 652 OFFCURVE",
"955 724 OFFCURVE",
"883 792 CURVE",
"646 567 LINE",
"683 516 OFFCURVE",
"714 457 OFFCURVE",
"742 395 CURVE SMOOTH",
"830 196 LINE SMOOTH",
"875 92 OFFCURVE",
"913 0 OFFCURVE",
"982 0 CURVE SMOOTH"
);
},
{
closed = 1;
nodes = (
"1118 923 LINE SMOOTH",
"1150 954 OFFCURVE",
"1169 959 OFFCURVE",
"1223 972 CURVE SMOOTH",
"1340 1001 LINE",
"1340 1137 LINE",
"743 1137 LINE",
"743 1001 LINE",
"1005 954 LINE",
"1002 1048 LINE",
"489 506 LINE",
"507 325 LINE"
);
}
);
width = 1403;
}
);
unicode = 006B;
},
{
glyphname = l;
lastChange = "2015-11-29 15:16:09 +0000";
layers = (
{
anchors = (
{
name = btm;
position = "{319, 0}";
},
{
name = top;
position = "{292, 1781}";
},
{
name = topright;
position = "{413, 1136}";
}
);
layerId = "DAAEA780-4710-4479-B303-5C05B40621B2";
name = Light;
paths = (
{
closed = 1;
nodes = (
"411 1769 LINE",
"385 1797 LINE",
"280 1793 OFFCURVE",
"135 1776 OFFCURVE",
"30 1742 CURVE",
"30 1667 LINE",
"189 1645 LINE SMOOTH",
"225 1640 OFFCURVE",
"246 1620 OFFCURVE",
"246 1583 CURVE SMOOTH",
"246 169 LINE SMOOTH",
"246 132 OFFCURVE",
"226 112 OFFCURVE",
"189 107 CURVE SMOOTH",
"36 88 LINE",
"36 0 LINE",
"621 0 LINE",
"621 86 LINE",
"468 107 LINE SMOOTH",
"431 112 OFFCURVE",
"411 132 OFFCURVE",
"411 170 CURVE SMOOTH"
);
}
);
width = 657;
},
{
anchors = (
{
name = btm;
position = "{374, 0}";
},
{
name = top;
position = "{363, 1781}";
},
{
name = topright;
position = "{563, 1138}";
}
);
layerId = "925CB40E-795E-477B-BAE7-1EE7D58841B5";
name = Bold;
paths = (
{
closed = 1;
nodes = (
"564 1755 LINE",
"516 1800 LINE",
"372 1799 OFFCURVE",
"170 1773 OFFCURVE",
"26 1736 CURVE",
"26 1595 LINE",
"157 1575 LINE SMOOTH",
"187 1570 OFFCURVE",
"203 1550 OFFCURVE",
"203 1519 CURVE SMOOTH",
"203 219 LINE SMOOTH",
"203 188 OFFCURVE",
"186 168 OFFCURVE",
"156 163 CURVE SMOOTH",
"35 143 LINE",
"35 0 LINE",
"731 0 LINE",
"731 142 LINE",
"611 163 LINE SMOOTH",
"581 168 OFFCURVE",
"564 188 OFFCURVE",
"564 219 CURVE SMOOTH"
);
}
);
width = 766;
}
);
unicode = 006C;
},
{
glyphname = m;
lastChange = "2015-11-29 15:16:09 +0000";
layers = (
{
anchors = (
{
name = btm;
position = "{1041, 0}";
},
{
name = top;
position = "{1041, 1136}";
}
);
layerId = "DAAEA780-4710-4479-B303-5C05B40621B2";
name = Light;
paths = (
{
closed = 1;
nodes = (
"2037 0 LINE",
"2037 88 LINE",
"1909 107 LINE SMOOTH",
"1873 112 OFFCURVE",
"1852 133 OFFCURVE",
"1852 170 CURVE SMOOTH",
"1852 713 LINE SMOOTH",
"1852 1012 OFFCURVE",
"1772 1164 OFFCURVE",
"1499 1164 CURVE SMOOTH",
"1365 1164 OFFCURVE",
"1206 1127 OFFCURVE",
"1075 969 CURVE",
"1076 884 LINE",
"1187 996 OFFCURVE",
"1316 1036 OFFCURVE",
"1438 1036 CURVE SMOOTH",
"1639 1036 OFFCURVE",
"1687 926 OFFCURVE",
"1687 684 CURVE SMOOTH",
"1687 170 LINE SMOOTH",
"1687 130 OFFCURVE",
"1662 112 OFFCURVE",
"1630 107 CURVE SMOOTH",
"1507 88 LINE",
"1507 0 LINE"
);
},
{
closed = 1;
nodes = (
"614 0 LINE",
"614 88 LINE",
"490 107 LINE SMOOTH",
"454 113 OFFCURVE",
"434 133 OFFCURVE",
"434 171 CURVE SMOOTH",
"434 935 LINE",
"416 1129 LINE",
"385 1161 LINE",
"287 1159 OFFCURVE",
"167 1141 OFFCURVE",
"69 1109 CURVE",
"69 1027 LINE",
"214 1009 LINE SMOOTH",
"250 1005 OFFCURVE",
"269 982 OFFCURVE",
"269 945 CURVE SMOOTH",
"269 171 LINE SMOOTH",
"269 134 OFFCURVE",
"249 112 OFFCURVE",
"213 107 CURVE SMOOTH",
"84 88 LINE",
"84 0 LINE"
);
},
{
closed = 1;
nodes = (
"1323 0 LINE",
"1323 88 LINE",
"1200 107 LINE SMOOTH",
"1164 113 OFFCURVE",
"1143 133 OFFCURVE",
"1143 170 CURVE SMOOTH",
"1143 723 LINE SMOOTH",
"1143 1002 OFFCURVE",
"1073 1164 OFFCURVE",
"808 1164 CURVE SMOOTH",
"662 1164 OFFCURVE",
"495 1115 OFFCURVE",
"386 949 CURVE",
"377 871 LINE",
"469 983 OFFCURVE",
"630 1036 OFFCURVE",
"758 1036 CURVE SMOOTH",
"950 1036 OFFCURVE",
"978 916 OFFCURVE",
"978 684 CURVE SMOOTH",
"978 170 LINE SMOOTH",
"978 130 OFFCURVE",
"953 112 OFFCURVE",
"921 107 CURVE SMOOTH",
"798 88 LINE",
"798 0 LINE"
);
}
);
width = 2077;
},
{
anchors = (
{
name = btm;
position = "{1084, 0}";
},
{
name = top;
position = "{1084, 1138}";
}
);
layerId = "925CB40E-795E-477B-BAE7-1EE7D58841B5";
name = Bold;
paths = (
{
closed = 1;
nodes = (
"2119 0 LINE",
"2119 142 LINE",
"2009 163 LINE SMOOTH",
"1979 169 OFFCURVE",
"1963 188 OFFCURVE",
"1963 219 CURVE SMOOTH",
"1963 722 LINE SMOOTH",
"1963 1001 OFFCURVE",
"1886 1162 OFFCURVE",
"1614 1162 CURVE SMOOTH",
"1441 1162 OFFCURVE",
"1295 1101 OFFCURVE",
"1195 966 CURVE",
"1199 856 LINE",
"1274 921 OFFCURVE",
"1357 949 OFFCURVE",
"1428 949 CURVE SMOOTH",
"1550 949 OFFCURVE",
"1602 873 OFFCURVE",
"1602 683 CURVE SMOOTH",
"1602 219 LINE SMOOTH",
"1602 188 OFFCURVE",
"1587 173 OFFCURVE",
"1557 163 CURVE SMOOTH",
"1495 142 LINE",
"1495 0 LINE"
);
},
{
closed = 1;
nodes = (
"695 0 LINE",
"695 142 LINE",
"628 163 LINE SMOOTH",
"600 173 OFFCURVE",
"587 188 OFFCURVE",
"587 219 CURVE SMOOTH",
"587 913 LINE",
"549 1121 LINE",
"498 1166 LINE",
"362 1164 OFFCURVE",
"201 1145 OFFCURVE",
"60 1108 CURVE",
"60 960 LINE",
"182 935 LINE SMOOTH",
"211 929 OFFCURVE",
"226 907 OFFCURVE",
"226 877 CURVE SMOOTH",
"226 219 LINE SMOOTH",
"226 188 OFFCURVE",
"209 169 OFFCURVE",
"180 163 CURVE SMOOTH",
"71 142 LINE",
"71 0 LINE"
);
},
{
closed = 1;
nodes = (
"1383 0 LINE",
"1383 142 LINE",
"1319 163 LINE SMOOTH",
"1289 174 OFFCURVE",
"1275 188 OFFCURVE",
"1275 219 CURVE SMOOTH",
"1275 732 LINE SMOOTH",
"1275 1007 OFFCURVE",
"1196 1162 OFFCURVE",
"927 1162 CURVE SMOOTH",
"753 1162 OFFCURVE",
"612 1096 OFFCURVE",
"523 957 CURVE",
"522 857 LINE",
"582 918 OFFCURVE",
"672 949 OFFCURVE",
"745 949 CURVE SMOOTH",
"864 949 OFFCURVE",
"914 880 OFFCURVE",
"914 692 CURVE SMOOTH",
"914 219 LINE SMOOTH",
"914 188 OFFCURVE",
"899 173 OFFCURVE",
"869 163 CURVE SMOOTH",
"806 142 LINE",
"806 0 LINE"
);
}
);
width = 2152;
}
);
unicode = 006D;
},
{
glyphname = n;
lastChange = "2015-11-29 15:16:09 +0000";
layers = (
{
anchors = (
{
name = apostrophe;
position = "{69, 1136}";
},
{
name = btm;
position = "{723, 0}";
},
{
name = top;
position = "{707, 1136}";
}
);
layerId = "DAAEA780-4710-4479-B303-5C05B40621B2";
name = Light;
paths = (
{
closed = 1;
nodes = (
"1361 0 LINE",
"1361 88 LINE",
"1233 107 LINE SMOOTH",
"1197 112 OFFCURVE",
"1176 133 OFFCURVE",
"1176 170 CURVE SMOOTH",
"1176 723 LINE SMOOTH",
"1176 1002 OFFCURVE",
"1100 1164 OFFCURVE",
"835 1164 CURVE SMOOTH",
"676 1164 OFFCURVE",
"507 1115 OFFCURVE",
"385 949 CURVE",
"376 867 LINE",
"482 981 OFFCURVE",
"624 1036 OFFCURVE",
"775 1036 CURVE SMOOTH",
"967 1036 OFFCURVE",
"1011 916 OFFCURVE",
"1011 684 CURVE SMOOTH",
"1011 170 LINE SMOOTH",
"1011 130 OFFCURVE",
"986 112 OFFCURVE",
"954 107 CURVE SMOOTH",
"831 88 LINE",
"831 0 LINE"
);
},
{
closed = 1;
nodes = (
"614 0 LINE",
"614 88 LINE",
"490 107 LINE SMOOTH",
"454 113 OFFCURVE",
"434 134 OFFCURVE",
"434 171 CURVE SMOOTH",
"434 935 LINE",
"416 1129 LINE",
"385 1161 LINE",
"287 1159 OFFCURVE",
"167 1141 OFFCURVE",
"69 1109 CURVE",
"69 1027 LINE",
"214 1009 LINE SMOOTH",
"250 1005 OFFCURVE",
"269 982 OFFCURVE",
"269 945 CURVE SMOOTH",
"269 171 LINE SMOOTH",
"269 134 OFFCURVE",
"249 112 OFFCURVE",
"212 107 CURVE SMOOTH",
"84 88 LINE",
"84 0 LINE"
);
}
);
width = 1401;
},
{
anchors = (
{
name = apostrophe;
position = "{60, 1138}";
},
{
name = btm;
position = "{758, 0}";
},
{
name = top;
position = "{744, 1138}";
}
);
layerId = "925CB40E-795E-477B-BAE7-1EE7D58841B5";
name = Bold;
paths = (
{
closed = 1;
nodes = (
"1446 0 LINE",
"1446 143 LINE",
"1337 163 LINE SMOOTH",
"1307 169 OFFCURVE",
"1291 188 OFFCURVE",
"1291 219 CURVE SMOOTH",
"1291 732 LINE SMOOTH",
"1291 1007 OFFCURVE",
"1210 1162 OFFCURVE",
"942 1162 CURVE SMOOTH",
"766 1162 OFFCURVE",
"624 1096 OFFCURVE",
"525 957 CURVE",
"524 855 LINE",
"594 918 OFFCURVE",
"681 949 OFFCURVE",
"758 949 CURVE SMOOTH",
"878 949 OFFCURVE",
"929 880 OFFCURVE",
"929 692 CURVE SMOOTH",
"929 219 LINE SMOOTH",
"929 188 OFFCURVE",
"914 173 OFFCURVE",
"884 163 CURVE SMOOTH",
"818 142 LINE",
"818 0 LINE"
);
},
{
closed = 1;
nodes = (
"699 0 LINE",
"699 142 LINE",
"631 163 LINE SMOOTH",
"603 172 OFFCURVE",
"587 188 OFFCURVE",
"587 219 CURVE SMOOTH",
"587 913 LINE",
"549 1121 LINE",
"498 1166 LINE",
"362 1164 OFFCURVE",
"201 1145 OFFCURVE",
"60 1108 CURVE",
"60 960 LINE",
"182 936 LINE SMOOTH",
"211 930 OFFCURVE",
"226 908 OFFCURVE",
"226 878 CURVE SMOOTH",
"226 219 LINE SMOOTH",
"226 188 OFFCURVE",
"209 169 OFFCURVE",
"180 163 CURVE SMOOTH",
"71 142 LINE",
"71 0 LINE"
);
}
);
width = 1479;
}
);
unicode = 006E;
},
{
glyphname = o;
lastChange = "2015-11-29 15:16:09 +0000";
layers = (
{
anchors = (
{
name = btm;
position = "{619, 0}";
},
{
name = top;
position = "{619, 1136}";
}
);
layerId = "DAAEA780-4710-4479-B303-5C05B40621B2";
name = Light;
paths = (
{
closed = 1;
nodes = (
"949 559 CURVE SMOOTH",
"949 229 OFFCURVE",
"847 79 OFFCURVE",
"628 79 CURVE SMOOTH",
"365 79 OFFCURVE",
"288 298 OFFCURVE",
"288 586 CURVE SMOOTH",
"288 917 OFFCURVE",
"391 1066 OFFCURVE",
"610 1066 CURVE SMOOTH",
"871 1066 OFFCURVE",
"949 850 OFFCURVE"
);
},
{
closed = 1;
nodes = (
"103 567 CURVE SMOOTH",
"103 227 OFFCURVE",
"240 -23 OFFCURVE",
"599 -23 CURVE SMOOTH",
"892 -23 OFFCURVE",
"1135 164 OFFCURVE",
"1135 576 CURVE SMOOTH",
"1135 917 OFFCURVE",
"997 1168 OFFCURVE",
"638 1168 CURVE SMOOTH",
"346 1168 OFFCURVE",
"103 981 OFFCURVE"
);
}
);
width = 1238;
},
{
anchors = (
{
name = btm;
position = "{649, 0}";
},
{
name = top;
position = "{649, 1138}";
}
);
layerId = "925CB40E-795E-477B-BAE7-1EE7D58841B5";
name = Bold;
paths = (
{
closed = 1;
nodes = (
"834 556 CURVE SMOOTH",
"834 232 OFFCURVE",
"774 124 OFFCURVE",
"653 124 CURVE SMOOTH",
"505 124 OFFCURVE",
"462 248 OFFCURVE",
"462 585 CURVE SMOOTH",
"462 910 OFFCURVE",
"522 1017 OFFCURVE",
"644 1017 CURVE SMOOTH",
"790 1017 OFFCURVE",
"834 894 OFFCURVE"
);
},
{
closed = 1;
nodes = (
"72 558 CURVE SMOOTH",
"72 159 OFFCURVE",
"282 -26 OFFCURVE",
"632 -26 CURVE SMOOTH",
"969 -26 OFFCURVE",
"1224 133 OFFCURVE",
"1224 583 CURVE SMOOTH",
"1224 984 OFFCURVE",
"1016 1168 OFFCURVE",
"664 1168 CURVE SMOOTH",
"328 1168 OFFCURVE",
"72 1006 OFFCURVE"
);
}
);
width = 1297;
}
);
unicode = 006F;
},
{
glyphname = p;
lastChange = "2015-11-29 15:16:09 +0000";
layers = (
{
anchors = (
{
name = btm;
position = "{691, 0}";
},
{
name = top;
position = "{742, 1136}";
}
);
layerId = "DAAEA780-4710-4479-B303-5C05B40621B2";
name = Light;
paths = (
{
closed = 1;
nodes = (
"1208 624 CURVE SMOOTH",
"1208 1007 OFFCURVE",
"1015 1168 OFFCURVE",
"758 1168 CURVE SMOOTH",
"561 1168 OFFCURVE",
"446 1074 OFFCURVE",
"374 965 CURVE",
"400 917 LINE",
"460 980 OFFCURVE",
"558 1042 OFFCURVE",
"699 1042 CURVE SMOOTH",
"928 1042 OFFCURVE",
"1033 879 OFFCURVE",
"1029 571 CURVE SMOOTH",
"1024 212 OFFCURVE",
"875 81 OFFCURVE",
"644 81 CURVE SMOOTH",
"526 81 OFFCURVE",
"432 115 OFFCURVE",
"389 154 CURVE",
"361 35 LINE",
"430 -8 OFFCURVE",
"548 -23 OFFCURVE",
"637 -23 CURVE SMOOTH",
"998 -23 OFFCURVE",
"1208 225 OFFCURVE"
);
},
{
closed = 1;
nodes = (
"410 957 LINE",
"392 1129 LINE",
"361 1161 LINE",
"256 1159 OFFCURVE",
"150 1141 OFFCURVE",
"45 1109 CURVE",
"45 1027 LINE",
"192 1009 LINE SMOOTH",
"227 1005 OFFCURVE",
"245 980 OFFCURVE",
"245 944 CURVE SMOOTH",
"245 -326 LINE SMOOTH",
"245 -363 OFFCURVE",
"226 -384 OFFCURVE",
"189 -389 CURVE SMOOTH",
"60 -408 LINE",
"60 -496 LINE",
"637 -496 LINE",
"637 -408 LINE",
"467 -389 LINE SMOOTH",
"430 -385 OFFCURVE",
"410 -364 OFFCURVE",
"410 -327 CURVE SMOOTH"
);
}
);
width = 1311;
},
{
anchors = (
{
name = btm;
position = "{655, 0}";
},
{
name = top;
position = "{707, 1138}";
}
);
layerId = "925CB40E-795E-477B-BAE7-1EE7D58841B5";
name = Bold;
paths = (
{
closed = 1;
nodes = (
"1300 624 CURVE SMOOTH",
"1300 999 OFFCURVE",
"1117 1168 OFFCURVE",
"875 1168 CURVE SMOOTH",
"695 1168 OFFCURVE",
"574 1077 OFFCURVE",
"493 950 CURVE",
"522 887 LINE",
"552 922 OFFCURVE",
"628 956 OFFCURVE",
"713 956 CURVE SMOOTH",
"855 956 OFFCURVE",
"921 848 OFFCURVE",
"919 568 CURVE SMOOTH",
"917 225 OFFCURVE",
"824 117 OFFCURVE",
"682 117 CURVE SMOOTH",
"619 117 OFFCURVE",
"555 130 OFFCURVE",
"511 181 CURVE",
"494 2 LINE",
"561 -16 OFFCURVE",
"627 -23 OFFCURVE",
"683 -23 CURVE SMOOTH",
"1059 -23 OFFCURVE",
"1300 202 OFFCURVE"
);
},
{
closed = 1;
nodes = (
"565 934 LINE",
"527 1121 LINE",
"476 1166 LINE",
"345 1166 OFFCURVE",
"169 1141 OFFCURVE",
"38 1108 CURVE",
"38 960 LINE",
"162 935 LINE SMOOTH",
"190 929 OFFCURVE",
"204 907 OFFCURVE",
"204 877 CURVE SMOOTH",
"204 -276 LINE SMOOTH",
"204 -307 OFFCURVE",
"188 -327 OFFCURVE",
"158 -333 CURVE SMOOTH",
"49 -354 LINE",
"49 -496 LINE",
"768 -496 LINE",
"768 -354 LINE",
"613 -333 LINE SMOOTH",
"582 -329 OFFCURVE",
"565 -308 OFFCURVE",
"565 -277 CURVE SMOOTH"
);
}
);
width = 1372;
}
);
unicode = 0070;
},
{
glyphname = q;
lastChange = "2015-11-29 15:16:09 +0000";
layers = (
{
anchors = (
{
name = btm;
position = "{633, 0}";
},
{
name = top;
position = "{610, 1136}";
}
);
layerId = "DAAEA780-4710-4479-B303-5C05B40621B2";
name = Light;
paths = (
{
closed = 1;
nodes = (
"560 -23 CURVE SMOOTH",
"742 -23 OFFCURVE",
"880 84 OFFCURVE",
"952 190 CURVE",
"924 236 LINE",
"843 159 OFFCURVE",
"741 106 OFFCURVE",
"617 106 CURVE SMOOTH",
"442 106 OFFCURVE",
"284 202 OFFCURVE",
"284 572 CURVE SMOOTH",
"284 945 OFFCURVE",
"456 1065 OFFCURVE",
"670 1065 CURVE SMOOTH",
"776 1065 OFFCURVE",
"882 1030 OFFCURVE",
"935 958 CURVE",
"1003 1073 LINE",
"931 1125 OFFCURVE",
"806 1168 OFFCURVE",
"672 1168 CURVE SMOOTH",
"347 1168 OFFCURVE",
"103 955 OFFCURVE",
"103 540 CURVE SMOOTH",
"103 139 OFFCURVE",
"309 -23 OFFCURVE"
);
},
{
closed = 1;
nodes = (
"1067 1132 LINE",
"1032 1162 LINE",
"902 1089 LINE",
"902 -327 LINE SMOOTH",
"902 -364 OFFCURVE",
"882 -385 OFFCURVE",
"845 -389 CURVE SMOOTH",
"675 -408 LINE",
"675 -496 LINE",
"1211 -496 LINE",
"1211 -408 LINE",
"1123 -391 LINE SMOOTH",
"1088 -384 OFFCURVE",
"1067 -364 OFFCURVE",
"1067 -327 CURVE SMOOTH"
);
}
);
width = 1258;
},
{
anchors = (
{
name = btm;
position = "{642, 0}";
},
{
name = top;
position = "{619, 1138}";
}
);
layerId = "925CB40E-795E-477B-BAE7-1EE7D58841B5";
name = Bold;
paths = (
{
closed = 1;
nodes = (
"525 -23 CURVE SMOOTH",
"707 -23 OFFCURVE",
"825 70 OFFCURVE",
"890 205 CURVE",
"852 246 LINE",
"803 202 OFFCURVE",
"726 173 OFFCURVE",
"651 173 CURVE SMOOTH",
"521 173 OFFCURVE",
"453 286 OFFCURVE",
"454 591 CURVE SMOOTH",
"455 894 OFFCURVE",
"541 1014 OFFCURVE",
"681 1014 CURVE SMOOTH",
"758 1014 OFFCURVE",
"809 990 OFFCURVE",
"843 937 CURVE",
"1045 1049 LINE",
"954 1116 OFFCURVE",
"797 1168 OFFCURVE",
"656 1168 CURVE SMOOTH",
"284 1168 OFFCURVE",
"73 928 OFFCURVE",
"73 537 CURVE SMOOTH",
"73 147 OFFCURVE",
"262 -23 OFFCURVE"
);
},
{
closed = 1;
nodes = (
"1173 1113 LINE",
"1117 1158 LINE",
"811 1031 LINE",
"811 -278 LINE SMOOTH",
"811 -310 OFFCURVE",
"794 -329 OFFCURVE",
"763 -333 CURVE SMOOTH",
"593 -354 LINE",
"593 -496 LINE",
"1314 -496 LINE",
"1314 -354 LINE",
"1220 -333 LINE SMOOTH",
"1190 -326 OFFCURVE",
"1173 -309 OFFCURVE",
"1173 -277 CURVE SMOOTH"
);
}
);
width = 1327;
}
);
unicode = 0071;
},
{
glyphname = r;
lastChange = "2015-11-29 15:16:09 +0000";
layers = (
{
anchors = (
{
name = btm;
position = "{373, 0}";
},
{
name = top;
position = "{554, 1136}";
}
);
layerId = "DAAEA780-4710-4479-B303-5C05B40621B2";
name = Light;
paths = (
{
closed = 1;
nodes = (
"399 826 LINE",
"496 951 OFFCURVE",
"625 1006 OFFCURVE",
"749 1006 CURVE SMOOTH",
"788 1006 OFFCURVE",
"806 989 OFFCURVE",
"813 947 CURVE SMOOTH",
"840 779 LINE",
"927 779 LINE",
"948 885 OFFCURVE",
"958 1032 OFFCURVE",
"950 1142 CURVE",
"916 1159 OFFCURVE",
"861 1168 OFFCURVE",
"822 1168 CURVE SMOOTH",
"642 1168 OFFCURVE",
"453 1010 OFFCURVE",
"394 904 CURVE"
);
},
{
closed = 1;
nodes = (
"413 1133 LINE",
"386 1161 LINE",
"289 1159 OFFCURVE",
"167 1139 OFFCURVE",
"69 1109 CURVE",
"69 1027 LINE",
"212 1009 LINE SMOOTH",
"254 1004 OFFCURVE",
"269 981 OFFCURVE",
"269 938 CURVE SMOOTH",
"269 170 LINE SMOOTH",
"269 133 OFFCURVE",
"249 113 OFFCURVE",
"212 107 CURVE SMOOTH",
"84 88 LINE",
"84 0 LINE",
"706 0 LINE",
"706 84 LINE",
"493 107 LINE SMOOTH",
"455 111 OFFCURVE",
"434 132 OFFCURVE",
"434 170 CURVE SMOOTH",
"434 902 LINE"
);
}
);
width = 1014;
},
{
anchors = (
{
name = btm;
position = "{434, 0}";
},
{
name = top;
position = "{595, 1138}";
}
);
layerId = "925CB40E-795E-477B-BAE7-1EE7D58841B5";
name = Bold;
paths = (
{
closed = 1;
nodes = (
"542 758 LINE",
"615 843 OFFCURVE",
"702 872 OFFCURVE",
"762 871 CURVE SMOOTH",
"806 870 OFFCURVE",
"827 861 OFFCURVE",
"843 811 CURVE SMOOTH",
"878 695 LINE",
"1036 695 LINE",
"1070 844 OFFCURVE",
"1080 1021 OFFCURVE",
"1065 1136 CURVE",
"1031 1153 OFFCURVE",
"951 1168 OFFCURVE",
"906 1168 CURVE SMOOTH",
"748 1168 OFFCURVE",
"603 1029 OFFCURVE",
"509 807 CURVE"
);
},
{
closed = 1;
nodes = (
"530 1122 LINE",
"474 1166 LINE",
"346 1164 OFFCURVE",
"188 1145 OFFCURVE",
"60 1108 CURVE",
"60 960 LINE",
"182 936 LINE SMOOTH",
"212 930 OFFCURVE",
"226 908 OFFCURVE",
"226 877 CURVE SMOOTH",
"226 219 LINE SMOOTH",
"226 188 OFFCURVE",
"209 169 OFFCURVE",
"179 163 CURVE SMOOTH",
"71 143 LINE",
"71 0 LINE",
"805 0 LINE",
"805 142 LINE",
"636 163 LINE SMOOTH",
"604 167 OFFCURVE",
"587 187 OFFCURVE",
"587 219 CURVE SMOOTH",
"587 814 LINE"
);
}
);
width = 1110;
}
);
unicode = 0072;
},
{
glyphname = s;
lastChange = "2015-11-29 15:16:09 +0000";
layers = (
{
anchors = (
{
name = btm;
position = "{480, 0}";
},
{
name = top;
position = "{522, 1136}";
}
);
layerId = "DAAEA780-4710-4479-B303-5C05B40621B2";
name = Light;
paths = (
{
closed = 1;
nodes = (
"118 64 CURVE",
"198 25 OFFCURVE",
"334 -23 OFFCURVE",
"490 -23 CURVE SMOOTH",
"744 -23 OFFCURVE",
"914 98 OFFCURVE",
"914 304 CURVE SMOOTH",
"914 512 OFFCURVE",
"739 595 OFFCURVE",
"558 662 CURVE SMOOTH",
"424 712 OFFCURVE",
"287 750 OFFCURVE",
"287 897 CURVE SMOOTH",
"287 1022 OFFCURVE",
"385 1077 OFFCURVE",
"510 1074 CURVE SMOOTH",
"582 1072 OFFCURVE",
"632 1052 OFFCURVE",
"660 1036 CURVE SMOOTH",
"697 1015 OFFCURVE",
"710 990 OFFCURVE",
"718 953 CURVE SMOOTH",
"748 818 LINE",
"836 818 LINE",
"853 912 OFFCURVE",
"859 1007 OFFCURVE",
"856 1105 CURVE",
"781 1139 OFFCURVE",
"650 1168 OFFCURVE",
"538 1168 CURVE SMOOTH",
"315 1168 OFFCURVE",
"134 1066 OFFCURVE",
"134 847 CURVE SMOOTH",
"134 660 OFFCURVE",
"265 589 OFFCURVE",
"450 517 CURVE SMOOTH",
"659 436 OFFCURVE",
"761 396 OFFCURVE",
"761 262 CURVE SMOOTH",
"761 143 OFFCURVE",
"682 72 OFFCURVE",
"527 72 CURVE SMOOTH",
"423 72 OFFCURVE",
"340 105 OFFCURVE",
"303 128 CURVE SMOOTH",
"273 147 OFFCURVE",
"262 166 OFFCURVE",
"251 212 CURVE SMOOTH",
"214 364 LINE",
"121 364 LINE",
"109 277 OFFCURVE",
"105 172 OFFCURVE"
);
}
);
width = 1013;
},
{
anchors = (
{
name = btm;
position = "{519, 0}";
},
{
name = top;
position = "{559, 1138}";
}
);
layerId = "925CB40E-795E-477B-BAE7-1EE7D58841B5";
name = Bold;
paths = (
{
closed = 1;
nodes = (
"96 54 CURVE",
"207 10 OFFCURVE",
"362 -32 OFFCURVE",
"534 -32 CURVE SMOOTH",
"822 -32 OFFCURVE",
"1036 85 OFFCURVE",
"1036 323 CURVE SMOOTH",
"1036 538 OFFCURVE",
"863 623 OFFCURVE",
"669 707 CURVE SMOOTH",
"540 763 OFFCURVE",
"426 804 OFFCURVE",
"426 907 CURVE SMOOTH",
"426 984 OFFCURVE",
"485 1030 OFFCURVE",
"572 1030 CURVE SMOOTH",
"613 1029 OFFCURVE",
"652 1021 OFFCURVE",
"686 999 CURVE SMOOTH",
"713 981 OFFCURVE",
"724 965 OFFCURVE",
"737 926 CURVE SMOOTH",
"781 787 LINE",
"949 786 LINE",
"968 886 OFFCURVE",
"974 1001 OFFCURVE",
"965 1098 CURVE",
"860 1139 OFFCURVE",
"702 1166 OFFCURVE",
"571 1166 CURVE SMOOTH",
"242 1166 OFFCURVE",
"91 1021 OFFCURVE",
"91 815 CURVE SMOOTH",
"91 639 OFFCURVE",
"204 551 OFFCURVE",
"370 470 CURVE SMOOTH",
"542 386 OFFCURVE",
"676 346 OFFCURVE",
"676 238 CURVE SMOOTH",
"676 169 OFFCURVE",
"622 108 OFFCURVE",
"522 108 CURVE SMOOTH",
"454 108 OFFCURVE",
"399 135 OFFCURVE",
"371 155 CURVE SMOOTH",
"345 174 OFFCURVE",
"337 192 OFFCURVE",
"325 234 CURVE SMOOTH",
"282 382 LINE",
"102 382 LINE",
"87 280 OFFCURVE",
"82 161 OFFCURVE"
);
}
);
width = 1102;
}
);
unicode = 0073;
},
{
glyphname = t;
lastChange = "2015-11-29 15:16:09 +0000";
layers = (
{
anchors = (
{
name = btm;
position = "{466, 0}";
},
{
name = topright;
position = "{394, 1138}";
}
);
layerId = "DAAEA780-4710-4479-B303-5C05B40621B2";
name = Light;
paths = (
{
closed = 1;
nodes = (
"228 266 LINE SMOOTH",
"228 35 OFFCURVE",
"374 -23 OFFCURVE",
"524 -23 CURVE SMOOTH",
"665 -23 OFFCURVE",
"792 42 OFFCURVE",
"850 157 CURVE",
"790 207 LINE",
"739 146 OFFCURVE",
"664 109 OFFCURVE",
"568 109 CURVE SMOOTH",
"462 109 OFFCURVE",
"394 152 OFFCURVE",
"394 333 CURVE SMOOTH",
"394 1015 LINE",
"788 1015 LINE",
"788 1136 LINE",
"394 1136 LINE",
"394 1468 LINE",
"295 1468 LINE",
"237 1181 LINE SMOOTH",
"230 1147 OFFCURVE",
"212 1128 OFFCURVE",
"176 1124 CURVE SMOOTH",
"48 1109 LINE",
"48 1026 LINE",
"228 1006 LINE"
);
}
);
width = 866;
},
{
anchors = (
{
name = btm;
position = "{481, 0}";
},
{
name = topright;
position = "{549, 1138}";
}
);
layerId = "925CB40E-795E-477B-BAE7-1EE7D58841B5";
name = Bold;
paths = (
{
closed = 1;
nodes = (
"192 335 LINE SMOOTH",
"192 62 OFFCURVE",
"319 -17 OFFCURVE",
"526 -17 CURVE SMOOTH",
"711 -17 OFFCURVE",
"862 51 OFFCURVE",
"931 201 CURVE",
"860 279 LINE",
"808 234 OFFCURVE",
"742 217 OFFCURVE",
"690 217 CURVE SMOOTH",
"600 217 OFFCURVE",
"554 263 OFFCURVE",
"554 416 CURVE SMOOTH",
"554 943 LINE",
"863 943 LINE",
"863 1138 LINE",
"551 1138 LINE",
"538 1506 LINE",
"337 1506 LINE",
"226 1189 LINE SMOOTH",
"214 1155 OFFCURVE",
"199 1140 OFFCURVE",
"163 1133 CURVE SMOOTH",
"38 1107 LINE",
"38 966 LINE",
"192 938 LINE"
);
}
);
width = 931;
}
);
unicode = 0074;
},
{
glyphname = u;
lastChange = "2015-11-29 15:16:09 +0000";
layers = (
{
anchors = (
{
name = btm;
position = "{689, 0}";
},
{
name = top;
position = "{618, 1136}";
}
);
layerId = "DAAEA780-4710-4479-B303-5C05B40621B2";
name = Light;
paths = (
{
closed = 1;
nodes = (
"981 180 CURVE",
"961 245 LINE",
"867 147 OFFCURVE",
"754 103 OFFCURVE",
"629 103 CURVE SMOOTH",
"440 103 OFFCURVE",
"391 212 OFFCURVE",
"391 436 CURVE SMOOTH",
"391 1133 LINE",
"365 1161 LINE",
"264 1157 OFFCURVE",
"142 1144 OFFCURVE",
"41 1113 CURVE",
"41 1031 LINE",
"171 1011 LINE SMOOTH",
"209 1005 OFFCURVE",
"226 983 OFFCURVE",
"226 947 CURVE SMOOTH",
"226 402 LINE SMOOTH",
"226 116 OFFCURVE",
"327 -23 OFFCURVE",
"582 -23 CURVE SMOOTH",
"762 -23 OFFCURVE",
"884 69 OFFCURVE"
);
},
{
closed = 1;
nodes = (
"1280 19 CURVE",
"1280 100 LINE",
"1160 110 LINE SMOOTH",
"1125 113 OFFCURVE",
"1100 127 OFFCURVE",
"1100 176 CURVE SMOOTH",
"1100 1133 LINE",
"1074 1161 LINE",
"969 1161 OFFCURVE",
"824 1143 OFFCURVE",
"719 1116 CURVE",
"719 1034 LINE",
"880 1011 LINE SMOOTH",
"916 1006 OFFCURVE",
"935 984 OFFCURVE",
"935 947 CURVE SMOOTH",
"935 172 LINE",
"943 74 OFFCURVE",
"985 -16 OFFCURVE",
"1103 -16 CURVE SMOOTH",
"1159 -16 OFFCURVE",
"1237 3 OFFCURVE"
);
}
);
width = 1337;
},
{
anchors = (
{
name = btm;
position = "{749, 0}";
},
{
name = top;
position = "{693, 1138}";
}
);
layerId = "925CB40E-795E-477B-BAE7-1EE7D58841B5";
name = Bold;
paths = (
{
closed = 1;
nodes = (
"966 190 CURVE",
"926 255 LINE",
"859 204 OFFCURVE",
"786 174 OFFCURVE",
"713 174 CURVE SMOOTH",
"603 174 OFFCURVE",
"553 227 OFFCURVE",
"553 417 CURVE SMOOTH",
"553 1121 LINE",
"505 1165 LINE",
"366 1166 OFFCURVE",
"180 1147 OFFCURVE",
"41 1114 CURVE",
"41 966 LINE",
"148 939 LINE SMOOTH",
"178 932 OFFCURVE",
"192 911 OFFCURVE",
"192 881 CURVE SMOOTH",
"192 370 LINE SMOOTH",
"192 101 OFFCURVE",
"311 -23 OFFCURVE",
"550 -23 CURVE SMOOTH",
"760 -23 OFFCURVE",
"870 52 OFFCURVE"
);
},
{
closed = 1;
nodes = (
"1387 20 CURVE",
"1387 155 LINE",
"1289 167 LINE SMOOTH",
"1256 171 OFFCURVE",
"1237 185 OFFCURVE",
"1237 228 CURVE SMOOTH",
"1237 1121 LINE",
"1189 1165 LINE",
"1048 1165 OFFCURVE",
"859 1149 OFFCURVE",
"718 1116 CURVE",
"718 968 LINE",
"832 941 LINE SMOOTH",
"861 934 OFFCURVE",
"876 912 OFFCURVE",
"876 882 CURVE SMOOTH",
"876 202 LINE",
"907 51 OFFCURVE",
"995 -19 OFFCURVE",
"1145 -19 CURVE SMOOTH",
"1232 -19 OFFCURVE",
"1339 5 OFFCURVE"
);
}
);
width = 1429;
}
);
unicode = 0075;
},
{
glyphname = v;
lastChange = "2015-11-29 15:16:09 +0000";
layers = (
{
anchors = (
{
name = btm;
position = "{594, 0}";
},
{
name = top;
position = "{594, 1136}";
}
);
layerId = "DAAEA780-4710-4479-B303-5C05B40621B2";
name = Light;
paths = (
{
closed = 1;
nodes = (
"564 -17 LINE",
"672 -17 LINE",
"1034 978 LINE SMOOTH",
"1045 1008 OFFCURVE",
"1065 1024 OFFCURVE",
"1096 1032 CURVE SMOOTH",
"1171 1052 LINE",
"1171 1136 LINE",
"743 1136 LINE",
"743 1052 LINE",
"923 1022 LINE"
);
},
{
closed = 1;
nodes = (
"667 58 LINE",
"314 1023 LINE",
"497 1052 LINE",
"497 1136 LINE",
"2 1136 LINE",
"2 1052 LINE",
"77 1031 LINE SMOOTH",
"108 1022 OFFCURVE",
"127 1005 OFFCURVE",
"138 976 CURVE SMOOTH",
"526 -17 LINE",
"636 -17 LINE"
);
}
);
width = 1183;
},
{
anchors = (
{
name = btm;
position = "{616, 0}";
},
{
name = top;
position = "{616, 1138}";
}
);
layerId = "925CB40E-795E-477B-BAE7-1EE7D58841B5";
name = Bold;
paths = (
{
closed = 1;
nodes = (
"641 -16 LINE",
"808 -16 LINE",
"1143 927 LINE SMOOTH",
"1153 953 OFFCURVE",
"1171 965 OFFCURVE",
"1197 973 CURVE SMOOTH",
"1272 996 LINE",
"1272 1138 LINE",
"821 1138 LINE",
"821 994 LINE",
"964 963 LINE"
);
},
{
closed = 1;
nodes = (
"789 127 LINE",
"510 963 LINE",
"656 994 LINE",
"656 1138 LINE",
"-4 1138 LINE",
"-4 996 LINE",
"71 973 LINE SMOOTH",
"96 965 OFFCURVE",
"112 951 OFFCURVE",
"123 926 CURVE SMOOTH",
"494 -16 LINE",
"739 -16 LINE"
);
}
);
width = 1281;
}
);
unicode = 0076;
},
{
glyphname = w;
lastChange = "2015-11-29 15:16:09 +0000";
layers = (
{
anchors = (
{
name = btm;
position = "{880, 0}";
},
{
name = top;
position = "{897, 1136}";
}
);
layerId = "DAAEA780-4710-4479-B303-5C05B40621B2";
name = Light;
paths = (
{
closed = 1;
nodes = (
"1204 -17 LINE",
"1310 -17 LINE",
"1614 979 LINE SMOOTH",
"1623 1010 OFFCURVE",
"1643 1027 OFFCURVE",
"1675 1035 CURVE SMOOTH",
"1741 1052 LINE",
"1741 1136 LINE",
"1342 1136 LINE",
"1342 1052 LINE",
"1502 1022 LINE"
);
},
{
closed = 1;
nodes = (
"586 39 LINE",
"299 1023 LINE",
"459 1052 LINE",
"459 1136 LINE",
"12 1136 LINE",
"12 1052 LINE",
"73 1035 LINE SMOOTH",
"105 1026 OFFCURVE",
"124 1011 OFFCURVE",
"134 980 CURVE SMOOTH",
"450 -17 LINE",
"572 -17 LINE"
);
},
{
closed = 1;
nodes = (
"842 1056 LINE",
"1159 -17 LINE",
"1279 -17 LINE",
"1293 39 LINE",
"991 1136 LINE",
"862 1136 LINE"
);
},
{
closed = 1;
nodes = (
"936 1135 LINE",
"821 1136 LINE",
"496 -17 LINE",
"604 -17 LINE"
);
}
);
width = 1754;
},
{
anchors = (
{
name = btm;
position = "{940, 0}";
},
{
name = top;
position = "{976, 1138}";
}
);
layerId = "925CB40E-795E-477B-BAE7-1EE7D58841B5";
name = Bold;
paths = (
{
closed = 1;
nodes = (
"1285 -16 LINE",
"1441 -16 LINE",
"1727 925 LINE SMOOTH",
"1736 953 OFFCURVE",
"1753 965 OFFCURVE",
"1780 973 CURVE SMOOTH",
"1853 996 LINE",
"1853 1138 LINE",
"1400 1138 LINE",
"1400 994 LINE",
"1545 963 LINE"
);
},
{
closed = 1;
nodes = (
"701 141 LINE",
"472 963 LINE",
"610 994 LINE",
"610 1138 LINE",
"2 1138 LINE",
"2 996 LINE",
"75 973 LINE SMOOTH",
"103 965 OFFCURVE",
"117 953 OFFCURVE",
"127 926 CURVE SMOOTH",
"437 -16 LINE",
"656 -16 LINE"
);
},
{
closed = 1;
nodes = (
"860 965 LINE",
"1161 -16 LINE",
"1384 -16 LINE",
"1428 143 LINE",
"1153 1138 LINE",
"922 1138 LINE"
);
},
{
closed = 1;
nodes = (
"1035 1138 LINE",
"862 1138 LINE",
"558 -16 LINE",
"723 -16 LINE"
);
}
);
width = 1864;
}
);
unicode = 0077;
},
{
glyphname = x;
lastChange = "2015-11-29 15:16:09 +0000";
layers = (
{
anchors = (
{
name = btm;
position = "{635, 0}";
},
{
name = top;
position = "{635, 1136}";
}
);
layerId = "DAAEA780-4710-4479-B303-5C05B40621B2";
name = Light;
paths = (
{
closed = 1;
nodes = (
"501 0 LINE",
"501 87 LINE",
"321 105 LINE",
"633 542 LINE",
"665 542 LINE",
"1013 995 LINE SMOOTH",
"1031 1018 OFFCURVE",
"1052 1030 OFFCURVE",
"1081 1036 CURVE SMOOTH",
"1167 1052 LINE",
"1167 1136 LINE",
"737 1136 LINE",
"737 1052 LINE",
"895 1028 LINE",
"593 617 LINE",
"557 617 LINE",
"197 138 LINE SMOOTH",
"178 113 OFFCURVE",
"157 103 OFFCURVE",
"127 99 CURVE SMOOTH",
"30 87 LINE",
"30 0 LINE"
);
},
{
closed = 1;
nodes = (
"1181 0 LINE",
"1181 87 LINE",
"1100 97 LINE SMOOTH",
"1070 101 OFFCURVE",
"1049 112 OFFCURVE",
"1031 137 CURVE SMOOTH",
"679 618 LINE",
"669 618 LINE",
"388 1028 LINE",
"535 1052 LINE",
"535 1136 LINE",
"62 1136 LINE",
"62 1052 LINE",
"141 1036 LINE SMOOTH",
"171 1030 OFFCURVE",
"191 1018 OFFCURVE",
"208 994 CURVE SMOOTH",
"548 522 LINE",
"558 522 LINE",
"842 104 LINE",
"695 87 LINE",
"695 0 LINE"
);
}
);
width = 1219;
},
{
anchors = (
{
name = btm;
position = "{680, 0}";
},
{
name = top;
position = "{680, 1138}";
}
);
layerId = "925CB40E-795E-477B-BAE7-1EE7D58841B5";
name = Bold;
paths = (
{
closed = 1;
nodes = (
"535 0 LINE",
"535 141 LINE",
"397 172 LINE",
"657 520 LINE",
"762 520 LINE",
"1111 945 LINE SMOOTH",
"1128 966 OFFCURVE",
"1144 975 OFFCURVE",
"1168 980 CURVE SMOOTH",
"1260 1000 LINE",
"1260 1138 LINE",
"802 1138 LINE",
"802 1000 LINE",
"915 969 LINE",
"665 638 LINE",
"553 638 LINE",
"192 195 LINE SMOOTH",
"176 176 OFFCURVE",
"158 165 OFFCURVE",
"133 160 CURVE SMOOTH",
"31 141 LINE",
"31 0 LINE"
);
},
{
closed = 1;
nodes = (
"1296 0 LINE",
"1296 141 LINE",
"1214 159 LINE SMOOTH",
"1189 165 OFFCURVE",
"1172 174 OFFCURVE",
"1156 195 CURVE SMOOTH",
"804 654 LINE",
"784 654 LINE",
"567 969 LINE",
"691 1000 LINE",
"691 1138 LINE",
"37 1138 LINE",
"37 1001 LINE",
"119 981 LINE SMOOTH",
"143 975 OFFCURVE",
"160 966 OFFCURVE",
"175 945 CURVE SMOOTH",
"523 490 LINE",
"545 490 LINE",
"763 171 LINE",
"650 141 LINE",
"650 0 LINE"
);
}
);
width = 1315;
}
);
unicode = 0078;
},
{
glyphname = y;
lastChange = "2015-11-29 15:16:09 +0000";
layers = (
{
anchors = (
{
name = top;
position = "{629, 1136}";
}
);
layerId = "DAAEA780-4710-4479-B303-5C05B40621B2";
name = Light;
paths = (
{
closed = 1;
nodes = (
"24 -389 CURVE",
"24 -500 LINE",
"101 -512 OFFCURVE",
"175 -516 OFFCURVE",
"243 -516 CURVE SMOOTH",
"475 -516 OFFCURVE",
"593 -374 OFFCURVE",
"702 -51 CURVE SMOOTH",
"1046 971 LINE SMOOTH",
"1058 1007 OFFCURVE",
"1076 1020 OFFCURVE",
"1108 1029 CURVE SMOOTH",
"1193 1052 LINE",
"1193 1136 LINE",
"764 1136 LINE",
"764 1052 LINE",
"934 1023 LINE",
"643 101 LINE SMOOTH",
"519 -293 OFFCURVE",
"374 -366 OFFCURVE"
);
},
{
closed = 1;
nodes = (
"691 37 LINE",
"331 1023 LINE",
"510 1052 LINE",
"510 1136 LINE",
"11 1136 LINE",
"11 1052 LINE",
"96 1029 LINE SMOOTH",
"127 1021 OFFCURVE",
"146 1005 OFFCURVE",
"157 975 CURVE SMOOTH",
"522 0 LINE",
"673 0 LINE"
);
}
);
width = 1198;
},
{
anchors = (
{
name = top;
position = "{691, 1138}";
}
);
layerId = "925CB40E-795E-477B-BAE7-1EE7D58841B5";
name = Bold;
paths = (
{
closed = 1;
nodes = (
"40 -321 CURVE",
"40 -490 LINE",
"121 -505 OFFCURVE",
"224 -518 OFFCURVE",
"316 -518 CURVE SMOOTH",
"553 -518 OFFCURVE",
"697 -355 OFFCURVE",
"816 -18 CURVE SMOOTH",
"1147 920 LINE SMOOTH",
"1159 951 OFFCURVE",
"1173 963 OFFCURVE",
"1205 973 CURVE SMOOTH",
"1282 996 LINE",
"1282 1138 LINE",
"826 1138 LINE",
"826 994 LINE",
"968 961 LINE",
"726 203 LINE SMOOTH",
"597 -203 OFFCURVE",
"422 -263 OFFCURVE"
);
},
{
closed = 1;
nodes = (
"797 159 LINE",
"524 961 LINE",
"672 993 LINE",
"672 1137 LINE",
"6 1138 LINE",
"6 996 LINE",
"82 973 LINE SMOOTH",
"111 964 OFFCURVE",
"130 949 OFFCURVE",
"141 920 CURVE SMOOTH",
"497 0 LINE",
"714 0 LINE"
);
}
);
width = 1282;
}
);
unicode = 0079;
},
{
glyphname = z;
lastChange = "2015-11-29 15:16:09 +0000";
layers = (
{
anchors = (
{
name = btm;
position = "{543, 0}";
},
{
name = top;
position = "{552, 1136}";
}
);
layerId = "DAAEA780-4710-4479-B303-5C05B40621B2";
name = Light;
paths = (
{
closed = 1;
nodes = (
"74 76 LINE",
"109 0 LINE",
"989 0 LINE",
"1006 111 OFFCURVE",
"1012 240 OFFCURVE",
"1007 349 CURVE",
"914 362 LINE",
"860 170 LINE SMOOTH",
"849 131 OFFCURVE",
"823 119 OFFCURVE",
"785 113 CURVE SMOOTH",
"718 103 OFFCURVE",
"649 101 OFFCURVE",
"567 101 CURVE SMOOTH",
"252 101 LINE",
"272 66 LINE",
"1008 1060 LINE",
"973 1136 LINE",
"148 1136 LINE",
"135 1032 OFFCURVE",
"133 907 OFFCURVE",
"143 786 CURVE",
"238 786 LINE",
"280 966 LINE SMOOTH",
"289 1005 OFFCURVE",
"302 1020 OFFCURVE",
"349 1029 CURVE SMOOTH",
"401 1038 OFFCURVE",
"470 1041 OFFCURVE",
"537 1041 CURVE SMOOTH",
"834 1041 LINE",
"816 1077 LINE"
);
}
);
width = 1114;
},
{
anchors = (
{
name = btm;
position = "{603, 0}";
},
{
name = top;
position = "{589, 1138}";
}
);
layerId = "925CB40E-795E-477B-BAE7-1EE7D58841B5";
name = Bold;
paths = (
{
closed = 1;
nodes = (
"49 129 LINE",
"108 0 LINE",
"1072 0 LINE",
"1089 131 OFFCURVE",
"1092 269 OFFCURVE",
"1078 405 CURVE",
"918 422 LINE",
"847 202 LINE SMOOTH",
"838 174 OFFCURVE",
"819 161 OFFCURVE",
"786 156 CURVE SMOOTH",
"735 147 OFFCURVE",
"665 145 OFFCURVE",
"604 145 CURVE SMOOTH",
"436 145 LINE",
"455 108 LINE",
"1102 1010 LINE",
"1046 1138 LINE",
"114 1138 LINE",
"104 1016 OFFCURVE",
"111 867 OFFCURVE",
"130 734 CURVE",
"294 734 LINE",
"343 934 LINE SMOOTH",
"353 973 OFFCURVE",
"373 981 OFFCURVE",
"404 986 CURVE SMOOTH",
"441 993 OFFCURVE",
"499 996 OFFCURVE",
"549 996 CURVE SMOOTH",
"728 996 LINE",
"709 1033 LINE"
);
}
);
width = 1174;
}
);
unicode = 007A;
},
{
glyphname = quotesingle;
lastChange = "2015-11-29 15:16:09 +0000";
layers = (
{
layerId = "DAAEA780-4710-4479-B303-5C05B40621B2";
name = Light;
paths = (
{
closed = 1;
nodes = (
"178 961 LINE",
"285 961 LINE",
"324 1684 LINE",
"140 1684 LINE"
);
}
);
width = 463;
},
{
layerId = "925CB40E-795E-477B-BAE7-1EE7D58841B5";
name = Bold;
paths = (
{
closed = 1;
nodes = (
"156 852 LINE",
"369 852 LINE",
"423 1729 LINE",
"103 1729 LINE"
);
}
);
width = 525;
}
);
unicode = 0027;
},
{
glyphname = numbersign;
lastChange = "2015-11-29 15:16:09 +0000";
layers = (
{
layerId = "DAAEA780-4710-4479-B303-5C05B40621B2";
name = Light;
paths = (
{
closed = 1;
nodes = (
"298 0 LINE",
"436 0 LINE",
"469 364 LINE",
"842 364 LINE",
"811 0 LINE",
"946 0 LINE",
"978 364 LINE",
"1240 364 LINE",
"1240 469 LINE",
"989 469 LINE",
"1029 921 LINE",
"1284 921 LINE",
"1284 1026 LINE",
"1039 1026 LINE",
"1070 1373 LINE",
"935 1373 LINE",
"904 1026 LINE",
"533 1026 LINE",
"563 1373 LINE",
"427 1373 LINE",
"397 1026 LINE",
"143 1026 LINE",
"143 921 LINE",
"388 921 LINE",
"346 469 LINE",
"109 469 LINE",
"109 364 LINE",
"333 364 LINE"
);
},
{
closed = 1;
nodes = (
"481 469 LINE",
"522 921 LINE",
"893 921 LINE",
"849 469 LINE"
);
}
);
width = 1389;
},
{
layerId = "925CB40E-795E-477B-BAE7-1EE7D58841B5";
name = Bold;
paths = (
{
closed = 1;
nodes = (
"250 0 LINE",
"520 0 LINE",
"559 349 LINE",
"830 349 LINE",
"793 0 LINE",
"1062 0 LINE",
"1100 349 LINE",
"1367 349 LINE",
"1365 530 LINE",
"1123 530 LINE",
"1157 859 LINE",
"1409 859 LINE",
"1410 1041 LINE",
"1184 1041 LINE",
"1221 1373 LINE",
"951 1373 LINE",
"915 1041 LINE",
"646 1041 LINE",
"681 1373 LINE",
"413 1373 LINE",
"378 1041 LINE",
"117 1041 LINE",
"116 859 LINE",
"351 859 LINE",
"314 530 LINE",
"82 530 LINE",
"85 349 LINE",
"291 349 LINE"
);
},
{
closed = 1;
nodes = (
"583 530 LINE",
"618 859 LINE",
"888 859 LINE",
"849 530 LINE"
);
}
);
width = 1488;
}
);
unicode = 0023;
},
{
glyphname = ampersand;
lastChange = "2015-11-29 15:16:09 +0000";
layers = (
{
layerId = "DAAEA780-4710-4479-B303-5C05B40621B2";
name = Light;
paths = (
{
closed = 1;
nodes = (
"1445 763 LINE",
"1445 851 LINE",
"948 851 LINE",
"948 763 LINE",
"1107 731 LINE SMOOTH",
"1152 722 OFFCURVE",
"1154 688 OFFCURVE",
"1154 669 CURVE SMOOTH",
"1154 529 OFFCURVE",
"1124 368 OFFCURVE",
"1019 262 CURVE",
"974 226 LINE",
"874 130 OFFCURVE",
"737 76 OFFCURVE",
"594 76 CURVE SMOOTH",
"383 76 OFFCURVE",
"267 203 OFFCURVE",
"267 379 CURVE SMOOTH",
"267 571 OFFCURVE",
"406 668 OFFCURVE",
"527 755 CURVE",
"577 787 LINE",
"807 894 OFFCURVE",
"968 1038 OFFCURVE",
"968 1252 CURVE SMOOTH",
"968 1459 OFFCURVE",
"817 1580 OFFCURVE",
"612 1580 CURVE SMOOTH",
"366 1580 OFFCURVE",
"227 1404 OFFCURVE",
"227 1207 CURVE SMOOTH",
"227 1056 OFFCURVE",
"309 910 OFFCURVE",
"455 720 CURVE SMOOTH",
"566 576 OFFCURVE",
"766 338 OFFCURVE",
"923 184 CURVE SMOOTH",
"1073 36 OFFCURVE",
"1165 -13 OFFCURVE",
"1268 -13 CURVE SMOOTH",
"1333 -13 OFFCURVE",
"1394 6 OFFCURVE",
"1446 25 CURVE",
"1446 112 LINE",
"1259 112 OFFCURVE",
"1218 130 OFFCURVE",
"1096 250 CURVE SMOOTH",
"945 400 OFFCURVE",
"727 631 OFFCURVE",
"580 826 CURVE SMOOTH",
"423 1034 OFFCURVE",
"389 1146 OFFCURVE",
"389 1232 CURVE SMOOTH",
"389 1361 OFFCURVE",
"465 1500 OFFCURVE",
"616 1500 CURVE SMOOTH",
"761 1500 OFFCURVE",
"813 1372 OFFCURVE",
"813 1256 CURVE SMOOTH",
"813 1072 OFFCURVE",
"683 955 OFFCURVE",
"539 852 CURVE SMOOTH",
"469 802 LINE",
"300 738 OFFCURVE",
"102 618 OFFCURVE",
"102 361 CURVE SMOOTH",
"102 94 OFFCURVE",
"315 -26 OFFCURVE",
"566 -26 CURVE SMOOTH",
"731 -26 OFFCURVE",
"918 24 OFFCURVE",
"1046 165 CURVE",
"1087 200 LINE",
"1231 335 OFFCURVE",
"1272 491 OFFCURVE",
"1294 666 CURVE SMOOTH",
"1299 702 OFFCURVE",
"1305 719 OFFCURVE",
"1344 731 CURVE SMOOTH"
);
}
);
width = 1542;
},
{
layerId = "925CB40E-795E-477B-BAE7-1EE7D58841B5";
name = Bold;
paths = (
{
closed = 1;
nodes = (
"1591 726 LINE",
"1591 877 LINE",
"1034 877 LINE",
"1034 726 LINE",
"1186 693 LINE SMOOTH",
"1217 685 OFFCURVE",
"1222 666 OFFCURVE",
"1222 629 CURVE SMOOTH",
"1222 535 OFFCURVE",
"1194 400 OFFCURVE",
"1093 311 CURVE",
"976 227 LINE",
"886 147 OFFCURVE",
"778 126 OFFCURVE",
"701 126 CURVE SMOOTH",
"511 126 OFFCURVE",
"397 248 OFFCURVE",
"397 429 CURVE SMOOTH",
"397 582 OFFCURVE",
"480 644 OFFCURVE",
"555 713 CURVE",
"713 814 LINE",
"1005 881 OFFCURVE",
"1138 1039 OFFCURVE",
"1138 1244 CURVE SMOOTH",
"1138 1457 OFFCURVE",
"994 1591 OFFCURVE",
"720 1591 CURVE SMOOTH",
"421 1591 OFFCURVE",
"226 1430 OFFCURVE",
"226 1183 CURVE SMOOTH",
"226 1016 OFFCURVE",
"315 863 OFFCURVE",
"449 683 CURVE SMOOTH",
"546 555 OFFCURVE",
"749 300 OFFCURVE",
"930 146 CURVE SMOOTH",
"1079 18 OFFCURVE",
"1183 -20 OFFCURVE",
"1303 -20 CURVE SMOOTH",
"1392 -20 OFFCURVE",
"1504 1 OFFCURVE",
"1578 26 CURVE",
"1578 172 LINE",
"1438 172 OFFCURVE",
"1372 190 OFFCURVE",
"1229 325 CURVE SMOOTH",
"1067 479 OFFCURVE",
"852 736 OFFCURVE",
"736 888 CURVE SMOOTH",
"593 1077 OFFCURVE",
"561 1165 OFFCURVE",
"561 1269 CURVE SMOOTH",
"561 1405 OFFCURVE",
"618 1474 OFFCURVE",
"706 1474 CURVE SMOOTH",
"781 1474 OFFCURVE",
"833 1415 OFFCURVE",
"833 1270 CURVE SMOOTH",
"833 1145 OFFCURVE",
"789 994 OFFCURVE",
"648 894 CURVE SMOOTH",
"456 781 LINE",
"308 754 OFFCURVE",
"70 669 OFFCURVE",
"70 376 CURVE SMOOTH",
"70 91 OFFCURVE",
"297 -30 OFFCURVE",
"604 -30 CURVE SMOOTH",
"791 -30 OFFCURVE",
"970 27 OFFCURVE",
"1071 132 CURVE",
"1152 225 LINE",
"1335 330 OFFCURVE",
"1417 476 OFFCURVE",
"1448 636 CURVE SMOOTH",
"1455 670 OFFCURVE",
"1457 686 OFFCURVE",
"1486 694 CURVE SMOOTH"
);
}
);
width = 1656;
}
);
unicode = 0026;
},
{
glyphname = asterisk;
lastChange = "2015-11-29 15:16:09 +0000";
layers = (
{
layerId = "DAAEA780-4710-4479-B303-5C05B40621B2";
name = Light;
paths = (
{
closed = 1;
nodes = (
"224 957 LINE",
"481 1141 LINE",
"602 1253 LINE",
"572 1090 LINE",
"548 774 LINE",
"710 775 LINE",
"676 1090 LINE",
"642 1252 LINE",
"770 1145 LINE",
"1025 964 LINE",
"1107 1107 LINE",
"819 1236 LINE",
"663 1287 LINE",
"819 1342 LINE",
"1102 1478 LINE",
"1022 1615 LINE",
"764 1431 LINE",
"642 1322 LINE",
"673 1483 LINE",
"699 1797 LINE",
"537 1797 LINE",
"569 1482 LINE",
"603 1320 LINE",
"477 1427 LINE",
"219 1609 LINE",
"140 1469 LINE",
"428 1337 LINE",
"583 1287 LINE",
"428 1233 LINE",
"142 1096 LINE"
);
}
);
width = 1221;
},
{
layerId = "925CB40E-795E-477B-BAE7-1EE7D58841B5";
name = Bold;
paths = (
{
closed = 1;
nodes = (
"235 825 LINE",
"388 939 LINE",
"610 1152 LINE",
"542 860 LINE",
"527 666 LINE",
"810 666 LINE",
"790 860 LINE",
"707 1149 LINE",
"941 941 LINE",
"1087 834 LINE",
"1231 1075 LINE",
"1064 1153 LINE",
"757 1233 LINE",
"1064 1320 LINE",
"1225 1406 LINE",
"1084 1638 LINE",
"929 1527 LINE",
"707 1317 LINE",
"776 1606 LINE",
"792 1800 LINE",
"508 1800 LINE",
"528 1602 LINE",
"610 1311 LINE",
"384 1522 LINE",
"227 1630 LINE",
"91 1396 LINE",
"261 1317 LINE",
"560 1232 LINE",
"261 1144 LINE",
"95 1059 LINE"
);
}
);
width = 1306;
}
);
unicode = 002A;
},
{
glyphname = comma;
lastChange = "2015-11-29 15:16:09 +0000";
layers = (
{
layerId = "DAAEA780-4710-4479-B303-5C05B40621B2";
name = Light;
paths = (
{
closed = 1;
nodes = (
"146 167 CURVE SMOOTH",
"146 111 OFFCURVE",
"184 78 OFFCURVE",
"211 47 CURVE SMOOTH",
"242 12 OFFCURVE",
"269 -27 OFFCURVE",
"269 -101 CURVE SMOOTH",
"269 -201 OFFCURVE",
"219 -294 OFFCURVE",
"133 -379 CURVE",
"183 -439 LINE",
"338 -321 OFFCURVE",
"409 -159 OFFCURVE",
"409 13 CURVE SMOOTH",
"409 168 OFFCURVE",
"352 279 OFFCURVE",
"256 279 CURVE SMOOTH",
"193 279 OFFCURVE",
"146 230 OFFCURVE"
);
}
);
width = 545;
},
{
layerId = "925CB40E-795E-477B-BAE7-1EE7D58841B5";
name = Bold;
paths = (
{
closed = 1;
nodes = (
"94 189 CURVE SMOOTH",
"94 107 OFFCURVE",
"140 64 OFFCURVE",
"187 23 CURVE SMOOTH",
"222 -8 OFFCURVE",
"261 -39 OFFCURVE",
"261 -121 CURVE SMOOTH",
"261 -214 OFFCURVE",
"207 -304 OFFCURVE",
"115 -392 CURVE",
"207 -489 LINE",
"406 -359 OFFCURVE",
"508 -150 OFFCURVE",
"508 70 CURVE SMOOTH",
"508 245 OFFCURVE",
"427 367 OFFCURVE",
"280 367 CURVE SMOOTH",
"173 367 OFFCURVE",
"94 289 OFFCURVE"
);
}
);
width = 601;
}
);
unicode = 002C;
},
{
glyphname = hyphen;
lastChange = "2015-11-29 15:16:09 +0000";
layers = (
{
layerId = "DAAEA780-4710-4479-B303-5C05B40621B2";
name = Light;
paths = (
{
closed = 1;
nodes = (
"152 534 LINE",
"897 534 LINE",
"897 658 LINE",
"152 658 LINE"
);
}
);
width = 1049;
},
{
layerId = "925CB40E-795E-477B-BAE7-1EE7D58841B5";
name = Bold;
paths = (
{
closed = 1;
nodes = (
"120 480 LINE",
"893 480 LINE",
"893 712 LINE",
"120 712 LINE"
);
}
);
width = 1012;
}
);
rightMetricsKey = "=|";
unicode = 002D;
},
{
glyphname = softhyphen;
lastChange = "2015-11-29 15:16:09 +0000";
layers = (
{
layerId = "DAAEA780-4710-4479-B303-5C05B40621B2";
name = Light;
paths = (
{
closed = 1;
nodes = (
"152 534 LINE",
"937 534 LINE",
"937 658 LINE",
"152 658 LINE"
);
}
);
width = 1089;
},
{
layerId = "925CB40E-795E-477B-BAE7-1EE7D58841B5";
name = Bold;
paths = (
{
closed = 1;
nodes = (
"120 480 LINE",
"916 480 LINE",
"916 712 LINE",
"120 712 LINE"
);
}
);
width = 1035;
}
);
rightMetricsKey = "=|";
unicode = 00AD;
},
{
glyphname = period;
lastChange = "2015-11-29 15:16:09 +0000";
layers = (
{
layerId = "DAAEA780-4710-4479-B303-5C05B40621B2";
name = Light;
paths = (
{
closed = 1;
nodes = (
"393 108 CURVE SMOOTH",
"393 185 OFFCURVE",
"340 238 OFFCURVE",
"263 238 CURVE SMOOTH",
"186 238 OFFCURVE",
"133 185 OFFCURVE",
"133 108 CURVE SMOOTH",
"133 32 OFFCURVE",
"186 -22 OFFCURVE",
"263 -22 CURVE SMOOTH",
"340 -22 OFFCURVE",
"393 32 OFFCURVE"
);
}
);
width = 526;
},
{
layerId = "925CB40E-795E-477B-BAE7-1EE7D58841B5";
name = Bold;
paths = (
{
closed = 1;
nodes = (
"514 172 CURVE SMOOTH",
"514 287 OFFCURVE",
"431 360 OFFCURVE",
"303 360 CURVE SMOOTH",
"175 360 OFFCURVE",
"92 287 OFFCURVE",
"92 172 CURVE SMOOTH",
"92 58 OFFCURVE",
"175 -16 OFFCURVE",
"303 -16 CURVE SMOOTH",
"431 -16 OFFCURVE",
"514 58 OFFCURVE"
);
}
);
width = 606;
}
);
unicode = 002E;
},
{
glyphname = question;
lastChange = "2015-11-29 15:16:09 +0000";
layers = (
{
layerId = "DAAEA780-4710-4479-B303-5C05B40621B2";
name = Light;
paths = (
{
closed = 1;
nodes = (
"477 447 LINE",
"495 624 LINE SMOOTH",
"506 738 OFFCURVE",
"537 767 OFFCURVE",
"653 866 CURVE SMOOTH",
"807 997 OFFCURVE",
"957 1120 OFFCURVE",
"957 1322 CURVE SMOOTH",
"957 1543 OFFCURVE",
"777 1756 OFFCURVE",
"481 1756 CURVE SMOOTH",
"312 1756 OFFCURVE",
"163 1687 OFFCURVE",
"77 1616 CURVE",
"77 1504 OFFCURVE",
"95 1380 OFFCURVE",
"124 1278 CURVE",
"225 1278 LINE",
"242 1470 LINE SMOOTH",
"246 1512 OFFCURVE",
"254 1542 OFFCURVE",
"284 1572 CURVE SMOOTH",
"325 1613 OFFCURVE",
"411 1653 OFFCURVE",
"507 1653 CURVE SMOOTH",
"681 1653 OFFCURVE",
"769 1523 OFFCURVE",
"769 1359 CURVE SMOOTH",
"769 1203 OFFCURVE",
"689 1115 OFFCURVE",
"509 949 CURVE SMOOTH",
"405 853 OFFCURVE",
"347 805 OFFCURVE",
"347 693 CURVE SMOOTH",
"347 624 OFFCURVE",
"369 526 OFFCURVE",
"389 447 CURVE"
);
},
{
closed = 1;
nodes = (
"566 96 CURVE SMOOTH",
"566 166 OFFCURVE",
"518 214 OFFCURVE",
"448 214 CURVE SMOOTH",
"378 214 OFFCURVE",
"330 166 OFFCURVE",
"330 96 CURVE SMOOTH",
"330 27 OFFCURVE",
"378 -22 OFFCURVE",
"448 -22 CURVE SMOOTH",
"518 -22 OFFCURVE",
"566 27 OFFCURVE"
);
}
);
width = 1030;
},
{
layerId = "925CB40E-795E-477B-BAE7-1EE7D58841B5";
name = Bold;
paths = (
{
closed = 1;
nodes = (
"611 508 LINE",
"633 648 LINE SMOOTH",
"648 736 OFFCURVE",
"651 735 OFFCURVE",
"755 809 CURVE SMOOTH",
"952 949 OFFCURVE",
"1089 1076 OFFCURVE",
"1089 1291 CURVE SMOOTH",
"1089 1559 OFFCURVE",
"863 1766 OFFCURVE",
"538 1766 CURVE SMOOTH",
"347 1766 OFFCURVE",
"175 1695 OFFCURVE",
"65 1601 CURVE",
"74 1463 OFFCURVE",
"103 1313 OFFCURVE",
"146 1186 CURVE",
"361 1186 LINE",
"390 1433 LINE SMOOTH",
"395 1480 OFFCURVE",
"404 1506 OFFCURVE",
"428 1534 CURVE SMOOTH",
"455 1565 OFFCURVE",
"500 1597 OFFCURVE",
"560 1597 CURVE SMOOTH",
"656 1597 OFFCURVE",
"719 1516 OFFCURVE",
"719 1391 CURVE SMOOTH",
"719 1263 OFFCURVE",
"655 1168 OFFCURVE",
"521 1042 CURVE SMOOTH",
"408 936 OFFCURVE",
"320 871 OFFCURVE",
"320 749 CURVE SMOOTH",
"320 664 OFFCURVE",
"366 574 OFFCURVE",
"403 508 CURVE"
);
},
{
closed = 1;
nodes = (
"710 163 CURVE SMOOTH",
"710 271 OFFCURVE",
"631 343 OFFCURVE",
"508 343 CURVE SMOOTH",
"386 343 OFFCURVE",
"307 273 OFFCURVE",
"307 163 CURVE SMOOTH",
"307 54 OFFCURVE",
"386 -16 OFFCURVE",
"508 -16 CURVE SMOOTH",
"631 -16 OFFCURVE",
"710 55 OFFCURVE"
);
}
);
width = 1153;
}
);
unicode = 003F;
},
{
glyphname = exclam;
lastChange = "2015-11-29 15:16:09 +0000";
layers = (
{
layerId = "DAAEA780-4710-4479-B303-5C05B40621B2";
name = Light;
paths = (
{
closed = 1;
nodes = (
"204 1562 LINE",
"251 447 LINE",
"349 447 LINE",
"395 1562 LINE",
"395 1712 LINE",
"204 1712 LINE"
);
},
{
closed = 1;
nodes = (
"418 96 CURVE SMOOTH",
"418 166 OFFCURVE",
"370 214 OFFCURVE",
"300 214 CURVE SMOOTH",
"230 214 OFFCURVE",
"182 166 OFFCURVE",
"182 96 CURVE SMOOTH",
"182 27 OFFCURVE",
"230 -22 OFFCURVE",
"300 -22 CURVE SMOOTH",
"370 -22 OFFCURVE",
"418 27 OFFCURVE"
);
}
);
width = 600;
},
{
layerId = "925CB40E-795E-477B-BAE7-1EE7D58841B5";
name = Bold;
paths = (
{
closed = 1;
nodes = (
"147 1500 LINE",
"238 508 LINE",
"454 508 LINE",
"546 1500 LINE",
"546 1712 LINE",
"147 1712 LINE"
);
},
{
closed = 1;
nodes = (
"548 163 CURVE SMOOTH",
"548 273 OFFCURVE",
"469 343 OFFCURVE",
"346 343 CURVE SMOOTH",
"224 343 OFFCURVE",
"145 273 OFFCURVE",
"145 163 CURVE SMOOTH",
"145 54 OFFCURVE",
"224 -16 OFFCURVE",
"346 -16 CURVE SMOOTH",
"469 -16 OFFCURVE",
"548 54 OFFCURVE"
);
}
);
width = 692;
}
);
unicode = 0021;
},
{
glyphname = questiondown;
lastChange = "2015-11-29 15:16:09 +0000";
layers = (
{
layerId = "DAAEA780-4710-4479-B303-5C05B40621B2";
name = Light;
paths = (
{
closed = 1;
nodes = (
"546 699 LINE",
"528 522 LINE SMOOTH",
"517 408 OFFCURVE",
"486 379 OFFCURVE",
"370 280 CURVE SMOOTH",
"216 149 OFFCURVE",
"66 26 OFFCURVE",
"66 -176 CURVE SMOOTH",
"66 -397 OFFCURVE",
"246 -610 OFFCURVE",
"542 -610 CURVE SMOOTH",
"711 -610 OFFCURVE",
"860 -541 OFFCURVE",
"946 -470 CURVE",
"946 -358 OFFCURVE",
"928 -234 OFFCURVE",
"899 -132 CURVE",
"798 -132 LINE",
"781 -324 LINE SMOOTH",
"777 -366 OFFCURVE",
"769 -396 OFFCURVE",
"739 -426 CURVE SMOOTH",
"698 -467 OFFCURVE",
"612 -507 OFFCURVE",
"516 -507 CURVE SMOOTH",
"342 -507 OFFCURVE",
"254 -377 OFFCURVE",
"254 -213 CURVE SMOOTH",
"254 -57 OFFCURVE",
"334 31 OFFCURVE",
"514 197 CURVE SMOOTH",
"618 293 OFFCURVE",
"676 341 OFFCURVE",
"676 453 CURVE SMOOTH",
"676 522 OFFCURVE",
"654 620 OFFCURVE",
"634 699 CURVE"
);
},
{
closed = 1;
nodes = (
"457 1050 CURVE SMOOTH",
"457 980 OFFCURVE",
"505 932 OFFCURVE",
"575 932 CURVE SMOOTH",
"645 932 OFFCURVE",
"693 980 OFFCURVE",
"693 1050 CURVE SMOOTH",
"693 1119 OFFCURVE",
"645 1168 OFFCURVE",
"575 1168 CURVE SMOOTH",
"505 1168 OFFCURVE",
"457 1119 OFFCURVE"
);
}
);
width = 1016;
},
{
layerId = "925CB40E-795E-477B-BAE7-1EE7D58841B5";
name = Bold;
paths = (
{
closed = 1;
nodes = (
"535 645 LINE",
"513 505 LINE SMOOTH",
"499 417 OFFCURVE",
"495 418 OFFCURVE",
"392 344 CURVE SMOOTH",
"194 204 OFFCURVE",
"57 76 OFFCURVE",
"57 -138 CURVE SMOOTH",
"57 -406 OFFCURVE",
"283 -613 OFFCURVE",
"608 -613 CURVE SMOOTH",
"799 -613 OFFCURVE",
"971 -542 OFFCURVE",
"1081 -448 CURVE",
"1073 -310 OFFCURVE",
"1044 -160 OFFCURVE",
"1000 -33 CURVE",
"786 -33 LINE",
"757 -280 LINE SMOOTH",
"751 -327 OFFCURVE",
"742 -353 OFFCURVE",
"718 -382 CURVE SMOOTH",
"692 -412 OFFCURVE",
"647 -444 OFFCURVE",
"586 -444 CURVE SMOOTH",
"490 -444 OFFCURVE",
"428 -363 OFFCURVE",
"428 -238 CURVE SMOOTH",
"428 -110 OFFCURVE",
"492 -15 OFFCURVE",
"625 111 CURVE SMOOTH",
"739 217 OFFCURVE",
"826 282 OFFCURVE",
"826 404 CURVE SMOOTH",
"826 489 OFFCURVE",
"780 579 OFFCURVE",
"744 645 CURVE"
);
},
{
closed = 1;
nodes = (
"436 989 CURVE SMOOTH",
"436 882 OFFCURVE",
"515 810 OFFCURVE",
"638 810 CURVE SMOOTH",
"760 810 OFFCURVE",
"839 880 OFFCURVE",
"839 989 CURVE SMOOTH",
"839 1099 OFFCURVE",
"760 1169 OFFCURVE",
"638 1169 CURVE SMOOTH",
"515 1169 OFFCURVE",
"436 1098 OFFCURVE"
);
}
);
width = 1139;
}
);
unicode = 00BF;
},
{
glyphname = exclamdown;
lastChange = "2015-11-29 15:16:09 +0000";
layers = (
{
layerId = "DAAEA780-4710-4479-B303-5C05B40621B2";
name = Light;
paths = (
{
closed = 1;
nodes = (
"379 -416 LINE",
"332 699 LINE",
"234 699 LINE",
"188 -416 LINE",
"188 -566 LINE",
"379 -566 LINE"
);
},
{
closed = 1;
nodes = (
"165 1050 CURVE SMOOTH",
"165 980 OFFCURVE",
"213 932 OFFCURVE",
"283 932 CURVE SMOOTH",
"353 932 OFFCURVE",
"401 980 OFFCURVE",
"401 1050 CURVE SMOOTH",
"401 1119 OFFCURVE",
"353 1168 OFFCURVE",
"283 1168 CURVE SMOOTH",
"213 1168 OFFCURVE",
"165 1119 OFFCURVE"
);
}
);
width = 566;
},
{
layerId = "925CB40E-795E-477B-BAE7-1EE7D58841B5";
name = Bold;
paths = (
{
closed = 1;
nodes = (
"531 -348 LINE",
"439 644 LINE",
"223 644 LINE",
"132 -348 LINE",
"132 -559 LINE",
"531 -559 LINE"
);
},
{
closed = 1;
nodes = (
"129 989 CURVE SMOOTH",
"129 880 OFFCURVE",
"208 810 OFFCURVE",
"331 810 CURVE SMOOTH",
"453 810 OFFCURVE",
"532 880 OFFCURVE",
"532 989 CURVE SMOOTH",
"532 1099 OFFCURVE",
"453 1169 OFFCURVE",
"331 1169 CURVE SMOOTH",
"208 1169 OFFCURVE",
"129 1099 OFFCURVE"
);
}
);
width = 662;
}
);
unicode = 00A1;
},
{
glyphname = at;
lastChange = "2015-11-29 15:16:09 +0000";
layers = (
{
layerId = "DAAEA780-4710-4479-B303-5C05B40621B2";
name = Light;
paths = (
{
closed = 1;
nodes = (
"1236 611 CURVE SMOOTH",
"1150 361 OFFCURVE",
"1005 122 OFFCURVE",
"866 122 CURVE SMOOTH",
"758 122 OFFCURVE",
"713 265 OFFCURVE",
"713 427 CURVE SMOOTH",
"713 688 OFFCURVE",
"830 919 OFFCURVE",
"1049 919 CURVE SMOOTH",
"1129 919 OFFCURVE",
"1246 886 OFFCURVE",
"1322 800 CURVE",
"1354 959 LINE",
"1266 1013 OFFCURVE",
"1168 1040 OFFCURVE",
"1081 1040 CURVE SMOOTH",
"750 1040 OFFCURVE",
"552 674 OFFCURVE",
"552 373 CURVE SMOOTH",
"552 145 OFFCURVE",
"665 -26 OFFCURVE",
"827 -26 CURVE SMOOTH",
"1034 -26 OFFCURVE",
"1203 256 OFFCURVE",
"1286 516 CURVE",
"1282 516 OFFCURVE",
"1279 517 OFFCURVE",
"1275 517 CURVE",
"1249 385 OFFCURVE",
"1238 284 OFFCURVE",
"1238 214 CURVE SMOOTH",
"1238 82 OFFCURVE",
"1277 -26 OFFCURVE",
"1399 -26 CURVE SMOOTH",
"1590 -26 OFFCURVE",
"1963 240 OFFCURVE",
"1963 779 CURVE SMOOTH",
"1963 1283 OFFCURVE",
"1636 1540 OFFCURVE",
"1197 1540 CURVE SMOOTH",
"621 1540 OFFCURVE",
"104 1097 OFFCURVE",
"104 386 CURVE SMOOTH",
"104 -146 OFFCURVE",
"393 -512 OFFCURVE",
"909 -512 CURVE SMOOTH",
"1127 -512 OFFCURVE",
"1315 -447 OFFCURVE",
"1417 -366 CURVE",
"1382 -296 LINE",
"1296 -352 OFFCURVE",
"1097 -396 OFFCURVE",
"940 -396 CURVE SMOOTH",
"538 -396 OFFCURVE",
"242 -106 OFFCURVE",
"242 420 CURVE SMOOTH",
"242 1047 OFFCURVE",
"664 1423 OFFCURVE",
"1147 1423 CURVE SMOOTH",
"1503 1423 OFFCURVE",
"1840 1219 OFFCURVE",
"1840 747 CURVE SMOOTH",
"1840 333 OFFCURVE",
"1581 104 OFFCURVE",
"1455 104 CURVE SMOOTH",
"1411 104 OFFCURVE",
"1387 132 OFFCURVE",
"1387 257 CURVE SMOOTH",
"1387 444 OFFCURVE",
"1441 766 OFFCURVE",
"1487 996 CURVE",
"1375 1033 LINE",
"1318 939 LINE",
"1306 862 OFFCURVE",
"1283 748 OFFCURVE"
);
}
);
width = 2077;
},
{
layerId = "925CB40E-795E-477B-BAE7-1EE7D58841B5";
name = Bold;
paths = (
{
closed = 1;
nodes = (
"1230 671 CURVE SMOOTH",
"1144 381 OFFCURVE",
"1011 201 OFFCURVE",
"925 201 CURVE SMOOTH",
"846 201 OFFCURVE",
"811 355 OFFCURVE",
"811 484 CURVE SMOOTH",
"811 679 OFFCURVE",
"889 906 OFFCURVE",
"1051 906 CURVE SMOOTH",
"1132 906 OFFCURVE",
"1234 847 OFFCURVE",
"1285 768 CURVE",
"1388 993 LINE",
"1266 1067 OFFCURVE",
"1177 1089 OFFCURVE",
"1092 1089 CURVE SMOOTH",
"743 1089 OFFCURVE",
"529 726 OFFCURVE",
"529 391 CURVE SMOOTH",
"529 99 OFFCURVE",
"692 -65 OFFCURVE",
"850 -65 CURVE SMOOTH",
"1063 -65 OFFCURVE",
"1213 235 OFFCURVE",
"1299 507 CURVE",
"1294 507 OFFCURVE",
"1291 508 OFFCURVE",
"1287 508 CURVE",
"1257 339 OFFCURVE",
"1244 228 OFFCURVE",
"1244 165 CURVE SMOOTH",
"1244 31 OFFCURVE",
"1305 -40 OFFCURVE",
"1393 -40 CURVE SMOOTH",
"1570 -40 OFFCURVE",
"2031 241 OFFCURVE",
"2031 805 CURVE SMOOTH",
"2031 1287 OFFCURVE",
"1697 1564 OFFCURVE",
"1238 1564 CURVE SMOOTH",
"599 1564 OFFCURVE",
"66 1030 OFFCURVE",
"76 332 CURVE SMOOTH",
"84 -190 OFFCURVE",
"394 -527 OFFCURVE",
"911 -527 CURVE SMOOTH",
"1116 -527 OFFCURVE",
"1315 -474 OFFCURVE",
"1431 -377 CURVE",
"1376 -258 LINE",
"1298 -310 OFFCURVE",
"1116 -347 OFFCURVE",
"971 -347 CURVE SMOOTH",
"611 -347 OFFCURVE",
"302 -117 OFFCURVE",
"302 423 CURVE SMOOTH",
"302 998 OFFCURVE",
"652 1385 OFFCURVE",
"1144 1385 CURVE SMOOTH",
"1457 1385 OFFCURVE",
"1828 1228 OFFCURVE",
"1828 726 CURVE SMOOTH",
"1828 362 OFFCURVE",
"1632 172 OFFCURVE",
"1543 172 CURVE SMOOTH",
"1504 172 OFFCURVE",
"1487 208 OFFCURVE",
"1487 299 CURVE SMOOTH",
"1487 518 OFFCURVE",
"1591 974 OFFCURVE",
"1602 1028 CURVE",
"1406 1089 LINE",
"1302 979 LINE",
"1291 923 OFFCURVE",
"1270 802 OFFCURVE"
);
}
);
width = 2114;
}
);
unicode = 0040;
},
{
glyphname = parenleft;
lastChange = "2015-11-29 15:16:09 +0000";
layers = (
{
layerId = "DAAEA780-4710-4479-B303-5C05B40621B2";
name = Light;
paths = (
{
closed = 1;
nodes = (
"633 -384 LINE",
"550 -280 OFFCURVE",
"261 138 OFFCURVE",
"273 849 CURVE SMOOTH",
"283 1465 OFFCURVE",
"523 1840 OFFCURVE",
"633 1974 CURVE",
"562 2042 LINE",
"454 1937 OFFCURVE",
"103 1499 OFFCURVE",
"103 812 CURVE SMOOTH",
"103 35 OFFCURVE",
"479 -375 OFFCURVE",
"562 -452 CURVE"
);
}
);
width = 662;
},
{
layerId = "925CB40E-795E-477B-BAE7-1EE7D58841B5";
name = Bold;
paths = (
{
closed = 1;
nodes = (
"704 -353 LINE",
"609 -186 OFFCURVE",
"402 156 OFFCURVE",
"403 808 CURVE SMOOTH",
"405 1409 OFFCURVE",
"604 1749 OFFCURVE",
"704 1913 CURVE",
"594 2027 LINE",
"489 1950 OFFCURVE",
"71 1514 OFFCURVE",
"71 782 CURVE SMOOTH",
"71 -9 OFFCURVE",
"505 -390 OFFCURVE",
"594 -467 CURVE"
);
}
);
width = 729;
}
);
unicode = 0028;
},
{
glyphname = parenright;
lastChange = "2015-11-29 15:16:09 +0000";
layers = (
{
layerId = "DAAEA780-4710-4479-B303-5C05B40621B2";
name = Light;
paths = (
{
closed = 1;
nodes = (
"559 778 CURVE SMOOTH",
"559 1555 OFFCURVE",
"183 1965 OFFCURVE",
"100 2042 CURVE",
"29 1974 LINE",
"112 1870 OFFCURVE",
"401 1452 OFFCURVE",
"389 741 CURVE SMOOTH",
"379 125 OFFCURVE",
"139 -250 OFFCURVE",
"29 -384 CURVE",
"100 -452 LINE",
"208 -347 OFFCURVE",
"559 91 OFFCURVE"
);
}
);
width = 662;
},
{
layerId = "925CB40E-795E-477B-BAE7-1EE7D58841B5";
name = Bold;
paths = (
{
closed = 1;
nodes = (
"659 779 CURVE SMOOTH",
"659 1570 OFFCURVE",
"225 1950 OFFCURVE",
"136 2027 CURVE",
"26 1914 LINE",
"122 1747 OFFCURVE",
"329 1405 OFFCURVE",
"327 753 CURVE SMOOTH",
"326 152 OFFCURVE",
"127 -188 OFFCURVE",
"26 -352 CURVE",
"136 -467 LINE",
"242 -389 OFFCURVE",
"659 47 OFFCURVE"
);
}
);
width = 729;
}
);
unicode = 0029;
},
{
glyphname = bracketleft;
lastChange = "2015-11-29 15:16:09 +0000";
layers = (
{
layerId = "DAAEA780-4710-4479-B303-5C05B40621B2";
name = Light;
paths = (
{
closed = 1;
nodes = (
"698 -373 CURVE",
"698 -287 LINE",
"432 -267 LINE SMOOTH",
"393 -264 OFFCURVE",
"372 -246 OFFCURVE",
"372 -207 CURVE SMOOTH",
"372 1797 LINE SMOOTH",
"372 1836 OFFCURVE",
"393 1854 OFFCURVE",
"432 1857 CURVE SMOOTH",
"698 1877 LINE",
"698 1963 LINE",
"562 1980 OFFCURVE",
"369 1991 OFFCURVE",
"244 1988 CURVE",
"218 1960 LINE",
"218 -370 LINE",
"244 -398 LINE",
"369 -401 OFFCURVE",
"562 -390 OFFCURVE"
);
}
);
width = 740;
},
{
layerId = "925CB40E-795E-477B-BAE7-1EE7D58841B5";
name = Bold;
paths = (
{
closed = 1;
nodes = (
"787 -387 CURVE",
"787 -244 LINE",
"547 -216 LINE SMOOTH",
"514 -212 OFFCURVE",
"495 -190 OFFCURVE",
"495 -157 CURVE SMOOTH",
"495 1718 LINE SMOOTH",
"495 1751 OFFCURVE",
"514 1772 OFFCURVE",
"547 1776 CURVE SMOOTH",
"787 1804 LINE",
"787 1947 LINE",
"609 1971 OFFCURVE",
"388 1982 OFFCURVE",
"228 1980 CURVE",
"180 1936 LINE",
"180 -376 LINE",
"228 -420 LINE",
"388 -422 OFFCURVE",
"609 -411 OFFCURVE"
);
}
);
width = 818;
}
);
unicode = 005B;
},
{
glyphname = bracketright;
lastChange = "2015-11-29 15:16:09 +0000";
layers = (
{
layerId = "DAAEA780-4710-4479-B303-5C05B40621B2";
name = Light;
paths = (
{
closed = 1;
nodes = (
"522 -370 LINE",
"522 1960 LINE",
"496 1988 LINE",
"371 1991 OFFCURVE",
"178 1980 OFFCURVE",
"42 1963 CURVE",
"42 1877 LINE",
"308 1857 LINE SMOOTH",
"347 1854 OFFCURVE",
"368 1836 OFFCURVE",
"368 1797 CURVE SMOOTH",
"368 -207 LINE SMOOTH",
"368 -246 OFFCURVE",
"347 -264 OFFCURVE",
"308 -267 CURVE SMOOTH",
"42 -287 LINE",
"42 -373 LINE",
"178 -390 OFFCURVE",
"371 -401 OFFCURVE",
"496 -398 CURVE"
);
}
);
width = 740;
},
{
layerId = "925CB40E-795E-477B-BAE7-1EE7D58841B5";
name = Bold;
paths = (
{
closed = 1;
nodes = (
"637 -376 LINE",
"637 1936 LINE",
"589 1980 LINE",
"429 1982 OFFCURVE",
"209 1971 OFFCURVE",
"30 1947 CURVE",
"30 1804 LINE",
"270 1776 LINE SMOOTH",
"303 1772 OFFCURVE",
"322 1751 OFFCURVE",
"322 1718 CURVE SMOOTH",
"322 -157 LINE SMOOTH",
"322 -190 OFFCURVE",
"303 -212 OFFCURVE",
"270 -216 CURVE SMOOTH",
"30 -244 LINE",
"30 -387 LINE",
"209 -411 OFFCURVE",
"429 -422 OFFCURVE",
"589 -420 CURVE"
);
}
);
width = 818;
}
);
unicode = 005D;
},
{
glyphname = braceleft;
lastChange = "2015-11-29 15:16:09 +0000";
layers = (
{
layerId = "DAAEA780-4710-4479-B303-5C05B40621B2";
name = Light;
paths = (
{
closed = 1;
nodes = (
"804 -309 LINE",
"664 -285 LINE SMOOTH",
"513 -259 OFFCURVE",
"435 -194 OFFCURVE",
"435 -18 CURVE SMOOTH",
"435 144 OFFCURVE",
"451 338 OFFCURVE",
"451 504 CURVE SMOOTH",
"451 655 OFFCURVE",
"376 754 OFFCURVE",
"185 799 CURVE",
"376 846 OFFCURVE",
"451 935 OFFCURVE",
"451 1086 CURVE SMOOTH",
"451 1252 OFFCURVE",
"435 1446 OFFCURVE",
"435 1608 CURVE SMOOTH",
"435 1784 OFFCURVE",
"513 1849 OFFCURVE",
"664 1875 CURVE SMOOTH",
"804 1899 LINE",
"795 1988 LINE",
"745 1988 OFFCURVE",
"700 1988 OFFCURVE",
"628 1984 CURVE SMOOTH",
"388 1971 OFFCURVE",
"275 1863 OFFCURVE",
"275 1642 CURVE SMOOTH",
"275 1427 OFFCURVE",
"301 1269 OFFCURVE",
"301 1118 CURVE SMOOTH",
"301 1005 OFFCURVE",
"286 897 OFFCURVE",
"21 877 CURVE",
"21 713 LINE",
"286 693 OFFCURVE",
"301 585 OFFCURVE",
"301 472 CURVE SMOOTH",
"301 321 OFFCURVE",
"275 163 OFFCURVE",
"275 -52 CURVE SMOOTH",
"275 -273 OFFCURVE",
"388 -381 OFFCURVE",
"628 -394 CURVE SMOOTH",
"700 -398 OFFCURVE",
"745 -398 OFFCURVE",
"795 -398 CURVE"
);
}
);
width = 833;
},
{
layerId = "925CB40E-795E-477B-BAE7-1EE7D58841B5";
name = Bold;
paths = (
{
closed = 1;
nodes = (
"882 -268 LINE",
"754 -237 LINE SMOOTH",
"600 -200 OFFCURVE",
"544 -133 OFFCURVE",
"544 17 CURVE SMOOTH",
"544 147 OFFCURVE",
"570 333 OFFCURVE",
"570 474 CURVE SMOOTH",
"570 670 OFFCURVE",
"428 754 OFFCURVE",
"247 785 CURVE",
"428 816 OFFCURVE",
"570 890 OFFCURVE",
"570 1086 CURVE SMOOTH",
"570 1227 OFFCURVE",
"544 1413 OFFCURVE",
"544 1543 CURVE SMOOTH",
"544 1693 OFFCURVE",
"600 1760 OFFCURVE",
"754 1797 CURVE SMOOTH",
"882 1828 LINE",
"859 1985 LINE",
"785 1985 OFFCURVE",
"674 1977 OFFCURVE",
"591 1969 CURVE SMOOTH",
"325 1943 OFFCURVE",
"211 1808 OFFCURVE",
"211 1603 CURVE SMOOTH",
"211 1429 OFFCURVE",
"254 1251 OFFCURVE",
"254 1111 CURVE SMOOTH",
"254 978 OFFCURVE",
"224 900 OFFCURVE",
"7 880 CURVE",
"7 681 LINE",
"224 660 OFFCURVE",
"254 582 OFFCURVE",
"254 449 CURVE SMOOTH",
"254 309 OFFCURVE",
"211 131 OFFCURVE",
"211 -43 CURVE SMOOTH",
"211 -248 OFFCURVE",
"325 -383 OFFCURVE",
"591 -409 CURVE SMOOTH",
"674 -417 OFFCURVE",
"785 -424 OFFCURVE",
"859 -424 CURVE"
);
}
);
width = 900;
}
);
unicode = 007B;
},
{
glyphname = braceright;
lastChange = "2015-11-29 15:16:09 +0000";
layers = (
{
layerId = "DAAEA780-4710-4479-B303-5C05B40621B2";
name = Light;
paths = (
{
closed = 1;
nodes = (
"206 -394 CURVE SMOOTH",
"446 -381 OFFCURVE",
"559 -273 OFFCURVE",
"559 -52 CURVE SMOOTH",
"559 163 OFFCURVE",
"528 321 OFFCURVE",
"528 472 CURVE SMOOTH",
"528 585 OFFCURVE",
"543 693 OFFCURVE",
"813 713 CURVE",
"813 877 LINE",
"543 897 OFFCURVE",
"528 1005 OFFCURVE",
"528 1118 CURVE SMOOTH",
"528 1269 OFFCURVE",
"559 1427 OFFCURVE",
"559 1642 CURVE SMOOTH",
"559 1863 OFFCURVE",
"446 1971 OFFCURVE",
"206 1984 CURVE SMOOTH",
"134 1988 OFFCURVE",
"89 1988 OFFCURVE",
"39 1988 CURVE",
"30 1899 LINE",
"170 1875 LINE SMOOTH",
"321 1849 OFFCURVE",
"399 1784 OFFCURVE",
"399 1608 CURVE SMOOTH",
"399 1446 OFFCURVE",
"378 1252 OFFCURVE",
"378 1086 CURVE SMOOTH",
"378 935 OFFCURVE",
"453 836 OFFCURVE",
"644 791 CURVE",
"453 744 OFFCURVE",
"378 655 OFFCURVE",
"378 504 CURVE SMOOTH",
"378 338 OFFCURVE",
"399 144 OFFCURVE",
"399 -18 CURVE SMOOTH",
"399 -194 OFFCURVE",
"321 -259 OFFCURVE",
"170 -285 CURVE SMOOTH",
"30 -309 LINE",
"39 -398 LINE",
"89 -398 OFFCURVE",
"134 -398 OFFCURVE"
);
}
);
width = 833;
},
{
layerId = "925CB40E-795E-477B-BAE7-1EE7D58841B5";
name = Bold;
paths = (
{
closed = 1;
nodes = (
"308 -411 CURVE SMOOTH",
"574 -385 OFFCURVE",
"689 -251 OFFCURVE",
"689 -45 CURVE SMOOTH",
"689 129 OFFCURVE",
"645 309 OFFCURVE",
"645 449 CURVE SMOOTH",
"645 582 OFFCURVE",
"674 660 OFFCURVE",
"892 681 CURVE",
"892 880 LINE",
"674 900 OFFCURVE",
"645 978 OFFCURVE",
"645 1111 CURVE SMOOTH",
"645 1251 OFFCURVE",
"689 1431 OFFCURVE",
"689 1605 CURVE SMOOTH",
"689 1811 OFFCURVE",
"574 1945 OFFCURVE",
"308 1971 CURVE SMOOTH",
"225 1979 OFFCURVE",
"114 1985 OFFCURVE",
"41 1985 CURVE",
"17 1828 LINE",
"145 1800 LINE SMOOTH",
"299 1764 OFFCURVE",
"355 1696 OFFCURVE",
"355 1546 CURVE SMOOTH",
"355 1415 OFFCURVE",
"328 1227 OFFCURVE",
"328 1086 CURVE SMOOTH",
"328 890 OFFCURVE",
"471 815 OFFCURVE",
"651 784 CURVE",
"471 753 OFFCURVE",
"328 670 OFFCURVE",
"328 474 CURVE SMOOTH",
"328 333 OFFCURVE",
"355 145 OFFCURVE",
"355 14 CURVE SMOOTH",
"355 -136 OFFCURVE",
"299 -204 OFFCURVE",
"145 -240 CURVE SMOOTH",
"17 -268 LINE",
"41 -424 LINE",
"114 -424 OFFCURVE",
"225 -419 OFFCURVE"
);
}
);
width = 900;
}
);
unicode = 007D;
},
{
glyphname = backslash;
lastChange = "2015-11-29 15:16:09 +0000";
layers = (
{
layerId = "DAAEA780-4710-4479-B303-5C05B40621B2";
name = Light;
paths = (
{
closed = 1;
nodes = (
"855 -288 LINE",
"223 1742 LINE",
"70 1742 LINE",
"702 -288 LINE"
);
}
);
width = 928;
},
{
layerId = "925CB40E-795E-477B-BAE7-1EE7D58841B5";
name = Bold;
paths = (
{
closed = 1;
nodes = (
"425 1446 LINE",
"72 1742 LINE",
"602 8 LINE",
"955 -288 LINE"
);
}
);
width = 1031;
}
);
unicode = 005C;
},
{
glyphname = slash;
lastChange = "2015-11-29 15:16:09 +0000";
layers = (
{
layerId = "DAAEA780-4710-4479-B303-5C05B40621B2";
name = Light;
paths = (
{
closed = 1;
nodes = (
"226 -288 LINE",
"858 1742 LINE",
"705 1742 LINE",
"73 -288 LINE"
);
}
);
width = 928;
},
{
layerId = "925CB40E-795E-477B-BAE7-1EE7D58841B5";
name = Bold;
paths = (
{
closed = 1;
nodes = (
"336 -288 LINE",
"981 1742 LINE",
"698 1742 LINE",
"53 -288 LINE"
);
}
);
width = 1031;
}
);
unicode = 002F;
},
{
glyphname = brokenbar;
lastChange = "2015-11-29 15:16:09 +0000";
layers = (
{
layerId = "DAAEA780-4710-4479-B303-5C05B40621B2";
name = Light;
paths = (
{
closed = 1;
nodes = (
"216 950 LINE",
"363 950 LINE",
"363 1888 LINE",
"216 1888 LINE"
);
},
{
closed = 1;
nodes = (
"216 -298 LINE",
"363 -298 LINE",
"363 640 LINE",
"216 640 LINE"
);
}
);
width = 579;
},
{
layerId = "925CB40E-795E-477B-BAE7-1EE7D58841B5";
name = Bold;
paths = (
{
closed = 1;
nodes = (
"181 950 LINE",
"450 950 LINE",
"450 1906 LINE",
"181 1906 LINE"
);
},
{
closed = 1;
nodes = (
"181 -320 LINE",
"450 -320 LINE",
"450 636 LINE",
"181 636 LINE"
);
}
);
width = 631;
}
);
unicode = 00A6;
},
{
glyphname = bar;
lastChange = "2015-11-29 15:16:09 +0000";
layers = (
{
layerId = "DAAEA780-4710-4479-B303-5C05B40621B2";
name = Light;
paths = (
{
closed = 1;
nodes = (
"219 -298 LINE",
"366 -298 LINE",
"366 1888 LINE",
"219 1888 LINE"
);
}
);
width = 585;
},
{
layerId = "925CB40E-795E-477B-BAE7-1EE7D58841B5";
name = Bold;
paths = (
{
closed = 1;
nodes = (
"183 -320 LINE",
"451 -320 LINE",
"452 1906 LINE",
"183 1906 LINE"
);
}
);
width = 635;
}
);
unicode = 007C;
},
{
glyphname = asciicircum;
lastChange = "2015-11-29 15:16:09 +0000";
layers = (
{
layerId = "DAAEA780-4710-4479-B303-5C05B40621B2";
name = Light;
paths = (
{
closed = 1;
nodes = (
"94 873 LINE",
"173 816 LINE",
"628 1421 LINE",
"510 1421 LINE",
"984 816 LINE",
"1069 873 LINE",
"651 1531 LINE",
"493 1522 LINE"
);
}
);
width = 1162;
},
{
layerId = "925CB40E-795E-477B-BAE7-1EE7D58841B5";
name = Bold;
paths = (
{
closed = 1;
nodes = (
"69 848 LINE",
"198 746 LINE",
"706 1340 LINE",
"546 1340 LINE",
"1075 746 LINE",
"1223 848 LINE",
"759 1557 LINE",
"492 1534 LINE"
);
}
);
width = 1291;
}
);
unicode = 005E;
},
{
glyphname = underscore;
lastChange = "2015-11-29 15:16:09 +0000";
layers = (
{
layerId = "DAAEA780-4710-4479-B303-5C05B40621B2";
name = Light;
paths = (
{
closed = 1;
nodes = (
"0 -250 LINE",
"0 -363 LINE",
"1751 -363 LINE",
"1751 -250 LINE"
);
}
);
width = 1751;
},
{
layerId = "925CB40E-795E-477B-BAE7-1EE7D58841B5";
name = Bold;
paths = (
{
closed = 1;
nodes = (
"0 -250 LINE",
"0 -412 LINE",
"1751 -412 LINE",
"1751 -250 LINE"
);
}
);
width = 1751;
}
);
unicode = 005F;
},
{
glyphname = asciitilde;
lastChange = "2015-11-29 15:16:09 +0000";
layers = (
{
layerId = "DAAEA780-4710-4479-B303-5C05B40621B2";
name = Light;
paths = (
{
closed = 1;
nodes = (
"1061 739 CURVE",
"1124 688 LINE",
"1069 578 OFFCURVE",
"961 476 OFFCURVE",
"827 476 CURVE SMOOTH",
"673 476 OFFCURVE",
"541 611 OFFCURVE",
"420 611 CURVE SMOOTH",
"343 611 OFFCURVE",
"269 557 OFFCURVE",
"218 490 CURVE",
"155 541 LINE",
"210 651 OFFCURVE",
"318 753 OFFCURVE",
"452 753 CURVE SMOOTH",
"606 753 OFFCURVE",
"738 618 OFFCURVE",
"859 618 CURVE SMOOTH",
"936 618 OFFCURVE",
"1010 672 OFFCURVE"
);
}
);
width = 1279;
},
{
layerId = "925CB40E-795E-477B-BAE7-1EE7D58841B5";
name = Bold;
paths = (
{
closed = 1;
nodes = (
"236 544 CURVE",
"336 465 LINE",
"378 506 OFFCURVE",
"420 539 OFFCURVE",
"469 539 CURVE SMOOTH",
"554 539 OFFCURVE",
"652 442 OFFCURVE",
"770 442 CURVE SMOOTH",
"878 442 OFFCURVE",
"987 524 OFFCURVE",
"1048 680 CURVE",
"949 760 LINE",
"906 718 OFFCURVE",
"864 686 OFFCURVE",
"815 686 CURVE SMOOTH",
"730 686 OFFCURVE",
"632 783 OFFCURVE",
"514 783 CURVE SMOOTH",
"407 783 OFFCURVE",
"297 701 OFFCURVE"
);
}
);
width = 1283;
}
);
unicode = 007E;
},
{
glyphname = section;
lastChange = "2015-11-29 15:16:09 +0000";
layers = (
{
layerId = "DAAEA780-4710-4479-B303-5C05B40621B2";
name = Light;
paths = (
{
closed = 1;
nodes = (
"159 -166 CURVE",
"246 -217 OFFCURVE",
"415 -283 OFFCURVE",
"627 -283 CURVE SMOOTH",
"931 -283 OFFCURVE",
"1088 -135 OFFCURVE",
"1088 63 CURVE SMOOTH",
"1088 260 OFFCURVE",
"933 329 OFFCURVE",
"697 432 CURVE SMOOTH",
"414 556 OFFCURVE",
"266 625 OFFCURVE",
"266 772 CURVE SMOOTH",
"266 874 OFFCURVE",
"337 982 OFFCURVE",
"436 1033 CURVE",
"388 1073 LINE",
"242 1025 OFFCURVE",
"113 903 OFFCURVE",
"113 724 CURVE SMOOTH",
"113 531 OFFCURVE",
"263 436 OFFCURVE",
"525 319 CURVE SMOOTH",
"771 209 OFFCURVE",
"927 165 OFFCURVE",
"927 18 CURVE SMOOTH",
"927 -98 OFFCURVE",
"829 -182 OFFCURVE",
"652 -182 CURVE SMOOTH",
"531 -182 OFFCURVE",
"423 -148 OFFCURVE",
"361 -100 CURVE SMOOTH",
"332 -76 OFFCURVE",
"321 -54 OFFCURVE",
"317 -30 CURVE SMOOTH",
"283 167 LINE",
"177 167 LINE",
"159 56 OFFCURVE",
"152 -56 OFFCURVE"
);
},
{
closed = 1;
nodes = (
"1058 1548 CURVE",
"981 1598 OFFCURVE",
"806 1645 OFFCURVE",
"630 1645 CURVE SMOOTH",
"317 1645 OFFCURVE",
"174 1497 OFFCURVE",
"174 1310 CURVE SMOOTH",
"174 1108 OFFCURVE",
"340 1021 OFFCURVE",
"553 926 CURVE SMOOTH",
"832 802 OFFCURVE",
"976 736 OFFCURVE",
"976 590 CURVE SMOOTH",
"976 488 OFFCURVE",
"905 380 OFFCURVE",
"806 329 CURVE",
"854 289 LINE",
"1005 339 OFFCURVE",
"1129 462 OFFCURVE",
"1129 638 CURVE SMOOTH",
"1129 835 OFFCURVE",
"975 926 OFFCURVE",
"725 1039 CURVE SMOOTH",
"496 1142 OFFCURVE",
"335 1198 OFFCURVE",
"335 1350 CURVE SMOOTH",
"335 1460 OFFCURVE",
"420 1544 OFFCURVE",
"600 1544 CURVE SMOOTH",
"704 1544 OFFCURVE",
"805 1516 OFFCURVE",
"855 1481 CURVE SMOOTH",
"883 1461 OFFCURVE",
"895 1441 OFFCURVE",
"900 1412 CURVE SMOOTH",
"934 1215 LINE",
"1040 1215 LINE",
"1058 1326 OFFCURVE",
"1065 1438 OFFCURVE"
);
}
);
width = 1241;
},
{
layerId = "925CB40E-795E-477B-BAE7-1EE7D58841B5";
name = Bold;
paths = (
{
closed = 1;
nodes = (
"138 -177 CURVE",
"203 -214 OFFCURVE",
"394 -287 OFFCURVE",
"610 -287 CURVE SMOOTH",
"983 -287 OFFCURVE",
"1128 -105 OFFCURVE",
"1128 78 CURVE SMOOTH",
"1128 280 OFFCURVE",
"998 368 OFFCURVE",
"697 504 CURVE SMOOTH",
"444 618 OFFCURVE",
"329 686 OFFCURVE",
"329 808 CURVE SMOOTH",
"329 870 OFFCURVE",
"366 954 OFFCURVE",
"407 1000 CURVE",
"338 1052 LINE",
"213 1022 OFFCURVE",
"81 877 OFFCURVE",
"81 677 CURVE SMOOTH",
"81 476 OFFCURVE",
"226 360 OFFCURVE",
"436 267 CURVE SMOOTH",
"709 146 OFFCURVE",
"823 99 OFFCURVE",
"823 -5 CURVE SMOOTH",
"823 -86 OFFCURVE",
"753 -141 OFFCURVE",
"631 -141 CURVE SMOOTH",
"558 -141 OFFCURVE",
"484 -120 OFFCURVE",
"439 -85 CURVE SMOOTH",
"408 -62 OFFCURVE",
"399 -37 OFFCURVE",
"394 -17 CURVE SMOOTH",
"359 151 LINE",
"155 151 LINE",
"136 41 OFFCURVE",
"130 -68 OFFCURVE"
);
},
{
closed = 1;
nodes = (
"1087 1562 CURVE",
"1024 1599 OFFCURVE",
"846 1660 OFFCURVE",
"647 1660 CURVE SMOOTH",
"285 1660 OFFCURVE",
"147 1478 OFFCURVE",
"147 1296 CURVE SMOOTH",
"147 1093 OFFCURVE",
"275 1006 OFFCURVE",
"558 869 CURVE SMOOTH",
"811 752 OFFCURVE",
"926 686 OFFCURVE",
"926 565 CURVE SMOOTH",
"926 503 OFFCURVE",
"888 419 OFFCURVE",
"847 373 CURVE",
"917 321 LINE",
"1043 351 OFFCURVE",
"1174 496 OFFCURVE",
"1174 696 CURVE SMOOTH",
"1174 897 OFFCURVE",
"1028 1011 OFFCURVE",
"820 1106 CURVE SMOOTH",
"563 1229 OFFCURVE",
"452 1274 OFFCURVE",
"452 1379 CURVE SMOOTH",
"452 1459 OFFCURVE",
"513 1514 OFFCURVE",
"625 1514 CURVE SMOOTH",
"686 1514 OFFCURVE",
"749 1497 OFFCURVE",
"786 1470 CURVE SMOOTH",
"818 1447 OFFCURVE",
"826 1422 OFFCURVE",
"831 1402 CURVE SMOOTH",
"866 1234 LINE",
"1070 1234 LINE",
"1089 1343 OFFCURVE",
"1095 1453 OFFCURVE"
);
}
);
width = 1253;
}
);
unicode = 00A7;
},
{
glyphname = copyright;
lastChange = "2015-11-29 15:16:09 +0000";
layers = (
{
layerId = "DAAEA780-4710-4479-B303-5C05B40621B2";
name = Light;
paths = (
{
closed = 1;
nodes = (
"975 295 CURVE SMOOTH",
"1145 295 OFFCURVE",
"1267 372 OFFCURVE",
"1325 470 CURVE",
"1275 522 LINE",
"1219 460 OFFCURVE",
"1120 422 OFFCURVE",
"1015 422 CURVE SMOOTH",
"816 422 OFFCURVE",
"712 560 OFFCURVE",
"712 806 CURVE SMOOTH",
"712 1033 OFFCURVE",
"800 1182 OFFCURVE",
"983 1182 CURVE SMOOTH",
"1039 1182 OFFCURVE",
"1095 1168 OFFCURVE",
"1132 1144 CURVE SMOOTH",
"1166 1121 OFFCURVE",
"1172 1099 OFFCURVE",
"1177 1077 CURVE SMOOTH",
"1209 943 LINE",
"1300 943 LINE",
"1316 1033 OFFCURVE",
"1322 1128 OFFCURVE",
"1319 1208 CURVE",
"1272 1241 OFFCURVE",
"1146 1280 OFFCURVE",
"1019 1280 CURVE SMOOTH",
"737 1280 OFFCURVE",
"550 1088 OFFCURVE",
"550 776 CURVE SMOOTH",
"550 495 OFFCURVE",
"702 295 OFFCURVE"
);
},
{
closed = 1;
nodes = (
"218 785 CURVE SMOOTH",
"218 1240 OFFCURVE",
"538 1570 OFFCURVE",
"980 1570 CURVE SMOOTH",
"1422 1570 OFFCURVE",
"1742 1240 OFFCURVE",
"1742 785 CURVE SMOOTH",
"1742 330 OFFCURVE",
"1422 0 OFFCURVE",
"980 0 CURVE SMOOTH",
"538 0 OFFCURVE",
"218 330 OFFCURVE"
);
},
{
closed = 1;
nodes = (
"105 784 CURVE SMOOTH",
"105 280 OFFCURVE",
"481 -101 OFFCURVE",
"980 -101 CURVE SMOOTH",
"1479 -101 OFFCURVE",
"1856 280 OFFCURVE",
"1856 784 CURVE SMOOTH",
"1856 1288 OFFCURVE",
"1479 1667 OFFCURVE",
"980 1667 CURVE SMOOTH",
"481 1667 OFFCURVE",
"105 1288 OFFCURVE"
);
}
);
width = 1961;
},
{
layerId = "925CB40E-795E-477B-BAE7-1EE7D58841B5";
name = Bold;
paths = (
{
closed = 1;
nodes = (
"993 259 CURVE SMOOTH",
"1190 259 OFFCURVE",
"1335 351 OFFCURVE",
"1384 479 CURVE",
"1313 542 LINE",
"1261 490 OFFCURVE",
"1167 454 OFFCURVE",
"1080 454 CURVE SMOOTH",
"922 454 OFFCURVE",
"835 575 OFFCURVE",
"835 818 CURVE SMOOTH",
"835 1046 OFFCURVE",
"911 1142 OFFCURVE",
"1013 1142 CURVE SMOOTH",
"1058 1142 OFFCURVE",
"1096 1123 OFFCURVE",
"1119 1103 CURVE SMOOTH",
"1139 1085 OFFCURVE",
"1147 1067 OFFCURVE",
"1154 1040 CURVE SMOOTH",
"1198 869 LINE",
"1352 869 LINE",
"1374 986 OFFCURVE",
"1379 1101 OFFCURVE",
"1366 1211 CURVE",
"1292 1262 OFFCURVE",
"1161 1301 OFFCURVE",
"1029 1301 CURVE SMOOTH",
"745 1301 OFFCURVE",
"530 1121 OFFCURVE",
"530 771 CURVE SMOOTH",
"530 456 OFFCURVE",
"703 259 OFFCURVE"
);
},
{
closed = 1;
nodes = (
"238 782 CURVE SMOOTH",
"238 1242 OFFCURVE",
"552 1564 OFFCURVE",
"998 1564 CURVE SMOOTH",
"1445 1564 OFFCURVE",
"1754 1242 OFFCURVE",
"1754 782 CURVE SMOOTH",
"1754 321 OFFCURVE",
"1444 0 OFFCURVE",
"997 0 CURVE SMOOTH",
"551 0 OFFCURVE",
"238 321 OFFCURVE"
);
},
{
closed = 1;
nodes = (
"78 781 CURVE SMOOTH",
"78 251 OFFCURVE",
"466 -136 OFFCURVE",
"997 -136 CURVE SMOOTH",
"1529 -136 OFFCURVE",
"1914 251 OFFCURVE",
"1914 782 CURVE SMOOTH",
"1914 1313 OFFCURVE",
"1530 1699 OFFCURVE",
"998 1699 CURVE SMOOTH",
"467 1699 OFFCURVE",
"78 1313 OFFCURVE"
);
}
);
width = 1992;
}
);
unicode = 00A9;
},
{
glyphname = registered;
lastChange = "2015-11-29 15:16:09 +0000";
layers = (
{
layerId = "DAAEA780-4710-4479-B303-5C05B40621B2";
name = Light;
paths = (
{
closed = 1;
nodes = (
"857 1055 LINE",
"913 1035 OFFCURVE",
"945 971 OFFCURVE",
"973 912 CURVE SMOOTH",
"1051 749 LINE SMOOTH",
"1078 693 OFFCURVE",
"1094 670 OFFCURVE",
"1140 670 CURVE SMOOTH",
"1290 670 LINE",
"1290 747 LINE",
"1214 764 OFFCURVE",
"1200 775 OFFCURVE",
"1179 812 CURVE SMOOTH",
"1096 960 LINE SMOOTH",
"1063 1019 OFFCURVE",
"1032 1043 OFFCURVE",
"975 1062 CURVE"
);
},
{
closed = 1;
nodes = (
"213 1092 CURVE SMOOTH",
"213 1488 OFFCURVE",
"492 1774 OFFCURVE",
"877 1774 CURVE SMOOTH",
"1262 1774 OFFCURVE",
"1541 1488 OFFCURVE",
"1541 1093 CURVE SMOOTH",
"1541 697 OFFCURVE",
"1261 409 OFFCURVE",
"876 409 CURVE SMOOTH",
"492 409 OFFCURVE",
"213 696 OFFCURVE"
);
},
{
closed = 1;
nodes = (
"110 1092 CURVE SMOOTH",
"110 649 OFFCURVE",
"440 315 OFFCURVE",
"877 315 CURVE SMOOTH",
"1315 315 OFFCURVE",
"1645 650 OFFCURVE",
"1645 1092 CURVE SMOOTH",
"1645 1533 OFFCURVE",
"1315 1865 OFFCURVE",
"877 1865 CURVE SMOOTH",
"440 1865 OFFCURVE",
"110 1534 OFFCURVE"
);
},
{
closed = 1;
nodes = (
"983 1040 LINE",
"1119 1057 OFFCURVE",
"1214 1141 OFFCURVE",
"1214 1293 CURVE SMOOTH",
"1214 1448 OFFCURVE",
"1101 1522 OFFCURVE",
"903 1522 CURVE SMOOTH",
"854 1522 OFFCURVE",
"759 1518 OFFCURVE",
"666 1518 CURVE SMOOTH",
"497 1518 LINE",
"497 1444 LINE",
"567 1429 LINE SMOOTH",
"590 1424 OFFCURVE",
"603 1410 OFFCURVE",
"603 1386 CURVE SMOOTH",
"603 797 LINE SMOOTH",
"603 773 OFFCURVE",
"591 759 OFFCURVE",
"568 753 CURVE SMOOTH",
"497 736 LINE",
"497 670 LINE",
"855 670 LINE",
"855 736 LINE",
"774 752 LINE SMOOTH",
"750 757 OFFCURVE",
"738 771 OFFCURVE",
"738 795 CURVE SMOOTH",
"738 1431 LINE",
"787 1439 OFFCURVE",
"814 1440 OFFCURVE",
"849 1440 CURVE SMOOTH",
"1003 1440 OFFCURVE",
"1066 1398 OFFCURVE",
"1066 1284 CURVE SMOOTH",
"1066 1164 OFFCURVE",
"997 1107 OFFCURVE",
"880 1107 CURVE SMOOTH",
"820 1107 OFFCURVE",
"761 1108 OFFCURVE",
"700 1114 CURVE",
"700 1021 LINE",
"935 1019 LINE"
);
}
);
width = 1755;
},
{
layerId = "925CB40E-795E-477B-BAE7-1EE7D58841B5";
name = Bold;
paths = (
{
closed = 1;
nodes = (
"834 1040 LINE",
"868 1020 OFFCURVE",
"897 982 OFFCURVE",
"923 905 CURVE SMOOTH",
"967 777 LINE SMOOTH",
"987 718 OFFCURVE",
"1011 675 OFFCURVE",
"1050 675 CURVE SMOOTH",
"1273 675 LINE",
"1273 770 LINE",
"1212 788 OFFCURVE",
"1194 794 OFFCURVE",
"1177 833 CURVE SMOOTH",
"1129 949 LINE SMOOTH",
"1101 1016 OFFCURVE",
"1060 1049 OFFCURVE",
"957 1061 CURVE"
);
},
{
closed = 1;
nodes = (
"224 1091 CURVE SMOOTH",
"224 1474 OFFCURVE",
"485 1742 OFFCURVE",
"857 1742 CURVE SMOOTH",
"1229 1742 OFFCURVE",
"1487 1474 OFFCURVE",
"1487 1091 CURVE SMOOTH",
"1487 707 OFFCURVE",
"1229 440 OFFCURVE",
"858 440 CURVE SMOOTH",
"485 440 OFFCURVE",
"224 708 OFFCURVE"
);
},
{
closed = 1;
nodes = (
"80 1091 CURVE SMOOTH",
"80 643 OFFCURVE",
"409 316 OFFCURVE",
"857 316 CURVE SMOOTH",
"1305 316 OFFCURVE",
"1630 643 OFFCURVE",
"1630 1091 CURVE SMOOTH",
"1630 1539 OFFCURVE",
"1305 1865 OFFCURVE",
"857 1865 CURVE SMOOTH",
"409 1865 OFFCURVE",
"80 1539 OFFCURVE"
);
},
{
closed = 1;
nodes = (
"976 1037 LINE",
"1160 1064 OFFCURVE",
"1207 1168 OFFCURVE",
"1207 1277 CURVE SMOOTH",
"1207 1450 OFFCURVE",
"1112 1520 OFFCURVE",
"863 1520 CURVE SMOOTH",
"791 1520 OFFCURVE",
"734 1515 OFFCURVE",
"663 1517 CURVE SMOOTH",
"470 1517 LINE",
"470 1418 LINE",
"523 1405 LINE SMOOTH",
"542 1401 OFFCURVE",
"552 1387 OFFCURVE",
"552 1366 CURVE SMOOTH",
"552 817 LINE SMOOTH",
"552 797 OFFCURVE",
"543 783 OFFCURVE",
"524 778 CURVE SMOOTH",
"470 762 LINE",
"470 675 LINE",
"862 675 LINE",
"862 762 LINE",
"802 775 LINE SMOOTH",
"782 779 OFFCURVE",
"772 793 OFFCURVE",
"772 814 CURVE SMOOTH",
"772 1404 LINE",
"797 1410 OFFCURVE",
"823 1413 OFFCURVE",
"846 1413 CURVE SMOOTH",
"936 1413 OFFCURVE",
"976 1371 OFFCURVE",
"976 1264 CURVE SMOOTH",
"976 1161 OFFCURVE",
"925 1109 OFFCURVE",
"866 1109 CURVE SMOOTH",
"828 1109 OFFCURVE",
"790 1109 OFFCURVE",
"725 1116 CURVE",
"725 1002 LINE",
"900 1003 LINE"
);
}
);
width = 1711;
}
);
unicode = 00AE;
},
{
glyphname = trademark;
lastChange = "2015-11-29 15:16:09 +0000";
layers = (
{
layerId = "DAAEA780-4710-4479-B303-5C05B40621B2";
name = Light;
paths = (
{
closed = 1;
nodes = (
"715 778 LINE",
"715 846 LINE",
"609 862 LINE SMOOTH",
"578 867 OFFCURVE",
"561 883 OFFCURVE",
"561 914 CURVE SMOOTH",
"561 1476 LINE",
"702 1476 LINE SMOOTH",
"733 1476 OFFCURVE",
"749 1461 OFFCURVE",
"756 1433 CURVE SMOOTH",
"788 1291 LINE",
"857 1290 LINE",
"864 1385 OFFCURVE",
"863 1477 OFFCURVE",
"853 1562 CURVE",
"132 1562 LINE",
"116 1476 OFFCURVE",
"115 1384 OFFCURVE",
"120 1290 CURVE",
"189 1291 LINE",
"221 1433 LINE SMOOTH",
"227 1461 OFFCURVE",
"247 1476 OFFCURVE",
"276 1476 CURVE SMOOTH",
"415 1476 LINE",
"415 914 LINE SMOOTH",
"415 883 OFFCURVE",
"397 868 OFFCURVE",
"367 862 CURVE SMOOTH",
"266 843 LINE",
"266 778 LINE"
);
},
{
closed = 1;
nodes = (
"1225 778 LINE",
"1225 846 LINE",
"1112 869 LINE",
"1191 1506 LINE",
"1157 1506 LINE",
"1409 770 LINE",
"1500 770 LINE",
"1734 1506 LINE",
"1699 1506 LINE",
"1787 869 LINE",
"1681 846 LINE",
"1681 778 LINE",
"2036 778 LINE",
"2036 846 LINE",
"1974 862 LINE SMOOTH",
"1945 870 OFFCURVE",
"1930 882 OFFCURVE",
"1925 913 CURVE SMOOTH",
"1851 1419 LINE SMOOTH",
"1846 1451 OFFCURVE",
"1866 1468 OFFCURVE",
"1897 1473 CURVE SMOOTH",
"1967 1484 LINE",
"1967 1562 LINE",
"1659 1562 LINE",
"1451 895 LINE",
"1507 895 LINE",
"1287 1562 LINE",
"971 1562 LINE",
"971 1484 LINE",
"1042 1473 LINE SMOOTH",
"1073 1468 OFFCURVE",
"1093 1452 OFFCURVE",
"1089 1420 CURVE SMOOTH",
"1025 914 LINE SMOOTH",
"1021 884 OFFCURVE",
"1006 869 OFFCURVE",
"976 862 CURVE SMOOTH",
"908 846 LINE",
"908 778 LINE"
);
}
);
width = 2171;
},
{
layerId = "925CB40E-795E-477B-BAE7-1EE7D58841B5";
name = Bold;
paths = (
{
closed = 1;
nodes = (
"771 740 LINE",
"771 828 LINE",
"662 848 LINE SMOOTH",
"638 852 OFFCURVE",
"624 868 OFFCURVE",
"624 893 CURVE SMOOTH",
"624 1453 LINE",
"708 1453 LINE SMOOTH",
"739 1453 OFFCURVE",
"752 1440 OFFCURVE",
"758 1415 CURVE SMOOTH",
"799 1244 LINE",
"902 1244 LINE",
"910 1359 OFFCURVE",
"909 1467 OFFCURVE",
"897 1562 CURVE",
"103 1562 LINE",
"87 1467 OFFCURVE",
"82 1367 OFFCURVE",
"90 1244 CURVE",
"195 1244 LINE",
"244 1417 LINE SMOOTH",
"250 1441 OFFCURVE",
"265 1453 OFFCURVE",
"294 1453 CURVE SMOOTH",
"374 1453 LINE",
"374 892 LINE SMOOTH",
"374 867 OFFCURVE",
"360 853 OFFCURVE",
"336 847 CURVE SMOOTH",
"235 828 LINE",
"235 740 LINE"
);
},
{
closed = 1;
nodes = (
"1289 740 LINE",
"1289 828 LINE",
"1182 846 LINE",
"1266 1498 LINE",
"1229 1498 LINE",
"1471 738 LINE",
"1642 738 LINE",
"1870 1491 LINE",
"1832 1491 LINE",
"1908 846 LINE",
"1805 828 LINE",
"1805 740 LINE",
"2248 740 LINE",
"2248 828 LINE",
"2180 847 LINE SMOOTH",
"2157 854 OFFCURVE",
"2144 867 OFFCURVE",
"2141 892 CURVE SMOOTH",
"2075 1405 LINE SMOOTH",
"2072 1431 OFFCURVE",
"2087 1446 OFFCURVE",
"2113 1451 CURVE SMOOTH",
"2182 1465 LINE",
"2182 1562 LINE",
"1765 1562 LINE",
"1583 953 LINE",
"1637 953 LINE",
"1464 1562 LINE",
"1008 1562 LINE",
"1008 1465 LINE",
"1085 1450 LINE SMOOTH",
"1112 1445 OFFCURVE",
"1127 1432 OFFCURVE",
"1123 1405 CURVE SMOOTH",
"1050 891 LINE SMOOTH",
"1045 858 OFFCURVE",
"1034 853 OFFCURVE",
"1012 847 CURVE SMOOTH",
"941 828 LINE",
"941 740 LINE"
);
}
);
width = 2349;
}
);
unicode = 2122;
},
{
glyphname = ordfeminine;
lastChange = "2015-11-29 15:16:09 +0000";
layers = (
{
layerId = "DAAEA780-4710-4479-B303-5C05B40621B2";
name = Light;
paths = (
{
closed = 1;
nodes = (
"373 678 CURVE SMOOTH",
"520 678 OFFCURVE",
"650 751 OFFCURVE",
"709 854 CURVE",
"691 894 LINE",
"640 831 OFFCURVE",
"528 784 OFFCURVE",
"429 784 CURVE SMOOTH",
"335 784 OFFCURVE",
"291 827 OFFCURVE",
"291 903 CURVE SMOOTH",
"291 997 OFFCURVE",
"364 1038 OFFCURVE",
"496 1049 CURVE SMOOTH",
"687 1065 LINE",
"687 1144 LINE",
"470 1128 LINE SMOOTH",
"309 1116 OFFCURVE",
"118 1064 OFFCURVE",
"118 886 CURVE SMOOTH",
"118 751 OFFCURVE",
"228 678 OFFCURVE"
);
},
{
closed = 1;
nodes = (
"183 1360 LINE",
"260 1429 OFFCURVE",
"352 1459 OFFCURVE",
"454 1459 CURVE SMOOTH",
"591 1459 OFFCURVE",
"655 1404 OFFCURVE",
"655 1245 CURVE SMOOTH",
"655 821 LINE",
"666 731 OFFCURVE",
"716 682 OFFCURVE",
"802 682 CURVE SMOOTH",
"852 682 OFFCURVE",
"927 700 OFFCURVE",
"952 710 CURVE",
"952 781 LINE",
"859 789 LINE SMOOTH",
"829 792 OFFCURVE",
"813 804 OFFCURVE",
"813 837 CURVE SMOOTH",
"813 1268 LINE SMOOTH",
"813 1479 OFFCURVE",
"708 1578 OFFCURVE",
"498 1578 CURVE SMOOTH",
"334 1578 OFFCURVE",
"186 1515 OFFCURVE",
"145 1399 CURVE"
);
}
);
width = 1050;
},
{
layerId = "925CB40E-795E-477B-BAE7-1EE7D58841B5";
name = Bold;
paths = (
{
closed = 1;
nodes = (
"352 678 CURVE SMOOTH",
"495 678 OFFCURVE",
"603 732 OFFCURVE",
"659 838 CURVE",
"637 903 LINE",
"600 867 OFFCURVE",
"551 845 OFFCURVE",
"491 845 CURVE SMOOTH",
"429 845 OFFCURVE",
"407 872 OFFCURVE",
"407 932 CURVE SMOOTH",
"407 987 OFFCURVE",
"426 1045 OFFCURVE",
"524 1049 CURVE SMOOTH",
"645 1054 LINE",
"645 1162 LINE",
"438 1153 LINE SMOOTH",
"245 1144 OFFCURVE",
"83 1050 OFFCURVE",
"83 893 CURVE SMOOTH",
"83 766 OFFCURVE",
"184 678 OFFCURVE"
);
},
{
closed = 1;
nodes = (
"183 1297 LINE",
"252 1354 OFFCURVE",
"333 1383 OFFCURVE",
"429 1383 CURVE SMOOTH",
"537 1383 OFFCURVE",
"597 1349 OFFCURVE",
"597 1238 CURVE SMOOTH",
"597 846 LINE",
"624 716 OFFCURVE",
"704 680 OFFCURVE",
"822 680 CURVE SMOOTH",
"891 680 OFFCURVE",
"974 698 OFFCURVE",
"1021 710 CURVE",
"1021 825 LINE",
"945 834 LINE SMOOTH",
"920 837 OFFCURVE",
"905 848 OFFCURVE",
"905 880 CURVE SMOOTH",
"905 1236 LINE SMOOTH",
"905 1461 OFFCURVE",
"795 1582 OFFCURVE",
"525 1582 CURVE SMOOTH",
"296 1582 OFFCURVE",
"167 1494 OFFCURVE",
"111 1357 CURVE"
);
}
);
width = 1094;
}
);
unicode = 00AA;
},
{
glyphname = ordmasculine;
lastChange = "2015-11-29 15:16:09 +0000";
layers = (
{
anchors = (
{
name = btm;
position = "{517, 561}";
},
{
name = top;
position = "{536, 1982}";
}
);
layerId = "DAAEA780-4710-4479-B303-5C05B40621B2";
name = Light;
paths = (
{
closed = 1;
nodes = (
"774 1114 CURVE SMOOTH",
"774 866 OFFCURVE",
"699 761 OFFCURVE",
"538 761 CURVE SMOOTH",
"345 761 OFFCURVE",
"288 910 OFFCURVE",
"288 1135 CURVE SMOOTH",
"288 1384 OFFCURVE",
"364 1488 OFFCURVE",
"525 1488 CURVE SMOOTH",
"717 1488 OFFCURVE",
"774 1342 OFFCURVE"
);
},
{
closed = 1;
nodes = (
"110 1119 CURVE SMOOTH",
"110 850 OFFCURVE",
"230 672 OFFCURVE",
"516 672 CURVE SMOOTH",
"757 672 OFFCURVE",
"953 809 OFFCURVE",
"953 1129 CURVE SMOOTH",
"953 1399 OFFCURVE",
"832 1578 OFFCURVE",
"546 1578 CURVE SMOOTH",
"306 1578 OFFCURVE",
"110 1440 OFFCURVE"
);
}
);
width = 1062;
},
{
anchors = (
{
name = btm;
position = "{488, 561}";
},
{
name = top;
position = "{542, 1982}";
}
);
layerId = "925CB40E-795E-477B-BAE7-1EE7D58841B5";
name = Bold;
paths = (
{
closed = 1;
nodes = (
"674 1112 CURVE SMOOTH",
"674 866 OFFCURVE",
"633 796 OFFCURVE",
"549 796 CURVE SMOOTH",
"449 796 OFFCURVE",
"419 868 OFFCURVE",
"419 1134 CURVE SMOOTH",
"419 1381 OFFCURVE",
"461 1451 OFFCURVE",
"544 1451 CURVE SMOOTH",
"645 1451 OFFCURVE",
"674 1379 OFFCURVE"
);
},
{
closed = 1;
nodes = (
"77 1112 CURVE SMOOTH",
"77 795 OFFCURVE",
"256 669 OFFCURVE",
"534 669 CURVE SMOOTH",
"811 669 OFFCURVE",
"1017 784 OFFCURVE",
"1017 1134 CURVE SMOOTH",
"1017 1452 OFFCURVE",
"839 1578 OFFCURVE",
"559 1578 CURVE SMOOTH",
"283 1578 OFFCURVE",
"77 1460 OFFCURVE"
);
}
);
width = 1093;
}
);
rightMetricsKey = "=|";
unicode = 00BA;
},
{
glyphname = guilsinglleft;
lastChange = "2015-11-29 15:16:09 +0000";
layers = (
{
layerId = "DAAEA780-4710-4479-B303-5C05B40621B2";
name = Light;
paths = (
{
closed = 1;
nodes = (
"97 544 LINE",
"644 111 LINE",
"713 182 LINE",
"256 644 LINE",
"256 586 LINE",
"707 1058 LINE",
"644 1125 LINE",
"97 680 LINE"
);
}
);
width = 808;
},
{
layerId = "925CB40E-795E-477B-BAE7-1EE7D58841B5";
name = Bold;
paths = (
{
closed = 1;
nodes = (
"67 529 LINE",
"663 74 LINE",
"765 196 LINE",
"422 644 LINE",
"422 574 LINE",
"764 1029 LINE",
"663 1154 LINE",
"67 690 LINE"
);
}
);
width = 840;
}
);
unicode = 2039;
},
{
glyphname = quoteleft;
lastChange = "2015-11-29 15:16:09 +0000";
layers = (
{
layerId = "DAAEA780-4710-4479-B303-5C05B40621B2";
name = Light;
paths = (
{
closed = 1;
nodes = (
"293 1000 CURVE SMOOTH",
"349 1000 OFFCURVE",
"393 1047 OFFCURVE",
"393 1101 CURVE SMOOTH",
"393 1136 OFFCURVE",
"374 1163 OFFCURVE",
"347 1192 CURVE SMOOTH",
"301 1242 OFFCURVE",
"250 1298 OFFCURVE",
"250 1421 CURVE SMOOTH",
"250 1591 OFFCURVE",
"328 1687 OFFCURVE",
"394 1749 CURVE",
"344 1816 LINE",
"255 1754 OFFCURVE",
"108 1592 OFFCURVE",
"108 1336 CURVE SMOOTH",
"108 1145 OFFCURVE",
"195 1000 OFFCURVE"
);
}
);
width = 512;
},
{
layerId = "925CB40E-795E-477B-BAE7-1EE7D58841B5";
name = Bold;
paths = (
{
closed = 1;
nodes = (
"311 887 CURVE SMOOTH",
"410 887 OFFCURVE",
"485 959 OFFCURVE",
"485 1062 CURVE SMOOTH",
"485 1127 OFFCURVE",
"454 1169 OFFCURVE",
"424 1207 CURVE SMOOTH",
"376 1267 OFFCURVE",
"343 1314 OFFCURVE",
"343 1412 CURVE SMOOTH",
"343 1588 OFFCURVE",
"444 1702 OFFCURVE",
"493 1750 CURVE",
"407 1860 LINE",
"255 1772 OFFCURVE",
"69 1524 OFFCURVE",
"69 1243 CURVE SMOOTH",
"69 1035 OFFCURVE",
"171 887 OFFCURVE"
);
}
);
width = 574;
}
);
unicode = 2018;
},
{
glyphname = quoteright;
lastChange = "2015-11-29 15:16:09 +0000";
layers = (
{
layerId = "DAAEA780-4710-4479-B303-5C05B40621B2";
name = Light;
paths = (
{
closed = 1;
nodes = (
"224 1797 CURVE SMOOTH",
"168 1797 OFFCURVE",
"124 1750 OFFCURVE",
"124 1696 CURVE SMOOTH",
"124 1661 OFFCURVE",
"143 1634 OFFCURVE",
"170 1605 CURVE SMOOTH",
"216 1555 OFFCURVE",
"267 1499 OFFCURVE",
"267 1376 CURVE SMOOTH",
"267 1206 OFFCURVE",
"189 1110 OFFCURVE",
"123 1048 CURVE",
"173 981 LINE",
"262 1043 OFFCURVE",
"409 1205 OFFCURVE",
"409 1461 CURVE SMOOTH",
"409 1652 OFFCURVE",
"322 1797 OFFCURVE"
);
}
);
width = 512;
},
{
layerId = "925CB40E-795E-477B-BAE7-1EE7D58841B5";
name = Bold;
paths = (
{
closed = 1;
nodes = (
"267 1841 CURVE SMOOTH",
"168 1841 OFFCURVE",
"94 1769 OFFCURVE",
"94 1666 CURVE SMOOTH",
"94 1600 OFFCURVE",
"125 1559 OFFCURVE",
"154 1521 CURVE SMOOTH",
"202 1461 OFFCURVE",
"235 1414 OFFCURVE",
"235 1315 CURVE SMOOTH",
"235 1139 OFFCURVE",
"134 1026 OFFCURVE",
"85 978 CURVE",
"172 868 LINE",
"323 956 OFFCURVE",
"509 1204 OFFCURVE",
"509 1485 CURVE SMOOTH",
"509 1693 OFFCURVE",
"407 1841 OFFCURVE"
);
}
);
width = 573;
}
);
unicode = 2019;
},
{
glyphname = dagger;
lastChange = "2015-11-29 15:16:09 +0000";
layers = (
{
layerId = "DAAEA780-4710-4479-B303-5C05B40621B2";
name = Light;
paths = (
{
closed = 1;
nodes = (
"522 -246 LINE",
"570 1506 LINE",
"570 1662 LINE",
"384 1662 LINE",
"384 1506 LINE",
"432 -246 LINE"
);
},
{
closed = 1;
nodes = (
"555 1000 LINE",
"556 1030 LINE SMOOTH",
"557 1069 OFFCURVE",
"580 1082 OFFCURVE",
"621 1090 CURVE SMOOTH",
"869 1139 LINE",
"869 1241 LINE",
"477 1226 LINE",
"85 1241 LINE",
"85 1139 LINE",
"332 1090 LINE SMOOTH",
"374 1082 OFFCURVE",
"397 1069 OFFCURVE",
"398 1030 CURVE SMOOTH",
"399 1000 LINE"
);
}
);
width = 953;
},
{
layerId = "925CB40E-795E-477B-BAE7-1EE7D58841B5";
name = Bold;
paths = (
{
closed = 1;
nodes = (
"585 -255 LINE",
"699 1480 LINE",
"699 1671 LINE",
"320 1671 LINE",
"320 1480 LINE",
"434 -255 LINE"
);
},
{
closed = 1;
nodes = (
"663 949 LINE",
"666 983 LINE SMOOTH",
"668 1013 OFFCURVE",
"682 1031 OFFCURVE",
"710 1039 CURVE SMOOTH",
"948 1105 LINE",
"948 1250 LINE",
"509 1235 LINE",
"70 1250 LINE",
"70 1105 LINE",
"308 1039 LINE SMOOTH",
"336 1031 OFFCURVE",
"350 1013 OFFCURVE",
"352 983 CURVE SMOOTH",
"355 949 LINE"
);
}
);
width = 1019;
}
);
unicode = 2020;
},
{
glyphname = daggerdbl;
lastChange = "2015-11-29 21:46:03 +0000";
layers = (
{
layerId = "DAAEA780-4710-4479-B303-5C05B40621B2";
name = Light;
paths = (
{
closed = 1;
nodes = (
"587 1506 LINE",
"587 1662 LINE",
"401 1662 LINE",
"401 1506 LINE",
"449 -246 LINE",
"537 -248 LINE"
);
},
{
closed = 1;
nodes = (
"558 505 LINE",
"559 535 LINE SMOOTH",
"560 574 OFFCURVE",
"583 587 OFFCURVE",
"625 595 CURVE SMOOTH",
"886 644 LINE",
"886 746 LINE",
"494 731 LINE",
"102 746 LINE",
"102 644 LINE",
"362 595 LINE SMOOTH",
"405 587 OFFCURVE",
"428 574 OFFCURVE",
"429 535 CURVE SMOOTH",
"430 505 LINE"
);
},
{
closed = 1;
nodes = (
"572 1000 LINE",
"573 1030 LINE SMOOTH",
"574 1069 OFFCURVE",
"597 1082 OFFCURVE",
"638 1090 CURVE SMOOTH",
"886 1139 LINE",
"886 1241 LINE",
"494 1226 LINE",
"102 1241 LINE",
"102 1139 LINE",
"349 1090 LINE SMOOTH",
"391 1082 OFFCURVE",
"414 1069 OFFCURVE",
"415 1030 CURVE SMOOTH",
"416 1000 LINE"
);
}
);
width = 953;
},
{
layerId = "925CB40E-795E-477B-BAE7-1EE7D58841B5";
name = Bold;
paths = (
{
closed = 1;
nodes = (
"587 -255 LINE",
"701 1480 LINE",
"701 1671 LINE",
"322 1671 LINE",
"322 1480 LINE",
"436 -255 LINE"
);
},
{
closed = 1;
nodes = (
"634 498 LINE",
"636 531 LINE SMOOTH",
"638 561 OFFCURVE",
"653 580 OFFCURVE",
"681 588 CURVE SMOOTH",
"951 665 LINE",
"951 810 LINE",
"512 795 LINE",
"73 810 LINE",
"73 665 LINE",
"343 588 LINE SMOOTH",
"371 580 OFFCURVE",
"386 561 OFFCURVE",
"388 531 CURVE SMOOTH",
"390 498 LINE"
);
},
{
closed = 1;
nodes = (
"664 877 LINE",
"667 911 LINE SMOOTH",
"669 940 OFFCURVE",
"683 959 OFFCURVE",
"711 967 CURVE SMOOTH",
"951 1033 LINE",
"951 1177 LINE",
"512 1162 LINE",
"73 1177 LINE",
"73 1033 LINE",
"313 967 LINE SMOOTH",
"341 959 OFFCURVE",
"355 940 OFFCURVE",
"357 911 CURVE SMOOTH",
"360 877 LINE"
);
}
);
width = 1019;
}
);
unicode = 2021;
},
{
glyphname = ellipsis;
lastChange = "2015-11-29 15:16:09 +0000";
layers = (
{
layerId = "DAAEA780-4710-4479-B303-5C05B40621B2";
name = Light;
paths = (
{
closed = 1;
nodes = (
"393 108 CURVE SMOOTH",
"393 185 OFFCURVE",
"340 238 OFFCURVE",
"263 238 CURVE SMOOTH",
"186 238 OFFCURVE",
"133 185 OFFCURVE",
"133 108 CURVE SMOOTH",
"133 32 OFFCURVE",
"186 -22 OFFCURVE",
"263 -22 CURVE SMOOTH",
"340 -22 OFFCURVE",
"393 32 OFFCURVE"
);
},
{
closed = 1;
nodes = (
"893 108 CURVE SMOOTH",
"893 185 OFFCURVE",
"840 238 OFFCURVE",
"763 238 CURVE SMOOTH",
"686 238 OFFCURVE",
"633 185 OFFCURVE",
"633 108 CURVE SMOOTH",
"633 32 OFFCURVE",
"686 -22 OFFCURVE",
"763 -22 CURVE SMOOTH",
"840 -22 OFFCURVE",
"893 32 OFFCURVE"
);
},
{
closed = 1;
nodes = (
"1393 108 CURVE SMOOTH",
"1393 185 OFFCURVE",
"1340 238 OFFCURVE",
"1263 238 CURVE SMOOTH",
"1186 238 OFFCURVE",
"1133 185 OFFCURVE",
"1133 108 CURVE SMOOTH",
"1133 32 OFFCURVE",
"1186 -22 OFFCURVE",
"1263 -22 CURVE SMOOTH",
"1340 -22 OFFCURVE",
"1393 32 OFFCURVE"
);
}
);
width = 1526;
},
{
layerId = "925CB40E-795E-477B-BAE7-1EE7D58841B5";
name = Bold;
paths = (
{
closed = 1;
nodes = (
"514 172 CURVE SMOOTH",
"514 287 OFFCURVE",
"431 360 OFFCURVE",
"303 360 CURVE SMOOTH",
"175 360 OFFCURVE",
"92 287 OFFCURVE",
"92 172 CURVE SMOOTH",
"92 58 OFFCURVE",
"175 -16 OFFCURVE",
"303 -16 CURVE SMOOTH",
"431 -16 OFFCURVE",
"514 58 OFFCURVE"
);
},
{
closed = 1;
nodes = (
"1168 172 CURVE SMOOTH",
"1168 287 OFFCURVE",
"1085 360 OFFCURVE",
"957 360 CURVE SMOOTH",
"829 360 OFFCURVE",
"746 287 OFFCURVE",
"746 172 CURVE SMOOTH",
"746 58 OFFCURVE",
"829 -16 OFFCURVE",
"957 -16 CURVE SMOOTH",
"1085 -16 OFFCURVE",
"1168 58 OFFCURVE"
);
},
{
closed = 1;
nodes = (
"1821 172 CURVE SMOOTH",
"1821 287 OFFCURVE",
"1738 360 OFFCURVE",
"1610 360 CURVE SMOOTH",
"1482 360 OFFCURVE",
"1399 287 OFFCURVE",
"1399 172 CURVE SMOOTH",
"1399 58 OFFCURVE",
"1482 -16 OFFCURVE",
"1610 -16 CURVE SMOOTH",
"1738 -16 OFFCURVE",
"1821 58 OFFCURVE"
);
}
);
width = 1914;
}
);
unicode = 2026;
},
{
glyphname = paragraph;
lastChange = "2015-11-29 15:16:09 +0000";
layers = (
{
layerId = "DAAEA780-4710-4479-B303-5C05B40621B2";
name = Light;
paths = (
{
closed = 1;
nodes = (
"278 -326 LINE",
"602 -213 OFFCURVE",
"688 -91 OFFCURVE",
"688 251 CURVE SMOOTH",
"688 1454 LINE",
"769 1454 OFFCURVE",
"855 1449 OFFCURVE",
"922 1445 CURVE",
"922 0 LINE",
"1287 0 LINE",
"1287 88 LINE",
"1124 119 LINE SMOOTH",
"1094 125 OFFCURVE",
"1072 146 OFFCURVE",
"1072 177 CURVE SMOOTH",
"1072 1382 LINE SMOOTH",
"1072 1413 OFFCURVE",
"1093 1435 OFFCURVE",
"1127 1442 CURVE SMOOTH",
"1277 1474 LINE",
"1277 1562 LINE",
"1060 1562 LINE SMOOTH",
"875 1562 OFFCURVE",
"723 1582 OFFCURVE",
"605 1582 CURVE SMOOTH",
"238 1582 OFFCURVE",
"73 1389 OFFCURVE",
"73 1146 CURVE SMOOTH",
"73 853 OFFCURVE",
"314 701 OFFCURVE",
"536 692 CURVE",
"536 331 LINE SMOOTH",
"536 44 OFFCURVE",
"497 -91 OFFCURVE",
"233 -243 CURVE"
);
}
);
width = 1382;
},
{
layerId = "925CB40E-795E-477B-BAE7-1EE7D58841B5";
name = Bold;
paths = (
{
closed = 1;
nodes = (
"292 -399 LINE",
"660 -307 OFFCURVE",
"790 -174 OFFCURVE",
"790 207 CURVE SMOOTH",
"790 1404 LINE",
"857 1404 OFFCURVE",
"950 1398 OFFCURVE",
"1008 1394 CURVE",
"1008 0 LINE",
"1491 0 LINE",
"1491 144 LINE",
"1335 175 LINE SMOOTH",
"1305 181 OFFCURVE",
"1288 199 OFFCURVE",
"1288 229 CURVE SMOOTH",
"1288 1326 LINE SMOOTH",
"1288 1357 OFFCURVE",
"1305 1374 OFFCURVE",
"1336 1380 CURVE SMOOTH",
"1481 1411 LINE",
"1481 1562 LINE",
"1256 1562 LINE SMOOTH",
"989 1562 OFFCURVE",
"763 1591 OFFCURVE",
"577 1591 CURVE SMOOTH",
"222 1591 OFFCURVE",
"64 1406 OFFCURVE",
"64 1149 CURVE SMOOTH",
"64 830 OFFCURVE",
"290 692 OFFCURVE",
"512 665 CURVE",
"512 307 LINE SMOOTH",
"511 -16 OFFCURVE",
"456 -132 OFFCURVE",
"229 -246 CURVE"
);
}
);
width = 1582;
}
);
unicode = 00B6;
},
{
glyphname = endash;
lastChange = "2015-11-29 15:16:09 +0000";
layers = (
{
layerId = "DAAEA780-4710-4479-B303-5C05B40621B2";
name = Light;
paths = (
{
closed = 1;
nodes = (
"152 532 LINE",
"1312 532 LINE",
"1312 658 LINE",
"152 658 LINE"
);
}
);
width = 1464;
},
{
layerId = "925CB40E-795E-477B-BAE7-1EE7D58841B5";
name = Bold;
paths = (
{
closed = 1;
nodes = (
"120 479 LINE",
"1297 479 LINE",
"1297 712 LINE",
"120 712 LINE"
);
}
);
width = 1416;
}
);
rightMetricsKey = "=|";
unicode = 2013;
},
{
glyphname = emdash;
lastChange = "2015-11-29 15:16:09 +0000";
layers = (
{
layerId = "DAAEA780-4710-4479-B303-5C05B40621B2";
name = Light;
paths = (
{
closed = 1;
nodes = (
"152 533 LINE",
"2032 533 LINE",
"2032 658 LINE",
"152 658 LINE"
);
}
);
width = 2184;
},
{
layerId = "925CB40E-795E-477B-BAE7-1EE7D58841B5";
name = Bold;
paths = (
{
closed = 1;
nodes = (
"120 479 LINE",
"2103 479 LINE",
"2103 712 LINE",
"120 712 LINE"
);
}
);
width = 2222;
}
);
rightMetricsKey = "=|";
unicode = 2014;
},
{
glyphname = firsttonechinese;
lastChange = "2015-11-29 15:16:09 +0000";
layers = (
{
anchors = (
{
name = _top;
position = "{500, 1700}";
}
);
layerId = "DAAEA780-4710-4479-B303-5C05B40621B2";
name = Light;
paths = (
{
closed = 1;
nodes = (
"177 1381 LINE",
"822 1381 LINE",
"822 1507 LINE",
"177 1507 LINE"
);
}
);
width = 1000;
},
{
anchors = (
{
name = _top;
position = "{500, 1700}";
}
);
layerId = "925CB40E-795E-477B-BAE7-1EE7D58841B5";
name = Bold;
paths = (
{
closed = 1;
nodes = (
"132 1358 LINE",
"868 1358 LINE",
"868 1564 LINE",
"132 1564 LINE"
);
}
);
width = 1000;
}
);
unicode = 02C9;
},
{
glyphname = circumflexcomb;
lastChange = "2015-11-29 15:16:09 +0000";
layers = (
{
anchors = (
{
name = _top;
position = "{0, 1136}";
}
);
layerId = "DAAEA780-4710-4479-B303-5C05B40621B2";
name = Light;
paths = (
{
closed = 1;
nodes = (
"-290 1258 LINE",
"-10 1545 LINE",
"295 1259 LINE",
"364 1319 LINE",
"64 1712 LINE",
"-87 1698 LINE",
"-355 1313 LINE"
);
}
);
width = 0;
},
{
anchors = (
{
name = _top;
position = "{0, 1138}";
}
);
layerId = "925CB40E-795E-477B-BAE7-1EE7D58841B5";
name = Bold;
paths = (
{
closed = 1;
nodes = (
"-315 1263 LINE",
"-16 1517 LINE",
"307 1265 LINE",
"423 1375 LINE",
"93 1778 LINE",
"-124 1759 LINE",
"-425 1367 LINE"
);
}
);
width = 0;
}
);
unicode = 0302;
},
{
glyphname = circumflexcomb.case;
lastChange = "2015-11-29 15:16:09 +0000";
layers = (
{
anchors = (
{
name = _top;
position = "{0, 1562}";
}
);
layerId = "DAAEA780-4710-4479-B303-5C05B40621B2";
name = Light;
paths = (
{
closed = 1;
nodes = (
"-310 1666 LINE",
"-15 1886 LINE",
"305 1667 LINE",
"369 1737 LINE",
"62 2043 LINE",
"-92 2033 LINE",
"-370 1731 LINE"
);
}
);
width = 0;
},
{
anchors = (
{
name = _top;
position = "{0, 1562}";
}
);
layerId = "925CB40E-795E-477B-BAE7-1EE7D58841B5";
name = Bold;
paths = (
{
closed = 1;
nodes = (
"-345 1655 LINE",
"-15 1858 LINE",
"340 1657 LINE",
"443 1774 LINE",
"99 2102 LINE",
"-122 2092 LINE",
"-442 1766 LINE"
);
}
);
width = 0;
}
);
},
{
glyphname = caroncomb;
lastChange = "2015-11-29 15:16:09 +0000";
layers = (
{
anchors = (
{
name = _top;
position = "{0, 1136}";
}
);
layerId = "DAAEA780-4710-4479-B303-5C05B40621B2";
name = Light;
paths = (
{
closed = 1;
nodes = (
"303 1754 LINE",
"23 1467 LINE",
"-282 1753 LINE",
"-351 1693 LINE",
"-51 1300 LINE",
"100 1314 LINE",
"368 1699 LINE"
);
}
);
width = 0;
},
{
anchors = (
{
name = _top;
position = "{0, 1138}";
}
);
layerId = "925CB40E-795E-477B-BAE7-1EE7D58841B5";
name = Bold;
paths = (
{
closed = 1;
nodes = (
"330 1812 LINE",
"31 1558 LINE",
"-292 1810 LINE",
"-408 1701 LINE",
"-78 1297 LINE",
"139 1317 LINE",
"440 1708 LINE"
);
}
);
width = 0;
}
);
unicode = 030C;
},
{
glyphname = caroncomb.case;
lastChange = "2015-11-29 15:16:09 +0000";
layers = (
{
anchors = (
{
name = _top;
position = "{0, 1562}";
}
);
layerId = "DAAEA780-4710-4479-B303-5C05B40621B2";
name = Light;
paths = (
{
closed = 1;
nodes = (
"309 2052 LINE",
"14 1832 LINE",
"-306 2051 LINE",
"-370 1981 LINE",
"-63 1676 LINE",
"91 1685 LINE",
"369 1987 LINE"
);
}
);
width = 0;
},
{
anchors = (
{
name = _top;
position = "{0, 1562}";
}
);
layerId = "925CB40E-795E-477B-BAE7-1EE7D58841B5";
name = Bold;
paths = (
{
closed = 1;
nodes = (
"346 2120 LINE",
"15 1917 LINE",
"-340 2118 LINE",
"-442 2001 LINE",
"-98 1673 LINE",
"123 1683 LINE",
"443 2009 LINE"
);
}
);
width = 0;
}
);
},
{
glyphname = caroncomb.calt;
lastChange = "2015-11-29 15:16:09 +0000";
layers = (
{
anchors = (
{
name = _topright;
position = "{0, 1136}";
}
);
layerId = "DAAEA780-4710-4479-B303-5C05B40621B2";
name = Light;
paths = (
{
closed = 1;
nodes = (
"234 1317 LINE",
"296 1494 OFFCURVE",
"343 1691 OFFCURVE",
"362 1857 CURVE",
"195 1877 LINE",
"148 1336 LINE"
);
}
);
width = 0;
},
{
anchors = (
{
name = _topright;
position = "{0, 1138}";
}
);
layerId = "925CB40E-795E-477B-BAE7-1EE7D58841B5";
name = Bold;
paths = (
{
closed = 1;
nodes = (
"270 1287 LINE",
"338 1450 OFFCURVE",
"402 1669 OFFCURVE",
"428 1858 CURVE",
"161 1888 LINE",
"122 1318 LINE"
);
}
);
width = 0;
}
);
},
{
glyphname = macroncomb;
lastChange = "2015-11-29 15:16:09 +0000";
layers = (
{
anchors = (
{
name = _top;
position = "{0, 1136}";
}
);
layerId = "DAAEA780-4710-4479-B303-5C05B40621B2";
name = Light;
paths = (
{
closed = 1;
nodes = (
"-323 1361 LINE",
"322 1361 LINE",
"322 1487 LINE",
"-323 1487 LINE"
);
}
);
width = 0;
},
{
anchors = (
{
name = _top;
position = "{0, 1138}";
}
);
layerId = "925CB40E-795E-477B-BAE7-1EE7D58841B5";
name = Bold;
paths = (
{
closed = 1;
nodes = (
"-369 1355 LINE",
"367 1355 LINE",
"367 1561 LINE",
"-369 1561 LINE"
);
}
);
width = 0;
}
);
unicode = 0304;
},
{
glyphname = macroncomb.case;
lastChange = "2015-11-29 15:16:09 +0000";
layers = (
{
anchors = (
{
name = _top;
position = "{0, 1562}";
}
);
layerId = "DAAEA780-4710-4479-B303-5C05B40621B2";
name = Light;
paths = (
{
closed = 1;
nodes = (
"-323 1760 LINE",
"322 1760 LINE",
"322 1886 LINE",
"-323 1886 LINE"
);
}
);
width = 0;
},
{
anchors = (
{
name = _top;
position = "{0, 1562}";
}
);
layerId = "925CB40E-795E-477B-BAE7-1EE7D58841B5";
name = Bold;
paths = (
{
closed = 1;
nodes = (
"-386 1745 LINE",
"384 1745 LINE",
"384 1952 LINE",
"-386 1952 LINE"
);
}
);
width = 0;
}
);
},
{
glyphname = brevecomb;
lastChange = "2015-11-29 15:16:09 +0000";
layers = (
{
anchors = (
{
name = _top;
position = "{0, 1136}";
}
);
layerId = "DAAEA780-4710-4479-B303-5C05B40621B2";
name = Light;
paths = (
{
closed = 1;
nodes = (
"-270 1628 CURVE",
"-358 1590 LINE",
"-330 1437 OFFCURVE",
"-199 1296 OFFCURVE",
"-5 1296 CURVE SMOOTH",
"185 1296 OFFCURVE",
"318 1430 OFFCURVE",
"357 1590 CURVE",
"282 1628 LINE",
"215 1496 OFFCURVE",
"113 1441 OFFCURVE",
"1 1441 CURVE SMOOTH",
"-123 1441 OFFCURVE",
"-216 1509 OFFCURVE"
);
}
);
width = 0;
},
{
anchors = (
{
name = _top;
position = "{0, 1138}";
}
);
layerId = "925CB40E-795E-477B-BAE7-1EE7D58841B5";
name = Bold;
paths = (
{
closed = 1;
nodes = (
"-403 1640 CURVE",
"-286 1702 LINE",
"-223 1577 OFFCURVE",
"-123 1514 OFFCURVE",
"2 1514 CURVE SMOOTH",
"128 1514 OFFCURVE",
"229 1578 OFFCURVE",
"300 1702 CURVE",
"404 1640 LINE",
"355 1444 OFFCURVE",
"194 1319 OFFCURVE",
"-7 1319 CURVE SMOOTH",
"-212 1319 OFFCURVE",
"-369 1450 OFFCURVE"
);
}
);
width = 0;
}
);
unicode = 0306;
},
{
glyphname = brevecomb.case;
lastChange = "2015-11-29 15:16:09 +0000";
layers = (
{
anchors = (
{
name = _top;
position = "{0, 1562}";
}
);
layerId = "DAAEA780-4710-4479-B303-5C05B40621B2";
name = Light;
paths = (
{
closed = 1;
nodes = (
"-274 2008 CURVE",
"-364 1970 LINE",
"-335 1827 OFFCURVE",
"-202 1686 OFFCURVE",
"-4 1686 CURVE SMOOTH",
"189 1686 OFFCURVE",
"325 1820 OFFCURVE",
"364 1970 CURVE",
"288 2008 LINE",
"219 1886 OFFCURVE",
"116 1831 OFFCURVE",
"2 1831 CURVE SMOOTH",
"-124 1831 OFFCURVE",
"-218 1899 OFFCURVE"
);
}
);
width = 0;
},
{
anchors = (
{
name = _top;
position = "{0, 1562}";
}
);
layerId = "925CB40E-795E-477B-BAE7-1EE7D58841B5";
name = Bold;
paths = (
{
closed = 1;
nodes = (
"-411 2018 CURVE",
"-295 2083 LINE",
"-228 1959 OFFCURVE",
"-117 1902 OFFCURVE",
"6 1902 CURVE SMOOTH",
"131 1902 OFFCURVE",
"241 1961 OFFCURVE",
"312 2083 CURVE",
"413 2018 LINE",
"358 1832 OFFCURVE",
"199 1707 OFFCURVE",
"-3 1707 CURVE SMOOTH",
"-211 1707 OFFCURVE",
"-370 1839 OFFCURVE"
);
}
);
width = 0;
}
);
},
{
glyphname = dieresiscomb;
lastChange = "2015-11-29 15:16:09 +0000";
layers = (
{
anchors = (
{
name = _top;
position = "{0, 1136}";
}
);
layerId = "DAAEA780-4710-4479-B303-5C05B40621B2";
name = Light;
paths = (
{
closed = 1;
nodes = (
"-102 1446 CURVE SMOOTH",
"-102 1515 OFFCURVE",
"-150 1565 OFFCURVE",
"-218 1565 CURVE SMOOTH",
"-287 1565 OFFCURVE",
"-334 1515 OFFCURVE",
"-334 1446 CURVE SMOOTH",
"-334 1376 OFFCURVE",
"-287 1327 OFFCURVE",
"-218 1327 CURVE SMOOTH",
"-150 1327 OFFCURVE",
"-102 1376 OFFCURVE"
);
},
{
closed = 1;
nodes = (
"331 1446 CURVE SMOOTH",
"331 1515 OFFCURVE",
"283 1565 OFFCURVE",
"215 1565 CURVE SMOOTH",
"146 1565 OFFCURVE",
"99 1515 OFFCURVE",
"99 1446 CURVE SMOOTH",
"99 1376 OFFCURVE",
"146 1327 OFFCURVE",
"215 1327 CURVE SMOOTH",
"283 1327 OFFCURVE",
"331 1376 OFFCURVE"
);
}
);
width = 0;
},
{
anchors = (
{
name = _top;
position = "{0, 1138}";
}
);
layerId = "925CB40E-795E-477B-BAE7-1EE7D58841B5";
name = Bold;
paths = (
{
closed = 1;
nodes = (
"-73 1484 CURVE SMOOTH",
"-73 1588 OFFCURVE",
"-139 1655 OFFCURVE",
"-240 1655 CURVE SMOOTH",
"-344 1655 OFFCURVE",
"-409 1588 OFFCURVE",
"-409 1484 CURVE SMOOTH",
"-409 1379 OFFCURVE",
"-344 1311 OFFCURVE",
"-240 1311 CURVE SMOOTH",
"-139 1311 OFFCURVE",
"-73 1379 OFFCURVE"
);
},
{
closed = 1;
nodes = (
"408 1484 CURVE SMOOTH",
"408 1588 OFFCURVE",
"343 1655 OFFCURVE",
"241 1655 CURVE SMOOTH",
"139 1655 OFFCURVE",
"73 1588 OFFCURVE",
"73 1484 CURVE SMOOTH",
"73 1379 OFFCURVE",
"139 1311 OFFCURVE",
"241 1311 CURVE SMOOTH",
"343 1311 OFFCURVE",
"408 1379 OFFCURVE"
);
}
);
width = 0;
}
);
unicode = 0308;
},
{
glyphname = dieresiscomb.case;
lastChange = "2015-11-29 15:16:09 +0000";
layers = (
{
anchors = (
{
name = _top;
position = "{0, 1562}";
}
);
layerId = "DAAEA780-4710-4479-B303-5C05B40621B2";
name = Light;
paths = (
{
closed = 1;
nodes = (
"-121 1829 CURVE SMOOTH",
"-121 1898 OFFCURVE",
"-169 1948 OFFCURVE",
"-237 1948 CURVE SMOOTH",
"-306 1948 OFFCURVE",
"-353 1898 OFFCURVE",
"-353 1829 CURVE SMOOTH",
"-353 1759 OFFCURVE",
"-306 1710 OFFCURVE",
"-237 1710 CURVE SMOOTH",
"-169 1710 OFFCURVE",
"-121 1759 OFFCURVE"
);
},
{
closed = 1;
nodes = (
"352 1829 CURVE SMOOTH",
"352 1898 OFFCURVE",
"304 1948 OFFCURVE",
"236 1948 CURVE SMOOTH",
"167 1948 OFFCURVE",
"120 1898 OFFCURVE",
"120 1829 CURVE SMOOTH",
"120 1759 OFFCURVE",
"167 1710 OFFCURVE",
"236 1710 CURVE SMOOTH",
"304 1710 OFFCURVE",
"352 1759 OFFCURVE"
);
}
);
width = 0;
},
{
anchors = (
{
name = _top;
position = "{0, 1562}";
}
);
layerId = "925CB40E-795E-477B-BAE7-1EE7D58841B5";
name = Bold;
paths = (
{
closed = 1;
nodes = (
"-101 1858 CURVE SMOOTH",
"-101 1962 OFFCURVE",
"-167 2029 OFFCURVE",
"-268 2029 CURVE SMOOTH",
"-371 2029 OFFCURVE",
"-437 1962 OFFCURVE",
"-437 1858 CURVE SMOOTH",
"-437 1753 OFFCURVE",
"-371 1685 OFFCURVE",
"-268 1685 CURVE SMOOTH",
"-167 1685 OFFCURVE",
"-101 1753 OFFCURVE"
);
},
{
closed = 1;
nodes = (
"436 1858 CURVE SMOOTH",
"436 1962 OFFCURVE",
"371 2029 OFFCURVE",
"269 2029 CURVE SMOOTH",
"167 2029 OFFCURVE",
"101 1962 OFFCURVE",
"101 1858 CURVE SMOOTH",
"101 1753 OFFCURVE",
"167 1685 OFFCURVE",
"269 1685 CURVE SMOOTH",
"371 1685 OFFCURVE",
"436 1753 OFFCURVE"
);
}
);
width = 0;
}
);
},
{
glyphname = acutecomb;
lastChange = "2015-11-29 15:16:09 +0000";
layers = (
{
anchors = (
{
name = _top;
position = "{0, 1136}";
}
);
layerId = "DAAEA780-4710-4479-B303-5C05B40621B2";
name = Light;
paths = (
{
closed = 1;
nodes = (
"-94 1263 LINE",
"58 1368 OFFCURVE",
"254 1534 OFFCURVE",
"329 1636 CURVE",
"200 1743 LINE",
"-151 1321 LINE"
);
}
);
width = 0;
},
{
anchors = (
{
name = _top;
position = "{0, 1138}";
}
);
layerId = "925CB40E-795E-477B-BAE7-1EE7D58841B5";
name = Bold;
paths = (
{
closed = 1;
nodes = (
"-99 1251 LINE",
"104 1362 OFFCURVE",
"302 1502 OFFCURVE",
"403 1629 CURVE",
"206 1813 LINE",
"-190 1360 LINE"
);
}
);
width = 0;
}
);
unicode = 0301;
},
{
glyphname = acutecomb.case;
lastChange = "2015-11-29 15:16:09 +0000";
layers = (
{
anchors = (
{
name = _top;
position = "{0, 1562}";
}
);
layerId = "DAAEA780-4710-4479-B303-5C05B40621B2";
name = Light;
paths = (
{
closed = 1;
nodes = (
"-156 1668 LINE",
"16 1736 OFFCURVE",
"260 1838 OFFCURVE",
"366 1918 CURVE",
"265 2053 LINE",
"-193 1738 LINE"
);
}
);
width = 0;
},
{
anchors = (
{
name = _top;
position = "{0, 1563}";
}
);
layerId = "925CB40E-795E-477B-BAE7-1EE7D58841B5";
name = Bold;
paths = (
{
closed = 1;
nodes = (
"-204 1668 LINE",
"-3 1724 OFFCURVE",
"267 1808 OFFCURVE",
"414 1910 CURVE",
"263 2134 LINE",
"-268 1794 LINE"
);
}
);
width = 0;
}
);
},
{
glyphname = gravecomb;
lastChange = "2015-11-29 15:16:09 +0000";
layers = (
{
anchors = (
{
name = _top;
position = "{0, 1136}";
}
);
layerId = "DAAEA780-4710-4479-B303-5C05B40621B2";
name = Light;
paths = (
{
closed = 1;
nodes = (
"-162 1743 LINE",
"-291 1636 LINE",
"-216 1534 OFFCURVE",
"-30 1368 OFFCURVE",
"122 1263 CURVE",
"182 1324 LINE"
);
}
);
width = 0;
},
{
anchors = (
{
name = _top;
position = "{0, 1138}";
}
);
layerId = "925CB40E-795E-477B-BAE7-1EE7D58841B5";
name = Bold;
paths = (
{
closed = 1;
nodes = (
"-142 1813 LINE",
"-339 1629 LINE",
"-237 1499 OFFCURVE",
"-56 1361 OFFCURVE",
"143 1251 CURVE",
"240 1367 LINE"
);
}
);
width = 0;
}
);
unicode = 0300;
},
{
glyphname = gravecomb.case;
lastChange = "2015-11-29 15:16:09 +0000";
layers = (
{
anchors = (
{
name = _top;
position = "{0, 1562}";
}
);
layerId = "DAAEA780-4710-4479-B303-5C05B40621B2";
name = Light;
paths = (
{
closed = 1;
nodes = (
"-242 2064 LINE",
"-348 1933 LINE",
"-246 1847 OFFCURVE",
"-18 1744 OFFCURVE",
"151 1666 CURVE",
"193 1739 LINE"
);
}
);
width = 0;
},
{
anchors = (
{
name = _top;
position = "{0, 1563}";
}
);
layerId = "925CB40E-795E-477B-BAE7-1EE7D58841B5";
name = Bold;
paths = (
{
closed = 1;
nodes = (
"-230 2144 LINE",
"-390 1924 LINE",
"-247 1817 OFFCURVE",
"9 1725 OFFCURVE",
"208 1661 CURVE",
"280 1791 LINE"
);
}
);
width = 0;
}
);
},
{
glyphname = cedillacomb;
lastChange = "2015-11-29 15:16:09 +0000";
layers = (
{
anchors = (
{
name = _btm;
position = "{0, 0}";
}
);
layerId = "DAAEA780-4710-4479-B303-5C05B40621B2";
name = Light;
paths = (
{
closed = 1;
nodes = (
"-40 51 LINE",
"-114 -169 LINE",
"-45 -171 OFFCURVE",
"27 -199 OFFCURVE",
"27 -275 CURVE SMOOTH",
"27 -355 OFFCURVE",
"-51 -426 OFFCURVE",
"-185 -434 CURVE",
"-175 -513 LINE",
"-164 -513 OFFCURVE",
"-162 -514 OFFCURVE",
"-144 -514 CURVE SMOOTH",
"41 -514 OFFCURVE",
"195 -412 OFFCURVE",
"195 -264 CURVE SMOOTH",
"195 -169 OFFCURVE",
"131 -107 OFFCURVE",
"49 -91 CURVE SMOOTH",
"30 -87 OFFCURVE",
"10 -86 OFFCURVE",
"1 -86 CURVE",
"45 51 LINE"
);
}
);
width = 0;
},
{
anchors = (
{
name = _btm;
position = "{0, 0}";
}
);
layerId = "925CB40E-795E-477B-BAE7-1EE7D58841B5";
name = Bold;
paths = (
{
closed = 1;
nodes = (
"-55 51 LINE",
"-140 -194 LINE",
"-70 -197 OFFCURVE",
"-23 -225 OFFCURVE",
"-23 -283 CURVE SMOOTH",
"-23 -349 OFFCURVE",
"-91 -397 OFFCURVE",
"-227 -411 CURVE",
"-208 -526 LINE",
"-186 -528 OFFCURVE",
"-166 -529 OFFCURVE",
"-144 -529 CURVE SMOOTH",
"92 -529 OFFCURVE",
"252 -427 OFFCURVE",
"252 -273 CURVE SMOOTH",
"252 -161 OFFCURVE",
"172 -92 OFFCURVE",
"53 -89 CURVE SMOOTH",
"42 -89 OFFCURVE",
"32 -89 OFFCURVE",
"22 -89 CURVE",
"62 51 LINE"
);
}
);
width = 0;
}
);
unicode = 0327;
},
{
glyphname = dotaccentcomb;
lastChange = "2015-11-29 15:16:09 +0000";
layers = (
{
anchors = (
{
name = _top;
position = "{0, 1136}";
}
);
layerId = "DAAEA780-4710-4479-B303-5C05B40621B2";
name = Light;
paths = (
{
closed = 1;
nodes = (
"152 1489 CURVE SMOOTH",
"152 1566 OFFCURVE",
"97 1621 OFFCURVE",
"20 1621 CURVE SMOOTH",
"-58 1621 OFFCURVE",
"-112 1566 OFFCURVE",
"-112 1489 CURVE SMOOTH",
"-112 1411 OFFCURVE",
"-58 1357 OFFCURVE",
"20 1357 CURVE SMOOTH",
"97 1357 OFFCURVE",
"152 1411 OFFCURVE"
);
}
);
width = 0;
},
{
anchors = (
{
name = _top;
position = "{1, 1138}";
}
);
layerId = "925CB40E-795E-477B-BAE7-1EE7D58841B5";
name = Bold;
paths = (
{
closed = 1;
nodes = (
"240 1509 CURVE SMOOTH",
"240 1629 OFFCURVE",
"156 1706 OFFCURVE",
"25 1706 CURVE SMOOTH",
"-107 1706 OFFCURVE",
"-192 1629 OFFCURVE",
"-192 1509 CURVE SMOOTH",
"-192 1387 OFFCURVE",
"-107 1309 OFFCURVE",
"25 1309 CURVE SMOOTH",
"156 1309 OFFCURVE",
"240 1387 OFFCURVE"
);
}
);
width = 0;
}
);
unicode = 0307;
},
{
glyphname = dotaccentcomb.case;
lastChange = "2015-11-29 15:16:09 +0000";
layers = (
{
anchors = (
{
name = _top;
position = "{0, 1562}";
}
);
layerId = "DAAEA780-4710-4479-B303-5C05B40621B2";
name = Light;
paths = (
{
closed = 1;
nodes = (
"132 1843 CURVE SMOOTH",
"132 1920 OFFCURVE",
"77 1975 OFFCURVE",
"0 1975 CURVE SMOOTH",
"-78 1975 OFFCURVE",
"-132 1920 OFFCURVE",
"-132 1843 CURVE SMOOTH",
"-132 1765 OFFCURVE",
"-78 1711 OFFCURVE",
"0 1711 CURVE SMOOTH",
"77 1711 OFFCURVE",
"132 1765 OFFCURVE"
);
}
);
width = 0;
},
{
anchors = (
{
name = _top;
position = "{0, 1562}";
}
);
layerId = "925CB40E-795E-477B-BAE7-1EE7D58841B5";
name = Bold;
paths = (
{
closed = 1;
nodes = (
"216 1888 CURVE SMOOTH",
"216 2009 OFFCURVE",
"132 2086 OFFCURVE",
"1 2086 CURVE SMOOTH",
"-131 2086 OFFCURVE",
"-215 2009 OFFCURVE",
"-215 1888 CURVE SMOOTH",
"-215 1767 OFFCURVE",
"-131 1689 OFFCURVE",
"1 1689 CURVE SMOOTH",
"132 1689 OFFCURVE",
"216 1767 OFFCURVE"
);
}
);
width = 0;
}
);
},
{
glyphname = ringcomb;
lastChange = "2015-11-29 15:16:09 +0000";
layers = (
{
anchors = (
{
name = _top;
position = "{0, 1136}";
}
);
layerId = "DAAEA780-4710-4479-B303-5C05B40621B2";
name = Light;
paths = (
{
closed = 1;
nodes = (
"250 1503 CURVE SMOOTH",
"251 1628 OFFCURVE",
"160 1714 OFFCURVE",
"8 1714 CURVE SMOOTH",
"-117 1714 OFFCURVE",
"-249 1640 OFFCURVE",
"-251 1507 CURVE SMOOTH",
"-252 1375 OFFCURVE",
"-161 1288 OFFCURVE",
"-2 1288 CURVE SMOOTH",
"130 1288 OFFCURVE",
"249 1364 OFFCURVE"
);
},
{
closed = 1;
nodes = (
"-123 1506 CURVE SMOOTH",
"-123 1576 OFFCURVE",
"-76 1620 OFFCURVE",
"3 1620 CURVE SMOOTH",
"88 1620 OFFCURVE",
"124 1563 OFFCURVE",
"124 1498 CURVE SMOOTH",
"123 1420 OFFCURVE",
"82 1380 OFFCURVE",
"2 1380 CURVE SMOOTH",
"-84 1380 OFFCURVE",
"-123 1439 OFFCURVE"
);
}
);
width = 0;
},
{
anchors = (
{
name = _top;
position = "{0, 1138}";
}
);
layerId = "925CB40E-795E-477B-BAE7-1EE7D58841B5";
name = Bold;
paths = (
{
closed = 1;
nodes = (
"33 1314 CURVE SMOOTH",
"191 1332 OFFCURVE",
"300 1430 OFFCURVE",
"278 1562 CURVE SMOOTH",
"259 1689 OFFCURVE",
"157 1772 OFFCURVE",
"-27 1752 CURVE SMOOTH",
"-191 1733 OFFCURVE",
"-300 1636 OFFCURVE",
"-277 1504 CURVE SMOOTH",
"-258 1365 OFFCURVE",
"-145 1294 OFFCURVE"
);
},
{
closed = 1;
nodes = (
"-18 1436 CURVE SMOOTH",
"-86 1446 OFFCURVE",
"-113 1498 OFFCURVE",
"-102 1553 CURVE SMOOTH",
"-89 1618 OFFCURVE",
"-48 1639 OFFCURVE",
"19 1630 CURVE SMOOTH",
"89 1618 OFFCURVE",
"115 1570 OFFCURVE",
"103 1509 CURVE SMOOTH",
"91 1447 OFFCURVE",
"49 1426 OFFCURVE"
);
}
);
width = 0;
}
);
unicode = 030A;
},
{
glyphname = ringcomb.case;
lastChange = "2015-11-29 15:16:09 +0000";
layers = (
{
anchors = (
{
name = _top;
position = "{0, 1562}";
}
);
layerId = "DAAEA780-4710-4479-B303-5C05B40621B2";
name = Light;
paths = (
{
closed = 1;
nodes = (
"2 1646 CURVE SMOOTH",
"-83 1646 OFFCURVE",
"-142 1703 OFFCURVE",
"-142 1781 CURVE SMOOTH",
"-142 1855 OFFCURVE",
"-82 1907 OFFCURVE",
"3 1907 CURVE SMOOTH",
"84 1907 OFFCURVE",
"141 1851 OFFCURVE",
"141 1771 CURVE SMOOTH",
"141 1698 OFFCURVE",
"83 1646 OFFCURVE"
);
},
{
closed = 1;
nodes = (
"-3 1556 CURVE SMOOTH",
"163 1556 OFFCURVE",
"270 1642 OFFCURVE",
"271 1776 CURVE SMOOTH",
"272 1913 OFFCURVE",
"170 2000 OFFCURVE",
"8 2000 CURVE SMOOTH",
"-160 2000 OFFCURVE",
"-270 1914 OFFCURVE",
"-272 1781 CURVE SMOOTH",
"-274 1643 OFFCURVE",
"-169 1556 OFFCURVE"
);
}
);
width = 0;
},
{
anchors = (
{
name = _top;
position = "{0, 1562}";
}
);
layerId = "925CB40E-795E-477B-BAE7-1EE7D58841B5";
name = Bold;
paths = (
{
closed = 1;
nodes = (
"-1 1651 CURVE SMOOTH",
"-88 1650 OFFCURVE",
"-146 1706 OFFCURVE",
"-147 1790 CURVE SMOOTH",
"-146 1869 OFFCURVE",
"-87 1922 OFFCURVE",
"0 1922 CURVE SMOOTH",
"87 1922 OFFCURVE",
"145 1865 OFFCURVE",
"145 1779 CURVE SMOOTH",
"145 1701 OFFCURVE",
"87 1650 OFFCURVE"
);
},
{
closed = 1;
nodes = (
"-6 1528 CURVE SMOOTH",
"210 1528 OFFCURVE",
"348 1629 OFFCURVE",
"350 1789 CURVE SMOOTH",
"351 1952 OFFCURVE",
"218 2056 OFFCURVE",
"10 2056 CURVE SMOOTH",
"-208 2056 OFFCURVE",
"-350 1954 OFFCURVE",
"-352 1796 CURVE SMOOTH",
"-355 1632 OFFCURVE",
"-220 1528 OFFCURVE"
);
}
);
width = 0;
}
);
},
{
glyphname = ogonekcomb;
lastChange = "2015-11-29 15:16:09 +0000";
layers = (
{
layerId = "DAAEA780-4710-4479-B303-5C05B40621B2";
name = Light;
paths = (
{
closed = 1;
nodes = (
"243 -439 CURVE",
"209 -366 LINE",
"161 -388 OFFCURVE",
"107 -398 OFFCURVE",
"63 -398 CURVE SMOOTH",
"-22 -398 OFFCURVE",
"-83 -360 OFFCURVE",
"-83 -279 CURVE SMOOTH",
"-83 -159 OFFCURVE",
"54 -42 OFFCURVE",
"221 15 CURVE",
"116 30 LINE",
"47 0 LINE SMOOTH",
"-109 -69 OFFCURVE",
"-244 -188 OFFCURVE",
"-244 -327 CURVE SMOOTH",
"-244 -456 OFFCURVE",
"-134 -513 OFFCURVE",
"-5 -513 CURVE SMOOTH",
"85 -513 OFFCURVE",
"181 -485 OFFCURVE"
);
}
);
width = 0;
},
{
layerId = "925CB40E-795E-477B-BAE7-1EE7D58841B5";
name = Bold;
paths = (
{
closed = 1;
nodes = (
"282 -442 CURVE",
"230 -303 LINE",
"195 -318 OFFCURVE",
"156 -326 OFFCURVE",
"120 -326 CURVE SMOOTH",
"48 -326 OFFCURVE",
"-6 -295 OFFCURVE",
"-6 -225 CURVE SMOOTH",
"-6 -131 OFFCURVE",
"97 -34 OFFCURVE",
"253 12 CURVE",
"124 38 LINE",
"22 3 LINE SMOOTH",
"-155 -57 OFFCURVE",
"-284 -170 OFFCURVE",
"-284 -306 CURVE SMOOTH",
"-284 -447 OFFCURVE",
"-164 -517 OFFCURVE",
"-5 -519 CURVE SMOOTH",
"92 -520 OFFCURVE",
"204 -493 OFFCURVE"
);
}
);
width = 0;
}
);
unicode = 0328;
},
{
glyphname = tildecomb;
lastChange = "2015-11-29 15:16:09 +0000";
layers = (
{
anchors = (
{
name = _top;
position = "{0, 1136}";
}
);
layerId = "DAAEA780-4710-4479-B303-5C05B40621B2";
name = Light;
paths = (
{
closed = 1;
nodes = (
"400 1528 CURVE",
"335 1565 LINE",
"299 1510 OFFCURVE",
"248 1436 OFFCURVE",
"178 1436 CURVE SMOOTH",
"80 1436 OFFCURVE",
"-7 1576 OFFCURVE",
"-145 1576 CURVE SMOOTH",
"-283 1576 OFFCURVE",
"-367 1449 OFFCURVE",
"-400 1342 CURVE",
"-335 1305 LINE",
"-299 1360 OFFCURVE",
"-249 1434 OFFCURVE",
"-178 1434 CURVE SMOOTH",
"-80 1434 OFFCURVE",
"7 1294 OFFCURVE",
"145 1294 CURVE SMOOTH",
"283 1294 OFFCURVE",
"367 1421 OFFCURVE"
);
}
);
width = 0;
},
{
anchors = (
{
name = _top;
position = "{0, 1138}";
}
);
layerId = "925CB40E-795E-477B-BAE7-1EE7D58841B5";
name = Bold;
paths = (
{
closed = 1;
nodes = (
"-340 1390 CURVE",
"-253 1339 LINE",
"-219 1397 OFFCURVE",
"-180 1433 OFFCURVE",
"-138 1433 CURVE SMOOTH",
"-67 1433 OFFCURVE",
"-6 1332 OFFCURVE",
"107 1332 CURVE SMOOTH",
"225 1332 OFFCURVE",
"308 1441 OFFCURVE",
"340 1573 CURVE",
"253 1624 LINE",
"219 1567 OFFCURVE",
"180 1531 OFFCURVE",
"138 1531 CURVE SMOOTH",
"67 1531 OFFCURVE",
"6 1632 OFFCURVE",
"-107 1632 CURVE SMOOTH",
"-225 1632 OFFCURVE",
"-308 1523 OFFCURVE"
);
}
);
width = 0;
}
);
unicode = 0303;
},
{
glyphname = tildecomb.case;
lastChange = "2015-11-29 15:16:09 +0000";
layers = (
{
anchors = (
{
name = _top;
position = "{0, 1562}";
}
);
layerId = "DAAEA780-4710-4479-B303-5C05B40621B2";
name = Light;
paths = (
{
closed = 1;
nodes = (
"415 1930 CURVE",
"350 1967 LINE",
"312 1912 OFFCURVE",
"258 1835 OFFCURVE",
"183 1835 CURVE SMOOTH",
"82 1835 OFFCURVE",
"-9 1978 OFFCURVE",
"-150 1978 CURVE SMOOTH",
"-283 1978 OFFCURVE",
"-381 1851 OFFCURVE",
"-415 1744 CURVE",
"-350 1707 LINE",
"-312 1762 OFFCURVE",
"-258 1839 OFFCURVE",
"-183 1839 CURVE SMOOTH",
"-82 1839 OFFCURVE",
"9 1696 OFFCURVE",
"150 1696 CURVE SMOOTH",
"283 1696 OFFCURVE",
"381 1823 OFFCURVE"
);
}
);
width = 0;
},
{
anchors = (
{
name = _top;
position = "{0, 1562}";
}
);
layerId = "925CB40E-795E-477B-BAE7-1EE7D58841B5";
name = Bold;
paths = (
{
closed = 1;
nodes = (
"-353 1787 CURVE",
"-264 1737 LINE",
"-229 1793 OFFCURVE",
"-189 1823 OFFCURVE",
"-145 1823 CURVE SMOOTH",
"-71 1823 OFFCURVE",
"-6 1729 OFFCURVE",
"113 1729 CURVE SMOOTH",
"236 1729 OFFCURVE",
"320 1836 OFFCURVE",
"352 1964 CURVE",
"263 2014 LINE",
"228 1958 OFFCURVE",
"188 1928 OFFCURVE",
"144 1928 CURVE SMOOTH",
"70 1928 OFFCURVE",
"6 2021 OFFCURVE",
"-114 2021 CURVE SMOOTH",
"-236 2021 OFFCURVE",
"-320 1915 OFFCURVE"
);
}
);
width = 0;
}
);
},
{
glyphname = hungarumlautcomb;
lastChange = "2015-11-29 15:16:09 +0000";
layers = (
{
anchors = (
{
name = _top;
position = "{0, 1136}";
}
);
layerId = "DAAEA780-4710-4479-B303-5C05B40621B2";
name = Light;
paths = (
{
closed = 1;
nodes = (
"-208 1293 LINE",
"-108 1387 OFFCURVE",
"57 1580 OFFCURVE",
"116 1700 CURVE",
"-19 1780 LINE",
"-268 1340 LINE"
);
},
{
closed = 1;
nodes = (
"152 1293 LINE",
"259 1380 OFFCURVE",
"437 1566 OFFCURVE",
"504 1681 CURVE",
"375 1770 LINE",
"96 1344 LINE"
);
}
);
width = 0;
},
{
anchors = (
{
name = _top;
position = "{0, 1138}";
}
);
layerId = "925CB40E-795E-477B-BAE7-1EE7D58841B5";
name = Bold;
paths = (
{
closed = 1;
nodes = (
"-227 1272 LINE",
"-100 1379 OFFCURVE",
"52 1562 OFFCURVE",
"132 1698 CURVE",
"-88 1824 LINE",
"-343 1360 LINE"
);
},
{
closed = 1;
nodes = (
"205 1272 LINE",
"338 1371 OFFCURVE",
"500 1551 OFFCURVE",
"588 1683 CURVE",
"374 1820 LINE",
"95 1366 LINE"
);
}
);
width = 0;
}
);
unicode = 030B;
},
